<svg width="456" height="355" fill="none" xmlns="http://www.w3.org/2000/svg"><path d="M269.42 100.493c51.028 27.46 92.502 60.998 118.316 92.985 12.909 15.996 21.87 31.564 26.175 45.756 4.304 14.187 3.937 26.922-1.684 37.367-5.621 10.445-16.047 17.766-30.258 21.99-14.215 4.224-32.145 5.322-52.606 3.361-40.917-3.923-91.754-20.06-142.782-47.52-51.028-27.46-92.502-60.998-118.317-92.986-12.908-15.995-21.87-31.564-26.174-45.755-4.305-14.187-3.938-26.922 1.683-37.367 5.621-10.445 16.047-17.767 30.258-21.99 14.216-4.225 32.145-5.323 52.606-3.361 40.917 3.923 91.755 20.06 142.783 47.52z" stroke="#FF57C6" stroke-width="2"/><path d="M260.334 96.255c53.837 21.436 98.878 50.005 128.185 78.827 14.655 14.412 25.34 28.852 31.242 42.457 5.9 13.601 6.994 26.294 2.606 37.314s-13.907 19.487-27.541 25.31c-13.639 5.825-31.325 8.968-51.876 9.362-41.097.788-93.448-9.422-147.284-30.859-53.837-21.436-98.878-50.005-128.185-78.827-14.655-14.412-25.34-28.852-31.242-42.457-5.9-13.601-6.994-26.294-2.606-37.314s13.907-19.487 27.541-25.31c13.639-5.824 31.325-8.968 51.876-9.362 41.097-.788 93.448 9.422 147.284 30.859z" stroke="#FF57C6" stroke-width="2"/><path d="M252.571 93.577c55.611 16.289 103.134 40.505 135.017 66.449 15.943 12.973 27.936 26.347 35.088 39.338 7.151 12.987 9.431 25.522 6.096 36.905-3.334 11.383-12.016 20.706-25.044 27.783-13.032 7.078-30.344 11.868-50.767 14.189-40.842 4.641-93.921-.611-149.531-16.9-55.611-16.29-103.134-40.506-135.017-66.45-15.943-12.973-27.936-26.346-35.088-39.338-7.15-12.987-9.43-25.521-6.097-36.904 3.335-11.383 12.017-20.707 25.045-27.783 13.032-7.08 30.344-11.868 50.767-14.19 40.842-4.641 93.92.611 149.531 16.9z" stroke="#FF57C6" stroke-width="2"/></svg>