<svg width="1254" height="154" fill="none" xmlns="http://www.w3.org/2000/svg"><path d="M1 1.421l24.452 20.607L49.92 1.42l24.452 20.607L98.84 1.42l24.46 20.607L147.76 1.42l24.46 20.607L196.68 1.42l24.46 20.607L245.6 1.42l24.46 20.607L294.52 1.42l24.459 20.607L343.447 1.42l24.46 20.607L392.375 1.42l24.468 20.607M837 27.421l24.46 20.6 24.46-20.6 24.46 20.6 24.46-20.6 24.46 20.6 24.46-20.6 24.46 20.6 24.46-20.6 24.46 20.6 24.46-20.6 24.46 20.6 24.46-20.6 24.47 20.6 24.46-20.6 24.46 20.6 24.46-20.6 24.47 20.6M223 53.421l24.46 20.6 24.46-20.6 24.46 20.6 24.46-20.6 24.46 20.6 24.46-20.6 24.46 20.6 24.467-20.6 24.46 20.6 24.46-20.6 24.46 20.6 24.46-20.6 24.46 20.6 24.468-20.6 24.46 20.6 24.468-20.6 24.467 20.6M664 79.421l24.452 20.607 24.468-20.607 24.452 20.607 24.468-20.607 24.46 20.607 24.46-20.607 24.46 20.607 24.46-20.607 24.46 20.607 24.46-20.607 24.46 20.607 24.46-20.607 24.459 20.607 24.471-20.607 24.46 20.607 24.46-20.607 24.47 20.607M78 105.421l24.46 20.599 24.46-20.599 24.46 20.599 24.46-20.599 24.46 20.599 24.46-20.599 24.46 20.599 24.46-20.599 24.467 20.599 24.452-20.599 24.46 20.599 24.468-20.599 24.46 20.599 24.46-20.599 24.468 20.599 24.467-20.599 24.46 20.599M543 131.822l24.46 20.599 24.46-20.599 24.46 20.599 24.46-20.599 24.46 20.599 24.46-20.599 24.46 20.599 24.46-20.599 24.467 20.599 24.452-20.599 24.46 20.599 24.468-20.599 24.46 20.599 24.46-20.599 24.468 20.599 24.467-20.599 24.46 20.599" stroke="#FFA800" stroke-width="2" stroke-miterlimit="10" stroke-linecap="round"/></svg>