<svg width="120" height="120" fill="none" xmlns="http://www.w3.org/2000/svg"><g clip-path="url(#clip0)"><path d="M61.83 28.073c-12.588 9.809-26.186 19.482-36.637 31.626-12.34 14.338 5.003 13.542 15.869 10.133 11.124-3.49 21.528-9.282 31.347-15.479.829-.523 17.378-10.761 9.577-12.026-6.799-1.103-14.785-.041-21.047 2.672-7.551 3.273-19.466 11.867-20.378 20.991-1.623 16.23 41.208 13.504 48.218 6.626 3.373-3.31-5.455-4.263-6.626-4.343-6.39-.433-15.4-.072-18.875 6.403-6.685 12.459 36.515 8.483 41.536 8.52 5.812.04 2.658 1.115-.835 2.004-10.197 2.595-21.321 3.774-31.793 4.343-9.112.494-22.03 1.339-29.287-5.568-6.768-6.443-5.298-20.54-5.122-28.842.247-11.663 2.525-23.212 8.407-33.408.57-.986 8.807-11.343 5.847-12.527-3.867-1.547-11.16 1.857-14.477 3.285-7.33 3.154-18.768 9.22-20.935 17.817-2.093 8.3 8.818 14.274 14.532 17.539 4.024 2.3 8.214 4.173 12.528 5.846 1.068.414 4.195 1.056 3.118 1.448-5.038 1.832-11.684 1.503-16.927 2.227-7.883 1.089-24.026 1.974-27.505 11.136-1.813 4.775 6.578 7.191 9.465 8.296 5.432 2.079 11.022 3.848 16.593 5.512 2.648.791 5 1.762 2.394-1.002C25.167 75.31 20.5 69.23 16.062 62.26 8.042 49.665-1.6 36.988-4.651 22.06-6.05 15.203-7.145 5.32-2.256-.547c5.682-6.819 6.73 6.35 6.848 9.298.57 14.264-.128 28.547.557 42.817.585 12.179.343 26.055 4.064 37.806C13.736 103.657 19.257 75 19.514 73.395c2.05-12.77 2.831-25.642 3.73-38.53.387-5.534.882-11.059 1.281-16.592.071-.987.418-3.595-.334-2.95-3.126 2.679-1.058 13.822-.78 16.759 1.911 20.133 5.302 40.413 10.245 60.022.098.386 1.75 10.308 3.675 5.234 3.494-9.211 5.191-19.434 6.96-29.065 2.542-13.84 4.87-27.75 7.072-41.648 1.138-7.186.53-16.159 3.117-3.675a621.652 621.652 0 0012.807 50.835c2.578 8.684 5.099 17.46 8.129 26.002.785 2.213 2.882 8.045 3.842 5.902 3.676-8.2 2.54-21.253 3.619-30.066 1.607-13.134 3.51-26.25 4.788-39.421 1.573-16.2.416 32.6 2.227 48.775.009.076 1.307 15.386 3.453 13.363 5.297-4.995 5.67-16.55 6.57-23.051 1.837-13.28 2.646-26.693 2.951-40.09.28-12.35 1.963 4.088 2.839 7.35 3.19 11.881 7.519 23.582 11.582 35.19 3.264 9.325 3.963 2.66 4.454-3.118.292-3.441-1.637-13.23.278-10.357.26.39 1.656 8.038 2.394 7.406 2.191-1.878.589-13.828.557-16.092-.142-10.02.149-20.31-11.024-23.83-9.154-2.885-19.962-1.67-29.399-1.67-5.481 0-11.006.139-16.48-.223a19.04 19.04 0 01-2.34-.279c-.278-.053.442-.429.724-.445 9.532-.56 19.244-.101 28.787-.056 5.408.026 6.975-.95 7.683 4.009" stroke="#FFE8BC" stroke-width="3" stroke-linecap="round"/><path d="M24.303 103.441a54.91 54.91 0 01-5.156-11.888m21.096 5.181c-6.26-8.246-9.892-17.866-10.906-27.737M53.91 90.879c-10.816-12.106-11.826-29.933-3.102-43.354" stroke="#000" stroke-width="3" stroke-linecap="round"/><path d="M11.875 107.382l28.566-67.114a2.372 2.372 0 013.86-.748L81.293 76.51a2.372 2.372 0 01-.749 3.86l-67.113 28.566c-.983.419-1.974-.573-1.556-1.555zM79.281 56.517c10.346-10.346 24.771-12.694 32.219-5.245M64.296 41.531c10.345-10.345 12.693-24.77 5.244-32.22M72.912 50.148v-3.186a3.558 3.558 0 013.558-3.558h3.186V40.22a3.558 3.558 0 013.558-3.558h3.185v-3.186a3.558 3.558 0 013.558-3.558h3.186v-3.185a3.558 3.558 0 013.558-3.558h3.185" stroke="#000" stroke-width="3" stroke-linecap="round"/><circle cx="83.777" cy="21.3" r="1.589" transform="rotate(45 83.777 21.3)" fill="#000"/><circle r="1.589" transform="scale(-1 1) rotate(-45 -5.58 137.36)" fill="#000"/><circle cx="59.05" cy="25.047" r="1.589" transform="rotate(45 59.05 25.047)" fill="#000"/><circle r="1.589" transform="scale(-1 1) rotate(-45 26.14 145.2)" fill="#000"/></g><defs><clipPath id="clip0"><path fill="#fff" d="M0 0h120v120H0z"/></clipPath></defs></svg>