<svg width="122" height="120" fill="none" xmlns="http://www.w3.org/2000/svg"><path d="M38.818 18.518c-4.117 15.387-14.93 26.01-21.86 39.992-.772 1.56-2.803 6.85.807 6.85 7.952 0 16.697-12.384 21.053-17.527 6.772-7.996 13.52-16.122 19.845-24.48.179-.235 3.767-6.616 2.72-3.475-2.113 6.338-3.328 12.778-5.943 18.99-4.593 10.907-10.48 21.366-16.521 31.53-2.941 4.948-1.522-.382-.856-2.67 1.94-6.67 5.402-12.691 9.318-18.384 3.226-4.69 6.794-11.115 11.131-14.91 1.187-1.038-.365 3.172-.957 4.635-2.63 6.5-5.712 12.83-8.965 19.039-6.061 11.563-12.636 23.08-20.752 33.343-5.473 6.92-3.652 3.622-.403-1.914 6.532-11.128 14.442-20.918 23.37-30.22 5.743-5.984 11.713-11.801 18.033-17.176 1.847-1.572 7.47-7.278 10.577-7.505.985-.072-.446 1.947-.907 2.82-2.507 4.751-4.945 9.528-7.404 14.305-7.148 13.887-14.94 27.43-22.111 41.302-1.442 2.789-5.504 11.464-.403 3.878C57.25 84.06 67.43 72.561 78.91 62.087c5.647-5.153 14.629-15.006 22.565-16.874.801-.188-.061 1.724-.504 2.418C97 53.86 92.148 59.635 87.574 65.411c-9.641 12.174-19.547 24.198-28.609 36.819-1.48 2.061-5.956 6.619-3.425 6.8 1.685.12 6.077-5.71 6.649-6.296 9.655-9.898 20.112-19.021 31.027-27.501 1.568-1.219 16.236-14.026 9.569-4.231-6.376 9.368-21.388 39.534-13.901 31.026 3.417-3.883 6.465-7.946 10.476-11.282.366-.304 6.616-5.104 6.196-3.072-1.115 5.385-3.714 10.51-5.087 15.865-.086.336-1.156 3.904-.202 0 .988-4.042 2.603-7.867 4.231-11.685 4.083-9.574 8.773-18.935 12.491-28.66 1.833-4.792 5.224-12.627-.302-16.369-6.129-4.15-15.234-3.666-22.212-3.777-10.3-.165-20.642-.24-30.926.402-3.003.188-12.025.454-9.016.454 7.06 0 14.102-.121 21.154-.504 9.302-.505 18.733-.65 28.005-1.51.459-.044.948-.047 1.36-.253.79-.395-1.736-.373-2.619-.403-5.445-.181-10.924-.068-16.37-.05-16.764.056-66.942-.113-50.267 1.612 11.804 1.22 23.407 1.89 35.157 3.979 1.92.341 36.735 5.715 32.89 11.987-3.367 5.494-17.844 5.296-22.917 5.591-14.487.845-29.284.774-43.77-.1-6.444-.39-9.8-1.31-1.36-1.31 18.215 0 36.71.214 54.8 2.518 7.889 1.005 5.107 2.767-.957 3.778-13.434 2.239-27.377 2.107-40.949 2.77-.811.04-23.572.662-23.572 1.36 0 .894 32.932.453 34.552.453H81.33c2.888 0 5.775-.01 8.663 0 2.117.008 7.435-1.613 6.346.202-1.15 1.918-4.424.673-6.648.906-8.03.842-16.065 1.549-24.076 2.57-14.867 1.893-29.942 3.562-44.626 6.597-9.396 1.943 12.343 2.172 13.901 2.217 15.866.451 31.805-.362 47.649.705 7.972.536 2.368 3.587-1.713 5.44-9.201 4.176-19.718 6.005-29.465 8.461-1.308.33-17.522 4.392-14.355 4.584 8.63.523 34.586.05 25.94.05-6.796 0-15.466.062-21.407 3.627" stroke="#E4D8FF" stroke-width="3" stroke-linecap="round"/><path d="M72.65 49.852c0-6.217-2.469-13.814-10.8-13.814-8.331 0-10.8 7.597-10.8 13.814 0 6.216 1.543 15.886 10.8 15.886 9.257 0 10.8-9.67 10.8-15.886z" stroke="#000" stroke-width="3"/><path d="M53.636 65.737c-9.925 6.325-16.086 3.866-16.086 12.65v7.379c3.765 1.405 13.348 5.622 24.3 5.622s20.535-4.217 24.3-5.622v-7.38c0-8.783-6.16-6.324-16.086-12.648" stroke="#000" stroke-width="3" stroke-linecap="round" stroke-linejoin="round"/><path d="M38.675 41.163c0-5.698-2.263-12.663-9.9-12.663-7.637 0-9.9 6.965-9.9 12.663s1.414 14.562 9.9 14.562 9.9-8.864 9.9-14.562z" stroke="#000" stroke-width="3"/><path d="M21.245 55.725C12.147 61.522 6.5 59.268 6.5 67.32v6.764c3.451 1.288 12.236 5.153 22.275 5.153.681 0 1.357-.017 2.025-.051m5.505-23.461c4.91 3.129 8.815 3.912 11.37 5.237M88.597 68.438v-4.933c-3.375 0-8.438-2.671-10.547-4.007 1.507-1.13 7.112-5.423 6.027-10.481-2.712-12.64 2.11-19.73 8.437-19.73 4.822 0 6.931 2.775 6.931 2.775s8.739-2.774 8.739 6.782c0 8.323-1.205 16.646 3.616 20.654 0 0-5.424 4.007-9.944 4.007v4.933M102.706 68.438c3.024.9 9.617 4.32 11.794 10.8H92.226" stroke="#000" stroke-width="3" stroke-linecap="round" stroke-linejoin="round"/></svg>