<svg width="120" height="120" fill="none" xmlns="http://www.w3.org/2000/svg"><g clip-path="url(#clip0)"><path d="M35.626 25.991c-7.528 20.476-7.082 45.344 14.57 56.768 12.21 6.444 29.072 13.188 43.022 8.935 9.463-2.885 12.607-11.318 7.56-19.93-7.916-13.51-25.675-18.526-39.93-21.237-11.425-2.173-35.499-7.087-44.878 3.23C5.902 64.832 57.694 76.029 67.102 68.189 81.3 56.36 30.517 31.18 24.354 28.603c-1.174-.49-17.904-5.885-9.484.206 9.827 7.109 21.654 11.3 32.302 16.976 5.723 3.05 15.834 6.913 12.783 15.05-3.108 8.288-10.83 13.873-16.907 19.863-7.75 7.638-15.09 16.507-18.694 26.94-2.83 8.195-2.006 2.876-4.948-3.848-2.797-6.395-7.14-13.619-6.735-20.893.49-8.818 9.847-12.305 16.907-14.776 8.91-3.12 20.256-5.18 27.628-11.478 5.41-4.62 2.567-11.495-3.437-13.607-4.81-1.693-16.329-3.805-20.48.412-5.444 5.53.548 16.218 4.88 20.137 8.97 8.116 22.588 14.496 34.156 17.662 7.306 2 16.462 1.072 11.959-8.522-3.102-6.607-22.389-19.155-6.048-19.518 1.775-.04 29.479-1.911 23.642-6.873-3.507-2.98-16.405 6.57-13.47 3.024 3.489-4.216 6.305-8.974 9.621-13.332 1.144-1.503 8.865-9.217 2.612-8.523-10.264 1.14-21.184 6.446-30.652 10.172-16.069 6.323-33.59 13.052-47.765 23.092-6.265 4.438-4.486 7.83 2.543 8.247 12.3.73 25.153-4.633 36.494-8.59 14.933-5.212 29.896-10.757 44.328-17.25 8.343-3.755-2.56.892-4.124 1.717-6.652 3.513-82.034 50.037-80.41 51.957 3.43 4.053 25.154.622 29.278.344 15.624-1.052 31.797-3.16 46.596-8.522 8.15-2.953 2.285-4.01-2.749-4.261-13.315-.666-28.236.717-40.548 6.048-6.468 2.8-11.498 8.877-1.65 10.446 8.317 1.325 17.326-1.142 25.154-3.711 5.256-1.725 8.942-2.911 1.375-3.161-18.182-.602-32.164-8.791-46.322-19.931C15.22 60.747-.13 42.632 5.8 19.394c5.262-20.622 27.865-5.021 38.898-.138 6.125 2.711 12.518 3.5 19.106 4.193 2.705.284-5.566-.069-8.11.893-8.695 3.287-29.49 25.536-21.51 35.944 7.46 9.73 34.587-3.368 43.434-5.017 17.5-3.263-9.075 23.342-11.89 25.84-9.265 8.225-18.714 16.26-28.452 23.918-5.455 4.29-2.858 3.848 2.68 3.848 25.4 0 50.68-2.474 76.08-2.474" stroke="#D5D5D5" stroke-width="3" stroke-linecap="round"/><path d="M47.885 62.435l-4.95 4.95 27.93 27.93a3.5 3.5 0 004.95 0v0a3.5 3.5 0 000-4.95l-27.93-27.93z" stroke="#000" stroke-width="3" stroke-linecap="round"/><path d="M47.885 62.435l-4.95 4.95-10.96-10.96a3.5 3.5 0 010-4.95v0a3.5 3.5 0 014.95 0l10.96 10.96zM75.555 95.576c7.288 8.74 26.524 21.56 45.162 2.922" stroke="#000" stroke-width="3" stroke-linecap="round"/><path d="M62.228 33.5H78.39v-3H62.228v3zm-7.37 7.208h.162v-3h-.162v3zm-2.265 2.678v-.412h-3v.412h3zm18.84 2.678H55.27v3h16.162v-3zm7.37-7.208h-.162v3h.162v-3zm2.266-2.678v.413h3v-.413h-3zm-2.266 5.678a5.266 5.266 0 005.266-5.266h-3a2.266 2.266 0 01-2.266 2.266v3zm-2.266 2.104c0-1.162.942-2.104 2.104-2.104v-3a5.104 5.104 0 00-5.104 5.104h3zm-5.104 5.105a5.104 5.104 0 005.104-5.105h-3a2.104 2.104 0 01-2.104 2.105v3zm-21.84-5.679a5.678 5.678 0 005.678 5.678v-3a2.678 2.678 0 01-2.678-2.678h-3zm5.265-5.678a5.266 5.266 0 00-5.265 5.266h3a2.266 2.266 0 012.265-2.266v-3zm2.266-2.104a2.104 2.104 0 01-2.104 2.104v3a5.104 5.104 0 005.104-5.104h-3zM78.39 33.5c1.48 0 2.678 1.199 2.678 2.678h3A5.678 5.678 0 0078.39 30.5v3zm-16.162-3a5.104 5.104 0 00-5.104 5.104h3c0-1.162.942-2.104 2.104-2.104v-3zM58.624 1.5h-10v3h10v-3zm7 6h-1v3h1v-3zm-6 11h6v-3h-6v3zm-11-6h5v-3h-5v3zm-29.42 6H34.97v-3H19.203v3zM9 26.5h2.204v-3H9v3zm16.178 6H9v3h16.178v-3zm9.792-8.644h-1.148v3h1.148v-3zm0 3a5.678 5.678 0 005.678-5.678h-3c0 1.48-1.2 2.678-2.678 2.678v3zM31 29.678a2.822 2.822 0 012.822-2.822v-3A5.822 5.822 0 0028 29.678h3zM25.178 35.5A5.822 5.822 0 0031 29.678h-3a2.822 2.822 0 01-2.822 2.822v3zM3 29.5a6 6 0 006 6v-3a3 3 0 01-3-3H3zm6-6a6 6 0 00-6 6h3a3 3 0 013-3v-3zm4.704-2.5a2.5 2.5 0 01-2.5 2.5v3a5.5 5.5 0 005.5-5.5h-3zm21.266-2.5c1.479 0 2.678 1.2 2.678 2.678h3A5.678 5.678 0 0034.97 15.5v3zm-15.767-3a5.5 5.5 0 00-5.5 5.5h3a2.5 2.5 0 012.5-2.5v-3zm29.421-6a2.5 2.5 0 01-2.5-2.5h-3a5.5 5.5 0 005.5 5.5v-3zm9.5 4.5a4.5 4.5 0 00-4.5-4.5v3a1.5 1.5 0 011.5 1.5h3zm1.5 1.5a1.5 1.5 0 01-1.5-1.5h-3a4.5 4.5 0 004.5 4.5v-3zm8.5-2.5a2.5 2.5 0 01-2.5 2.5v3a5.5 5.5 0 005.5-5.5h-3zm-2.5-2.5a2.5 2.5 0 012.5 2.5h3a5.5 5.5 0 00-5.5-5.5v3zm-5.5-4.5a4.5 4.5 0 004.5 4.5v-3a1.5 1.5 0 01-1.5-1.5h-3zm-11.5-4.5a5.5 5.5 0 00-5.5 5.5h3a2.5 2.5 0 012.5-2.5v-3zm10 3a1.5 1.5 0 011.5 1.5h3a4.5 4.5 0 00-4.5-4.5v3zM21.624 78.5h10v-3h-10v3zm5 5h-5v3h5v-3zm6 9h6v-3h-6v3zm6-11h-1v3h1v-3zM19.5 95.5h-5v3h5v-3zm-5 11h5v-3h-5v3zm0-3A2.5 2.5 0 0112 101H9a5.5 5.5 0 005.5 5.5v-3zM22 101a2.5 2.5 0 01-2.5 2.5v3A5.5 5.5 0 0025 101h-3zm-7.5-5.5A5.5 5.5 0 009 101h3a2.5 2.5 0 012.5-2.5v-3zm5 3A2.5 2.5 0 0122 101h3a5.5 5.5 0 00-5.5-5.5v3zm18.124-17a1.5 1.5 0 01-1.5-1.5h-3a4.5 4.5 0 004.5 4.5v-3zm6.5 5.5a5.5 5.5 0 00-5.5-5.5v3a2.5 2.5 0 012.5 2.5h3zm-5.5 5.5a5.5 5.5 0 005.5-5.5h-3a2.5 2.5 0 01-2.5 2.5v3zm-10.5-4.5a4.5 4.5 0 004.5 4.5v-3a1.5 1.5 0 01-1.5-1.5h-3zm-1.5-1.5a1.5 1.5 0 011.5 1.5h3a4.5 4.5 0 00-4.5-4.5v3zm-10.5-5.5a5.5 5.5 0 005.5 5.5v-3a2.5 2.5 0 01-2.5-2.5h-3zm15.5-2.5a1.5 1.5 0 011.5 1.5h3a4.5 4.5 0 00-4.5-4.5v3zm-10-3a5.5 5.5 0 00-5.5 5.5h3a2.5 2.5 0 012.5-2.5v-3z" fill="#000"/></g><defs><clipPath id="clip0"><path fill="#fff" d="M0 0h120v120H0z"/></clipPath></defs></svg>