<svg width="120" height="120" fill="none" xmlns="http://www.w3.org/2000/svg"><path d="M35.626 25.991c-7.528 20.476-7.082 45.344 14.57 56.768 12.21 6.444 29.072 13.188 43.022 8.935 9.463-2.885 12.607-11.318 7.56-19.93-7.916-13.51-25.675-18.526-39.93-21.237-11.425-2.173-35.499-7.087-44.878 3.23C5.902 64.832 57.694 76.029 67.102 68.189 81.3 56.36 30.517 31.18 24.354 28.603c-1.174-.49-17.904-5.885-9.484.206 9.827 7.109 21.654 11.3 32.302 16.976 5.723 3.05 15.834 6.913 12.783 15.05-3.108 8.288-10.83 13.873-16.907 19.863-7.75 7.638-15.09 16.507-18.694 26.94-2.83 8.195-2.006 2.876-4.948-3.848-2.797-6.395-7.14-13.619-6.735-20.893.49-8.818 9.847-12.305 16.907-14.776 8.91-3.12 20.256-5.18 27.628-11.478 5.41-4.62 2.567-11.495-3.437-13.607-4.81-1.693-16.329-3.805-20.48.412-5.444 5.53.548 16.218 4.88 20.137 8.97 8.116 22.588 14.496 34.156 17.662 7.306 2 16.462 1.072 11.959-8.522-3.102-6.607-22.389-19.155-6.048-19.518 1.775-.04 29.479-1.911 23.642-6.873-3.507-2.98-16.405 6.57-13.47 3.024 3.489-4.216 6.305-8.974 9.621-13.332 1.144-1.503 8.865-9.217 2.612-8.523-10.264 1.14-21.184 6.446-30.652 10.172-16.069 6.323-33.59 13.052-47.765 23.092-6.265 4.438-4.486 7.83 2.543 8.247 12.3.73 25.153-4.633 36.494-8.59 14.933-5.212 29.896-10.757 44.328-17.25 8.343-3.755-2.56.892-4.124 1.717-6.652 3.513-82.034 50.037-80.41 51.957 3.43 4.053 25.154.622 29.278.344 15.624-1.052 31.797-3.16 46.596-8.522 8.15-2.953 2.285-4.01-2.749-4.261-13.315-.666-28.236.717-40.548 6.048-6.468 2.8-11.498 8.877-1.65 10.446 8.317 1.325 17.326-1.142 25.154-3.711 5.256-1.725 8.942-2.911 1.375-3.161-18.182-.602-32.164-8.791-46.322-19.931C15.22 60.747-.13 42.632 5.8 19.394c5.262-20.622 27.865-5.021 38.898-.138 6.125 2.711 12.518 3.5 19.106 4.193 2.705.284-5.566-.069-8.11.893-8.695 3.287-29.49 25.536-21.51 35.944 7.46 9.73 34.587-3.368 43.434-5.017 17.5-3.263-9.075 23.342-11.89 25.84-9.265 8.225-18.714 16.26-28.452 23.918-5.455 4.29-2.858 3.848 2.68 3.848 25.4 0 50.68-2.474 76.08-2.474" stroke="#F8DDEB" stroke-width="3" stroke-linecap="round"/><g clip-path="url(#clip0)" stroke="#000" stroke-width="3" stroke-miterlimit="10"><path d="M85.088 37.844a13.213 13.213 0 110-26.425H28.943a13.213 13.213 0 000 26.425h56.145zM85.088 11.419a13.213 13.213 0 0113.213 13.213"/><path d="M39.876 37.844c-6.434 20.267-24.128 41.978-24.128 57.814a13.215 13.215 0 008.156 12.207 13.213 13.213 0 005.056 1.006h62.528a13.213 13.213 0 000-26.425c-12.085 0-13.487 13.212-13.487 13.212h-6.134a13.215 13.215 0 008.157 12.207 13.213 13.213 0 005.056 1.006M71.876 95.659c0-19.355 26.425-47.492 26.425-71.028M73.355 61.87h-.009M74.878 82.446h16.619"/><path d="M42.792 53.087c.427.051.837.192 1.205.413l.688.421a2.35 2.35 0 002.236 0l1.368-.86a2.348 2.348 0 012.237 0l1.367.86a2.35 2.35 0 002.237 0l1.368-.86a2.348 2.348 0 012.236 0l1.368.86a2.35 2.35 0 002.237 0l1.367-.86a2.348 2.348 0 012.237 0l1.368.86a2.349 2.349 0 002.236 0l1.368-.86a2.348 2.348 0 012.236 0l1.368.86a2.35 2.35 0 002.236 0l.689-.421a3.208 3.208 0 011.488-.439M38.225 61.87c.457.053.9.199 1.298.43l.689.421a2.33 2.33 0 002.228 0l1.376-.86a2.332 2.332 0 012.228 0l1.376.86a2.33 2.33 0 002.228 0l1.376-.86a2.332 2.332 0 012.228 0l1.377.86a2.33 2.33 0 002.228 0l1.376-.86a2.332 2.332 0 012.228 0l1.376.86a2.348 2.348 0 002.237 0l1.368-.86a2.349 2.349 0 012.236 0l1.368.86a2.348 2.348 0 002.236 0l.68-.421a3.201 3.201 0 011.385-.43v0M33.502 70.79c.506.037.997.187 1.437.439l.68.421a2.35 2.35 0 002.236 0l1.367-.86a2.348 2.348 0 012.237 0l1.376.86a2.332 2.332 0 002.228 0l1.377-.86a2.33 2.33 0 012.228 0l1.376.86a2.332 2.332 0 002.228 0l1.376-.86a2.33 2.33 0 012.228 0l1.376.86a2.332 2.332 0 002.228 0l1.377-.86a2.33 2.33 0 012.228 0l1.376.86a2.332 2.332 0 002.228 0l.688-.421a3.2 3.2 0 011.239-.413M29.373 79.35c.249.064.486.165.705.3l.688.422a2.332 2.332 0 002.228 0l1.377-.86a2.33 2.33 0 012.227 0l1.377.86a2.332 2.332 0 002.228 0l1.376-.86a2.33 2.33 0 012.228 0l1.376.86a2.332 2.332 0 002.228 0l1.377-.86a2.348 2.348 0 012.236 0l1.368.86a2.35 2.35 0 002.236 0l1.368-.86a2.348 2.348 0 012.237 0l1.367.86a2.349 2.349 0 002.237 0l.68-.422a3.604 3.604 0 012.047-.447"/></g><defs><clipPath id="clip0"><path fill="#fff" transform="translate(14.44 10.128)" d="M0 0h91.56v100.033H0z"/></clipPath></defs></svg>