<svg width="539" height="488" fill="none" xmlns="http://www.w3.org/2000/svg"><path d="M48.52 180.351l88.511 9.583-8.457 14.932-12.522-1.324-19.63 34.665 7.585 10.067-8.458 14.932-53.703-71.066 6.673-11.789zm38.406 45.233L100.39 201.8l-32.028-3.372-.807 1.421 19.37 25.735zM132.309 104.983a5.745 5.745 0 00-1.425 2.516 4.868 4.868 0 00.069 2.806 5.788 5.788 0 001.546 2.442l1.522 1.446 9.341-9.813 10.488 9.988-12.549 13.196-3.853.838 1.269 1.205c.38-.072.767-.109 1.154-.111.982.021 1.963.093 2.937.217 1.473.16 2.93.442 4.357.843 1.445.406 3.17 1.162 5.177 2.268a27.308 27.308 0 015.638 4.157l16.49 15.706-10.892 11.411-16.498-15.693a16.923 16.923 0 00-.927-.805 17.413 17.413 0 01-.843-.722c-3.496-3.329-7.538-4.758-12.124-4.287-4.587.47-8.841 2.764-12.763 6.881l-1.852 1.946-3.853.838 1.267 1.204c.38-.073.766-.11 1.153-.111.982.021 1.963.093 2.938.217 1.474.159 2.932.441 4.359.843 1.444.405 3.169 1.161 5.175 2.269a27.043 27.043 0 015.637 4.157l16.493 15.703-10.87 11.421-16.493-15.706a20.339 20.339 0 00-4.624-3.338 17.856 17.856 0 00-4.575-1.705 20.713 20.713 0 00-4.265-.431 14.425 14.425 0 00-3.757.45c-1.093.304-2.063.59-2.911.858-.695.204-1.367.482-2.003.828l-.651.347-10.49-9.981 9.342-9.814-4.576-4.335c-3.15-3.014-4.782-6.696-4.895-11.046-.114-4.349 1.335-8.102 4.349-11.259l9.341-9.812L115.149 123l-5.548 5.838a5.385 5.385 0 00.19 7.76l1.522 1.446 11.838-12.435-4.575-4.35c-3.158-3.006-4.79-6.683-4.896-11.031-.106-4.348 1.344-8.101 4.349-11.26l9.341-9.814 10.487 9.988-5.548 5.841zM183.512 77.856c6.444-3.934 12.283-4.716 17.517-2.346s10.384 7.709 15.453 16.016l14.542 23.825-13.355 8.155-14.543-23.824c-2.596-4.254-5.24-6.903-7.932-7.948-2.692-1.046-5.267-.818-7.725.681a8.669 8.669 0 00-3.819 4.728c-.686 2.015-.885 3.893-.598 5.633a12.686 12.686 0 001.648 4.605l16.134 26.416-13.466 8.208-45.514-74.565 13.455-8.216 16.43 26.915 2.548 8.43 1.495-.913a7.36 7.36 0 00-.07-1.12c-.057-.468.015-1.4.21-2.796.185-1.341.508-2.659.963-3.933.435-1.226 1.22-2.594 2.353-4.107a15.134 15.134 0 014.274-3.844zM252.782 48.617l14.959-4.975 17.618 52.986-12.299 4.094-5.35-7.206-1.551.496c-.075.27-.174.653-.296 1.144-.123.491-.439 1.397-.944 2.714a21.77 21.77 0 01-1.756 3.608 15.966 15.966 0 01-2.735 3.249 10.366 10.366 0 01-3.853 2.324c-3.693 1.232-6.984 1.692-9.874 1.381a14.265 14.265 0 01-7.735-3.274c-2.263-1.87-4.274-4.34-6.032-7.408-1.758-3.068-3.397-6.893-4.917-11.474l-8.811-26.493 14.959-4.976 9.179 27.596c1.548 4.657 3.423 7.643 5.626 8.96 2.202 1.316 4.708 1.508 7.515.575a10.42 10.42 0 004.063-2.408 8.567 8.567 0 002.237-3.454c.395-1.18.607-2.412.629-3.656a10.15 10.15 0 00-.504-3.326l-10.128-30.476zM316.931 35.005c7.807-.93 14.148.803 19.024 5.2 4.876 4.396 7.867 11.234 8.973 20.515 1.123 9.435-.174 16.804-3.892 22.107-3.718 5.304-9.52 8.426-17.406 9.367a16.744 16.744 0 01-5.148-.268c-1.885-.362-3.731-1.22-5.539-2.574a7.463 7.463 0 01-3.099-5.277l-1.623.195-1.734 9.152-12.871 1.537L283.275 8.21l15.653-1.867 3.733 31.31-1.204 8.73 1.738-.209c.117-.32.268-.711.451-1.17.392-.832.847-1.634 1.36-2.397a19.798 19.798 0 012.502-3.179c.943-.974 2.263-1.897 3.961-2.767a16.11 16.11 0 015.462-1.657zm.241 43.376c.991-.124 1.969-.34 2.921-.643a13.7 13.7 0 003.386-1.698 15.17 15.17 0 003.246-2.847c.929-1.091 1.652-2.57 2.167-4.436.532-2.008.662-4.102.383-6.16-.342-2.86-1.077-5.243-2.206-7.15-1.128-1.905-2.502-3.231-4.12-3.978a17.321 17.321 0 00-4.575-1.445 16.533 16.533 0 00-4.477-.053c-3.169.377-5.441 1.707-6.815 3.988-1.374 2.282-1.915 4.66-1.621 7.132l1.799 15.077c3.742 1.824 7.043 2.565 9.902 2.223l.01-.01zM128.624 335.482l15.504-2.132 11.14 80.987-15.735 2.168-39.59-47.844-1.62.224 7.188 52.299-15.618 2.146-11.13-80.994 15.616-2.148 39.712 47.947 1.736-.24-7.203-52.413zM169.779 338.711l-14.256 6.73-6.181-13.095 14.256-6.744 6.181 13.109zm27.07 57.351l-14.256 6.743-23.84-50.486 14.256-6.743 23.84 50.486zM227.003 320.52l-6.69-.118-1.189 1.123c3.448.709 6.774 2.765 9.977 6.165 4.324 4.591 6.554 9.683 6.689 15.277.135 5.594-2.291 10.741-7.277 15.441a16.778 16.778 0 01-3.798 2.702 34.012 34.012 0 01-4.768 2.006c.029.829.498 1.724 1.407 2.686.963 1.021 2.588.987 4.876-.101 2.288-1.089 4.624-2.754 7.008-4.996 2.832-2.67 5.264-4.828 7.296-6.476a39.834 39.834 0 016.365-4.229c2.21-1.172 4.212-1.801 6.003-1.886 1.792-.085 3.653.301 5.585 1.159 1.926.855 3.853 2.3 5.779 4.335 3.63 3.853 4.995 8.852 4.094 14.995-.901 6.143-4.468 12.155-10.702 18.037-6.582 6.194-12.755 9.604-18.52 10.228-5.766.625-10.468-.989-14.107-4.843-3.693-3.91-4.63-8.486-2.813-13.728a2.518 2.518 0 00-.496.067c-.453.054-.91.054-1.363 0a6.779 6.779 0 01-2.052-.481 16.553 16.553 0 01-2.562-1.356 14.893 14.893 0 01-2.981-2.486 10.657 10.657 0 01-2.509-4.537c-.499-1.775-.646-3.242-.448-4.391l.135-1.732a10.096 10.096 0 01-3.986-.657 17.88 17.88 0 01-4.272-2.233 24.753 24.753 0 01-3.853-3.338 27.412 27.412 0 01-4.963-7.122 20.598 20.598 0 01-1.958-7.707c-.141-2.648.408-5.358 1.647-8.131 1.24-2.773 3.166-5.387 5.78-7.842a23.38 23.38 0 015.486-3.885l16.49-15.537 9.929 10.545-3.239 3.046zm-7.706 28.606c1.87-1.767 2.73-3.807 2.579-6.12a9.436 9.436 0 00-2.627-6.021 10.32 10.32 0 00-3.538-2.467 8.083 8.083 0 00-4.279-.539 7.2 7.2 0 00-4.067 1.984c-1.758 1.656-2.546 3.629-2.365 5.92a9.588 9.588 0 002.68 5.981 9.831 9.831 0 005.734 3.02c2.277.379 4.235-.207 5.876-1.758h.007zm13.052 24.93c.053 1.873.615 3.377 1.686 4.511a5.383 5.383 0 001.854 1.543 8.58 8.58 0 002.699.749c1.099.142 2.429-.149 3.993-.871 1.564-.723 3.249-1.939 5.057-3.649 5.78-5.448 7.094-9.844 3.945-13.187a3.593 3.593 0 00-2.89-1.117c-1.185.046-2.562.515-4.13 1.404-1.569.89-3.26 2.189-5.074 3.897l-7.14 6.72zM235.785 272.065c3.133-6.869 7.53-10.789 13.192-11.761 5.662-.971 12.92.563 21.774 4.603l25.391 11.582-6.502 14.241-25.381-11.582c-4.532-2.07-8.208-2.783-11.027-2.141-2.819.642-4.826 2.273-6.02 4.894a8.664 8.664 0 00-.515 6.055c.56 2.053 1.443 3.72 2.648 5a12.723 12.723 0 003.945 2.89l28.163 12.842-6.541 14.347-79.467-36.25 6.54-14.345 28.688 13.083 6.837 5.559.722-1.595a7.468 7.468 0 00-.684-.891c-.308-.351-.773-1.162-1.394-2.432a19.975 19.975 0 01-1.416-3.791c-.321-1.261-.438-2.833-.352-4.718a15.13 15.13 0 011.399-5.59zM305.534 218.342l-11.378 7.35 11.657 18.064a5.548 5.548 0 002.047 1.876 4.845 4.845 0 002.745.59 5.525 5.525 0 002.635-.867l6.868-4.437 7.855 12.166-12.457 8.049c-3.598 2.325-7.364 2.95-11.299 1.876-3.935-1.074-7.107-3.475-9.517-7.201l-13.875-21.486-11.383 7.329-4.944-7.652a1.9 1.9 0 00.33-.352c.269-.367.51-.753.722-1.156.343-.624.65-1.268.92-1.927.342-.849.641-1.714.896-2.593.302-1.017.539-2.053.708-3.1a17.82 17.82 0 00.144-3.62 27.755 27.755 0 00-.505-4.123 24.154 24.154 0 00-1.445-4.492 31.6 31.6 0 00-2.625-4.913l13.244-8.555a26.947 26.947 0 012.989 6.134c.682 2.062 1.051 3.817 1.105 5.265.058 1.329.011 2.66-.14 3.981a11.769 11.769 0 01-.589 2.746l-.434.836.951 1.471 1.606-3.54 15.304-9.875 7.865 12.156zM139.192 224.341L116.861 263.1l16.592 9.564 15.744-27.324 12.546 7.226-15.741 27.324 29.138 16.794-7.872 13.663-70.825-40.816 30.202-52.42 12.547 7.23zM177.239 199.18l10.649-11.628 41.164 37.707-8.765 9.559-8.188-3.69-1.105 1.204c.067.275.166.658.298 1.144.133.487.297 1.445.496 2.833a21.56 21.56 0 01.217 3.998 15.904 15.904 0 01-.809 4.169 10.404 10.404 0 01-2.225 3.901c-2.63 2.871-5.283 4.878-7.959 6.022a14.26 14.26 0 01-8.351.905c-2.89-.535-5.848-1.714-8.874-3.538-3.026-1.824-6.317-4.366-9.873-7.625l-20.573-18.868 10.647-11.628 21.444 19.641c3.617 3.314 6.709 5.011 9.276 5.091 2.567.081 4.848-.97 6.844-3.152a10.43 10.43 0 002.384-4.073 8.545 8.545 0 00.274-4.094 12.238 12.238 0 00-1.228-3.502 10.154 10.154 0 00-2.059-2.678l-23.684-21.698zM244.717 165.16l-11.318 7.467 11.826 17.943a5.578 5.578 0 002.064 1.857 4.878 4.878 0 002.75.563 5.55 5.55 0 002.63-.893l6.824-4.499 7.969 12.09-12.383 8.165c-3.573 2.357-7.333 3.017-11.279 1.982-3.946-1.036-7.141-3.406-9.585-7.11l-14.075-21.356-11.318 7.467-5.014-7.606c.124-.104.234-.223.328-.354.261-.371.495-.76.701-1.164a18.34 18.34 0 00.9-1.927c.342-.853.638-1.723.886-2.608.295-1.02.523-2.057.682-3.107a17.83 17.83 0 00.115-3.644 27.567 27.567 0 00-.546-4.116 23.927 23.927 0 00-1.481-4.477 31.674 31.674 0 00-2.664-4.887l13.163-8.67a27.06 27.06 0 013.044 6.105c.7 2.057 1.085 3.809 1.156 5.255a25.36 25.36 0 01-.101 3.984 11.81 11.81 0 01-.566 2.719l-.426.841.963 1.462 1.572-3.555 15.21-10.029 7.973 12.102zM286.871 132.873l14.93-5.044 17.861 52.888-12.281 4.147-5.382-7.182-1.551.523c-.072.272-.169.655-.289 1.146-.121.491-.434 1.399-.932 2.717a21.754 21.754 0 01-1.741 3.612 16.012 16.012 0 01-2.719 3.261 10.398 10.398 0 01-3.834 2.342c-3.692 1.247-6.983 1.722-9.873 1.423a14.256 14.256 0 01-7.749-3.239c-2.278-1.86-4.3-4.32-6.066-7.38-1.766-3.06-3.424-6.876-4.973-11.447l-8.927-26.45 14.93-5.043 9.301 27.555c1.568 4.656 3.457 7.635 5.666 8.935 2.209 1.301 4.714 1.482 7.516.544a10.407 10.407 0 004.052-2.408 8.535 8.535 0 002.223-3.461c.389-1.181.596-2.415.614-3.658a10.186 10.186 0 00-.513-3.341l-10.263-30.44zM352.466 121.587l6.391-.639 1.445 14.412-6.392.639c-4.803.481-8.359 1.893-10.667 4.234-2.309 2.341-3.343 4.713-3.102 7.117l3.13 31.264-15.686 1.565-5.539-55.551 12.898-1.288 3.636 8.206 1.628-.164c.13-.246.313-.577.547-.993.472-.763.986-1.501 1.539-2.208a24.807 24.807 0 012.528-2.89 14.53 14.53 0 013.398-2.394 11.56 11.56 0 014.246-1.31zM386.687 177.624l-15.761-.337 1.204-55.816 15.761.337-1.204 55.816zm1.359-63.405l-15.762-.337.311-14.48 15.761.337-.31 14.48zM420.203 128.277c.501.789 1.765.999 3.793.631 2.028-.367 4.413-1.077 7.157-2.129 2.742-1.053 5.777-2.084 9.105-3.092a92.512 92.512 0 019.495-2.373 19.954 19.954 0 018.517.118c2.673.652 4.7 2.062 6.081 4.23 3.05 4.797 3.17 10.028.359 15.691s-7.534 10.605-14.17 14.826c-6.307 4.014-12.959 5.78-19.956 5.299-6.996-.482-12.02-3.123-15.072-7.924l13.302-8.461c1.421 2.235 3.276 3.155 5.563 2.76 2.288-.395 5.106-1.657 8.455-3.786 6.961-4.43 9.732-7.762 8.313-9.995-.541-.853-1.825-1.093-3.853-.723-2.028.371-4.372 1.148-7.032 2.329-2.658 1.185-5.619 2.331-8.883 3.437a88.645 88.645 0 01-9.392 2.65 17.412 17.412 0 01-8.628-.186 10.948 10.948 0 01-6.456-4.817c-2.967-4.664-3.128-9.706-.482-15.125 2.646-5.419 7.055-10.092 13.228-14.02 5.911-3.771 12.102-5.32 18.574-4.645 6.471.674 11.296 3.509 14.475 8.506l-13.303 8.464c-1.689-1.786-3.402-2.703-5.139-2.751-1.737-.048-4.018.826-6.843 2.623-3.288 2.087-5.479 3.757-6.572 5.009-1.093 1.253-1.305 2.404-.636 3.454zM506.435 56.096c3.819-1.558 7.249-.625 10.29 2.798 3.04 3.424 6.562 10.039 10.564 19.846l10.557 25.84-14.595 5.964-11.041-27.03c-3.298-8.073-6.316-11.55-9.055-10.431-1.512.616-2.25 2.052-2.213 4.308a18.91 18.91 0 001.471 6.845l12.19 29.841-14.595 5.963-11.042-27.03c-1.944-4.759-3.524-7.856-4.741-9.292-1.217-1.435-2.546-1.857-3.988-1.267-.864.352-1.461 1.206-1.792 2.56a12.48 12.48 0 00-.24 4.384c.154 1.474.512 2.92 1.062 4.297l12.189 29.843-14.595 5.961-21.11-51.68 12-4.904 5.818 6.832 1.621-.662a4.94 4.94 0 01.113-1.117c.09-.5.325-1.416.705-2.749a19.028 19.028 0 011.46-3.687 17.354 17.354 0 012.49-3.478 9.9 9.9 0 013.655-2.63 10.098 10.098 0 014.592-.804c1.474.112 2.694.476 3.661 1.09.909.576 1.78 1.21 2.605 1.901a9.96 9.96 0 011.77 1.864l.463.822 1.62-.665a10.641 10.641 0 010-1.072c.082-.892.228-1.778.436-2.65a16.043 16.043 0 011.187-3.576 14.216 14.216 0 012.507-3.482 11.184 11.184 0 013.981-2.753z" fill="#fff"/><path d="M117.977 253.191l9.389 74.239 38.7-63.993-21.544 71.65 61.319-42.681-48.754 56.67 73.336-13.989-67.533 31.893 72.672 17.12-74.635 1.601 59.442 45.271-68.831-28.968 35.934 65.593-51.127-54.528 6.214 74.574-24.582-70.66-24.582 70.66 6.213-74.574-51.127 54.528 35.935-65.593-68.832 28.968 59.442-45.271L.392 384.1l72.671-17.12-67.532-31.893 73.335 13.989-48.753-56.67 61.319 42.681-21.545-71.65 38.7 63.993 9.39-74.239z" fill="#ED534B"/><path d="M49.673 174.006l88.512 9.584-8.457 14.932-12.522-1.325-19.631 34.665 7.585 10.068-8.457 14.932L43 185.796l6.673-11.79zM88.08 219.24l13.463-23.784-32.027-3.372-.807 1.421 19.37 25.735zM133.463 98.638a5.754 5.754 0 00-1.426 2.517 4.868 4.868 0 00.07 2.806c.3.932.832 1.772 1.546 2.442l1.522 1.445 9.341-9.812 10.487 9.988-12.548 13.196-3.853.838 1.269 1.205c.38-.072.766-.11 1.153-.111.983.02 1.963.093 2.938.216 1.473.161 2.93.443 4.357.843 1.444.407 3.17 1.163 5.177 2.269a27.275 27.275 0 015.637 4.157l16.491 15.706-10.892 11.411-16.498-15.693a16.923 16.923 0 00-.927-.805 18.01 18.01 0 01-.843-.722c-3.496-3.329-7.538-4.758-12.125-4.287-4.586.47-8.84 2.764-12.762 6.88l-1.852 1.947-3.853.838 1.266 1.204c.381-.073.767-.11 1.154-.111.982.021 1.963.093 2.938.217 1.474.159 2.932.441 4.358.843 1.445.404 3.17 1.161 5.175 2.269a26.988 26.988 0 015.638 4.157l16.493 15.703-10.87 11.421-16.493-15.706a20.36 20.36 0 00-4.624-3.338 17.856 17.856 0 00-4.575-1.705 20.713 20.713 0 00-4.265-.431 14.42 14.42 0 00-3.757.45 88.247 88.247 0 00-2.911.857c-.696.205-1.367.482-2.004.829l-.65.347-10.49-9.981 9.341-9.814-4.575-4.336c-3.15-3.013-4.782-6.695-4.896-11.045-.114-4.349 1.336-8.103 4.35-11.259l9.34-9.812 10.488 9.985-5.549 5.838a5.387 5.387 0 00.191 7.76l1.522 1.445 11.838-12.435-4.576-4.349c-3.157-3.006-4.789-6.683-4.895-11.031-.106-4.348 1.344-8.101 4.349-11.26l9.341-9.814 10.487 9.988-5.548 5.84zM184.666 71.512c6.444-3.934 12.283-4.716 17.517-2.346 5.233 2.37 10.384 7.709 15.453 16.016l14.542 23.825-13.355 8.155-14.543-23.825c-2.596-4.253-5.24-6.902-7.932-7.948-2.692-1.045-5.267-.818-7.725.682a8.67 8.67 0 00-3.82 4.728c-.685 2.015-.884 3.893-.597 5.633a12.71 12.71 0 001.647 4.605l16.135 26.416-13.466 8.208-45.514-74.566 13.454-8.215 16.431 26.915 2.548 8.43 1.495-.914a7.36 7.36 0 00-.07-1.12c-.058-.467.015-1.399.21-2.796.185-1.34.508-2.658.963-3.933.435-1.225 1.219-2.594 2.353-4.106a15.133 15.133 0 014.274-3.844zM253.936 42.273l14.959-4.976 17.617 52.987-12.298 4.094-5.351-7.206-1.55.496c-.075.27-.174.653-.297 1.144-.122.491-.438 1.397-.944 2.714a21.687 21.687 0 01-1.755 3.608 15.942 15.942 0 01-2.736 3.25 10.357 10.357 0 01-3.853 2.323c-3.692 1.232-6.983 1.692-9.873 1.38a14.258 14.258 0 01-7.735-3.273c-2.263-1.87-4.274-4.34-6.032-7.408-1.758-3.069-3.397-6.893-4.917-11.474l-8.812-26.493 14.96-4.976 9.179 27.596c1.548 4.657 3.423 7.643 5.626 8.96 2.202 1.316 4.707 1.508 7.515.575a10.42 10.42 0 004.063-2.408 8.568 8.568 0 002.237-3.454c.395-1.18.607-2.412.628-3.656a10.123 10.123 0 00-.503-3.326l-10.128-30.477zM318.085 28.66c7.807-.929 14.148.804 19.024 5.2 4.876 4.397 7.866 11.235 8.973 20.516 1.123 9.434-.174 16.804-3.892 22.107-3.718 5.303-9.52 8.426-17.406 9.367a16.744 16.744 0 01-5.148-.268c-1.885-.363-3.731-1.22-5.539-2.575a7.463 7.463 0 01-3.099-5.276l-1.623.195-1.734 9.152-12.871 1.536-10.341-86.747L300.082 0l3.732 31.31-1.204 8.73 1.739-.209c.117-.321.267-.711.45-1.17.393-.833.847-1.634 1.361-2.397a19.795 19.795 0 012.502-3.179c.942-.975 2.263-1.897 3.961-2.767a16.11 16.11 0 015.462-1.657zm.241 43.377c.991-.125 1.969-.34 2.921-.643a13.717 13.717 0 003.386-1.698 15.17 15.17 0 003.246-2.847c.929-1.092 1.652-2.57 2.167-4.436.532-2.008.662-4.102.383-6.161-.342-2.86-1.077-5.242-2.206-7.148-1.129-1.906-2.502-3.233-4.12-3.98a17.316 17.316 0 00-4.576-1.444 16.526 16.526 0 00-4.476-.053c-3.169.377-5.441 1.707-6.815 3.988-1.374 2.282-1.915 4.659-1.621 7.132l1.799 15.077c3.742 1.824 7.043 2.565 9.902 2.223l.01-.01zM129.778 329.138l15.504-2.132 11.14 80.987-15.735 2.167-39.589-47.844-1.62.224 7.187 52.3-15.619 2.146-11.13-80.994 15.617-2.148 39.712 47.947 1.736-.241-7.203-52.412zM170.933 332.367l-14.256 6.729-6.181-13.094 14.256-6.744 6.181 13.109zm27.07 57.35l-14.256 6.744-23.841-50.486 14.256-6.744 23.841 50.486zM228.157 314.176l-6.69-.118-1.189 1.122c3.448.71 6.774 2.765 9.976 6.166 4.325 4.591 6.555 9.683 6.69 15.277.135 5.594-2.291 10.741-7.277 15.441a16.832 16.832 0 01-3.798 2.702 34.012 34.012 0 01-4.768 2.006c.029.829.498 1.724 1.406 2.686.964 1.021 2.589.987 4.877-.102 2.288-1.088 4.623-2.753 7.007-4.995 2.832-2.67 5.265-4.829 7.297-6.476a39.722 39.722 0 016.365-4.229c2.21-1.172 4.211-1.801 6.003-1.886 1.792-.085 3.653.301 5.584 1.158 1.927.856 3.853 2.301 5.78 4.336 3.63 3.853 4.994 8.851 4.094 14.995-.901 6.143-4.468 12.155-10.702 18.037-6.582 6.194-12.756 9.604-18.521 10.228-5.765.625-10.467-.99-14.106-4.843-3.693-3.91-4.63-8.486-2.813-13.728a2.446 2.446 0 00-.496.067c-.453.054-.91.054-1.363 0a6.75 6.75 0 01-2.052-.482 16.383 16.383 0 01-2.562-1.356 14.827 14.827 0 01-2.981-2.485 10.673 10.673 0 01-2.51-4.538c-.498-1.775-.645-3.241-.447-4.39l.134-1.732a10.094 10.094 0 01-3.985-.657 17.88 17.88 0 01-4.272-2.233 24.753 24.753 0 01-3.853-3.338 27.412 27.412 0 01-4.963-7.122 20.603 20.603 0 01-1.958-7.707c-.141-2.648.408-5.358 1.647-8.131 1.24-2.773 3.166-5.387 5.78-7.842a23.346 23.346 0 015.485-3.885l16.491-15.537 9.929 10.544-3.239 3.047zm-7.706 28.605c1.87-1.766 2.73-3.806 2.579-6.119a9.446 9.446 0 00-2.627-6.022 10.328 10.328 0 00-3.538-2.466 8.083 8.083 0 00-4.279-.539 7.2 7.2 0 00-4.067 1.984c-1.758 1.656-2.546 3.629-2.365 5.92a9.583 9.583 0 002.68 5.98 9.832 9.832 0 005.734 3.021c2.276.379 4.235-.208 5.876-1.759h.007zm13.052 24.93c.053 1.874.615 3.378 1.686 4.511a5.386 5.386 0 001.854 1.544 8.58 8.58 0 002.699.749c1.098.142 2.429-.149 3.993-.872 1.564-.722 3.249-1.938 5.057-3.648 5.779-5.448 7.094-9.844 3.944-13.187a3.582 3.582 0 00-2.889-1.117c-1.185.046-2.562.514-4.13 1.404-1.569.889-3.26 2.188-5.074 3.897l-7.14 6.719zM236.939 265.72c3.132-6.869 7.53-10.789 13.192-11.76 5.662-.972 12.92.563 21.774 4.602l25.391 11.583-6.502 14.241-25.381-11.582c-4.532-2.07-8.208-2.784-11.027-2.141-2.819.642-4.826 2.273-6.02 4.894a8.668 8.668 0 00-.516 6.054c.561 2.054 1.444 3.721 2.649 5a12.71 12.71 0 003.945 2.891l28.163 12.841-6.541 14.348-79.467-36.25 6.54-14.345 28.688 13.083 6.836 5.559.723-1.595a7.388 7.388 0 00-.684-.891c-.308-.352-.773-1.162-1.394-2.432a19.907 19.907 0 01-1.416-3.791c-.321-1.261-.439-2.834-.352-4.719a15.14 15.14 0 011.399-5.59zM306.688 211.997l-11.379 7.351 11.658 18.063a5.543 5.543 0 002.047 1.877 4.853 4.853 0 002.745.59 5.525 5.525 0 002.635-.867l6.868-4.437 7.855 12.165-12.457 8.049c-3.598 2.325-7.364 2.951-11.299 1.877-3.935-1.075-7.107-3.475-9.517-7.202l-13.876-21.486-11.383 7.329-4.944-7.651c.125-.103.236-.221.33-.352.269-.367.511-.753.723-1.156.342-.624.65-1.268.92-1.927.342-.849.641-1.714.896-2.594.302-1.017.538-2.052.708-3.099a17.82 17.82 0 00.144-3.62 27.638 27.638 0 00-.506-4.124 23.997 23.997 0 00-1.445-4.491 31.565 31.565 0 00-2.624-4.914l13.244-8.554a26.988 26.988 0 012.989 6.134c.682 2.062 1.05 3.817 1.105 5.265.058 1.329.011 2.66-.14 3.981a11.73 11.73 0 01-.59 2.746l-.433.835.951 1.472 1.606-3.54 15.304-9.875 7.865 12.155zM140.345 217.997l-22.33 38.759 16.592 9.564 15.744-27.324 12.546 7.226-15.742 27.323 29.139 16.795-7.873 13.663-70.824-40.816 30.202-52.42 12.546 7.23zM178.393 192.836l10.649-11.628 41.164 37.706-8.766 9.56-8.187-3.69-1.105 1.204c.067.275.166.658.298 1.144.133.487.296 1.445.496 2.832.196 1.324.269 2.662.217 3.998a15.904 15.904 0 01-.809 4.17 10.425 10.425 0 01-2.225 3.901c-2.63 2.871-5.283 4.878-7.959 6.021a14.252 14.252 0 01-8.351.906c-2.89-.535-5.848-1.714-8.874-3.538-3.026-1.824-6.317-4.366-9.873-7.625l-20.573-18.868 10.646-11.628 21.445 19.641c3.617 3.314 6.709 5.011 9.276 5.091 2.567.081 4.848-.97 6.843-3.152a10.413 10.413 0 002.384-4.073 8.546 8.546 0 00.275-4.094 12.238 12.238 0 00-1.228-3.502 10.159 10.159 0 00-2.059-2.679l-23.684-21.697zM245.871 158.816l-11.318 7.466 11.826 17.943a5.561 5.561 0 002.064 1.857c.841.454 1.798.65 2.75.564a5.54 5.54 0 002.63-.894l6.824-4.499 7.969 12.091-12.383 8.164c-3.574 2.358-7.333 3.018-11.279 1.983-3.947-1.036-7.141-3.406-9.585-7.11l-14.075-21.356-11.318 7.466-5.014-7.606c.124-.103.234-.222.328-.354.261-.37.495-.759.7-1.163a18.24 18.24 0 00.901-1.927c.341-.853.637-1.723.886-2.608.295-1.02.523-2.058.682-3.107.162-1.208.201-2.429.115-3.644a27.55 27.55 0 00-.546-4.116 23.903 23.903 0 00-1.481-4.477 31.76 31.76 0 00-2.664-4.887l13.163-8.671a27.067 27.067 0 013.044 6.106c.7 2.057 1.085 3.808 1.156 5.255.07 1.329.037 2.661-.101 3.984a11.81 11.81 0 01-.566 2.719l-.427.84.964 1.462 1.572-3.555 15.21-10.028 7.973 12.102zM288.025 126.528l14.93-5.043 17.861 52.887-12.281 4.148-5.383-7.182-1.55.522c-.073.273-.169.655-.289 1.147-.121.491-.434 1.399-.932 2.717a21.793 21.793 0 01-1.741 3.612 16.012 16.012 0 01-2.719 3.261 10.382 10.382 0 01-3.834 2.341c-3.692 1.248-6.983 1.722-9.873 1.424a14.25 14.25 0 01-7.749-3.24c-2.278-1.859-4.3-4.319-6.066-7.379-1.766-3.061-3.424-6.876-4.973-11.448l-8.927-26.449 14.93-5.044 9.3 27.556c1.569 4.656 3.458 7.634 5.667 8.935 2.209 1.301 4.714 1.482 7.515.544a10.403 10.403 0 004.053-2.408 8.541 8.541 0 002.223-3.461c.389-1.181.596-2.415.614-3.659a10.184 10.184 0 00-.513-3.34l-10.263-30.441zM353.619 115.242l6.392-.638 1.444 14.412-6.391.639c-4.803.481-8.359 1.893-10.668 4.234-2.308 2.341-3.342 4.713-3.101 7.117l3.13 31.264-15.686 1.565-5.539-55.551 12.898-1.288 3.636 8.205 1.628-.163c.13-.246.312-.577.547-.993.472-.764.985-1.501 1.539-2.208a24.807 24.807 0 012.528-2.89 14.53 14.53 0 013.398-2.394 11.543 11.543 0 014.245-1.311zM387.841 171.28l-15.761-.337 1.204-55.816 15.761.337-1.204 55.816zm1.358-63.405l-15.761-.337.311-14.48 15.761.337-.311 14.48zM421.357 121.933c.501.788 1.765.999 3.793.631 2.027-.368 4.413-1.077 7.157-2.129 2.742-1.053 5.777-2.084 9.105-3.092a92.512 92.512 0 019.495-2.373 19.954 19.954 0 018.517.118c2.673.652 4.7 2.062 6.081 4.229 3.05 4.798 3.17 10.028.359 15.692-2.811 5.663-7.535 10.605-14.17 14.826-6.307 4.014-12.959 5.78-19.956 5.299-6.996-.482-12.02-3.123-15.072-7.924l13.302-8.461c1.421 2.235 3.275 3.155 5.563 2.76s5.106-1.657 8.455-3.786c6.961-4.43 9.732-7.762 8.313-9.995-.541-.853-1.826-1.094-3.853-.723-2.028.371-4.372 1.147-7.032 2.329-2.659 1.185-5.62 2.331-8.883 3.437a88.64 88.64 0 01-9.392 2.649c-2.846.663-5.813.6-8.628-.185a10.948 10.948 0 01-6.456-4.817c-2.967-4.664-3.128-9.706-.482-15.125 2.646-5.419 7.055-10.092 13.228-14.02 5.911-3.771 12.102-5.32 18.573-4.646 6.472.675 11.297 3.51 14.476 8.507l-13.303 8.463c-1.689-1.785-3.402-2.702-5.139-2.75-1.737-.048-4.018.826-6.844 2.623-3.287 2.087-5.478 3.757-6.571 5.009-1.094 1.253-1.306 2.404-.636 3.454zM507.589 49.752c3.819-1.558 7.249-.625 10.29 2.798 3.04 3.423 6.562 10.039 10.564 19.846L539 98.236l-14.596 5.964-11.041-27.03c-3.297-8.074-6.315-11.55-9.054-10.432-1.512.617-2.25 2.053-2.213 4.31a18.87 18.87 0 001.471 6.844l12.19 29.841-14.596 5.963-11.041-27.03c-1.944-4.76-3.524-7.856-4.741-9.292-1.217-1.435-2.546-1.858-3.988-1.267-.864.352-1.461 1.205-1.792 2.56a12.48 12.48 0 00-.241 4.384c.155 1.474.513 2.92 1.062 4.297l12.19 29.843-14.595 5.961-21.11-51.681 12-4.904 5.818 6.833 1.621-.662a4.94 4.94 0 01.113-1.118c.09-.499.325-1.415.705-2.748a19.028 19.028 0 011.46-3.687 17.354 17.354 0 012.49-3.478 9.9 9.9 0 013.655-2.63 10.097 10.097 0 014.592-.804c1.474.112 2.694.476 3.661 1.09.909.576 1.78 1.21 2.605 1.901a9.956 9.956 0 011.77 1.864l.463.821 1.62-.664a10.643 10.643 0 010-1.072c.082-.892.227-1.778.436-2.65a16.043 16.043 0 011.187-3.576 14.19 14.19 0 012.507-3.483 11.184 11.184 0 013.981-2.752z" fill="#000"/></svg>