<svg width="42" height="58" fill="none" xmlns="http://www.w3.org/2000/svg"><path d="M39.38 20.69C39.38 31 20.69 54 20.69 54S2 31 2 20.69a18.69 18.69 0 1137.38 0v0z" stroke="#1D1D1B" stroke-width="4" stroke-miterlimit="10"/><path d="M21.11 7.91l.94 7.43 3.87-6.4-2.15 7.17 6.13-4.27-4.88 5.67 7.34-1.4-6.76 3.19 7.28 1.7-7.47.16 6 4.53-6.89-2.9 3.59 6.57L23 23.9l.62 7.46-2.46-7.07-2.46 7.07.62-7.46-5.13 5.48 3.6-6.57-6.89 2.9 5.95-4.53L9.34 21l7.27-1.72-6.75-3.19 7.33 1.4-4.87-5.67 6.13 4.27-2.15-7.17 3.87 6.4.94-7.41z" fill="#FFA800"/></svg>