<svg width="41" height="56" fill="none" xmlns="http://www.w3.org/2000/svg"><path fill-rule="evenodd" clip-rule="evenodd" d="M20.685 3.5A16.734 16.734 0 003.951 20.234c0 2.152 1.004 5.178 2.698 8.666 1.669 3.434 3.908 7.12 6.169 10.525 2.257 3.4 4.517 6.494 6.215 8.739.642.85 1.203 1.577 1.652 2.152a178.215 178.215 0 007.867-10.89c2.262-3.407 4.5-7.092 6.17-10.526 1.694-3.488 2.697-6.514 2.697-8.666A16.734 16.734 0 0020.685 3.5zm0 49.232l-1.164.945-.015-.018-.04-.05-.156-.194a175.087 175.087 0 01-2.67-3.442 181.158 181.158 0 01-6.322-8.889c-2.297-3.46-4.617-7.27-6.367-10.873-1.724-3.549-3-7.1-3-9.977a19.734 19.734 0 0139.468 0c0 2.878-1.275 6.428-3 9.977-1.75 3.602-4.07 7.412-6.367 10.873a181.232 181.232 0 01-6.321 8.89 174.98 174.98 0 01-2.67 3.44l-.156.195-.04.05-.011.014-.004.004-1.165-.945zm0 0l1.165.945-1.165 1.433-1.164-1.433 1.164-.945z" fill="#FF57C6"/><path d="M21.095 7.766l.917 7.248 3.776-6.243-2.098 6.995 5.98-4.166-4.76 5.531 7.16-1.365-6.594 3.112 7.102 1.658-7.288.156 5.854 4.42-6.722-2.83 3.502 6.41-4.985-5.326.605 7.278-2.4-6.898-2.4 6.898.605-7.278-5.005 5.346 3.512-6.41-6.722 2.83 5.805-4.42-7.327-.176 7.093-1.678-6.585-3.112 7.15 1.366-4.75-5.532 5.98 4.166-2.098-6.995 3.776 6.244.917-7.23z" fill="#FFA800"/></svg>