<svg width="142" height="47" fill="none" xmlns="http://www.w3.org/2000/svg"><g clip-path="url(#clip0)" fill="#000"><path d="M21.267 19.538c-.407-.42-.9-.732-1.44-.913a5.981 5.981 0 00-2.089-.338h-9.95a.518.518 0 00-.38.169.598.598 0 00-.157.407v9.458c0 .194.036.386.105.566.07.18.17.343.299.48.128.138.28.247.447.321a1.295 1.295 0 001.054 0c.168-.074.32-.183.447-.32.128-.138.23-.301.3-.481.068-.18.104-.372.104-.566v-2.206h7.732a6.012 6.012 0 002.09-.337 3.627 3.627 0 001.44-.913c.337-.358.607-.782.798-1.25a3.851 3.851 0 000-2.828 4.057 4.057 0 00-.8-1.249zm-2.066 3.61c-.252.17-.739.255-1.463.255h-7.732v-2.27h7.732c.745 0 1.238.069 1.477.205.24.137.36.425.36.858 0 .465-.124.782-.374.952zM36.241 26.954h-9.547v-7.187c0-.393-.145-.77-.403-1.047a1.332 1.332 0 00-.975-.433c-.18 0-.36.038-.527.112-.167.075-.32.184-.447.322-.128.137-.23.3-.299.48-.07.18-.105.372-.104.567v9.456c0 .153.056.3.157.407.1.108.236.17.379.17H36.24c.345-.012.672-.166.912-.432a1.48 1.48 0 00.375-.992c0-.37-.134-.726-.375-.992a1.285 1.285 0 00-.912-.431zM48.329 18.616a.807.807 0 00-.294-.276.742.742 0 00-.38-.091h-1.011a.74.74 0 00-.38.09.807.807 0 00-.293.277l-7.196 10.493c-.134.186-.167.35-.1.49.067.137.212.206.436.206h2.19c.304 0 .518-.123.642-.368l1.318-1.96h7.778l1.316 1.96a.738.738 0 00.275.28c.113.064.24.095.368.088h2.19c.227 0 .37-.069.436-.206.066-.137.033-.299-.1-.49L48.33 18.616zm-3.445 6.43l2.265-3.37 2.271 3.37h-4.536zM94.166 18.616a.81.81 0 00-.293-.276.744.744 0 00-.381-.091h-1.01a.739.739 0 00-.381.091.805.805 0 00-.293.276L84.612 29.11c-.133.186-.166.35-.1.49.066.137.212.205.437.205h2.188c.305 0 .519-.122.644-.367l1.316-1.96h7.78l1.315 1.96a.736.736 0 00.275.279c.113.065.24.095.369.088h2.189c.228 0 .37-.068.436-.205.067-.138.033-.3-.099-.49l-7.196-10.494zm-3.446 6.43l2.272-3.37 2.267 3.37H90.72zM67.223 18.287h-2.557a.975.975 0 00-.674.263l-3.858 3.7-3.878-3.7a.873.873 0 00-.31-.209.823.823 0 00-.363-.055h-2.554c-.244 0-.392.073-.444.215-.05.142.015.307.2.49l5.94 5.657v3.668c0 .393.146.77.404 1.047.258.277.609.433.974.433.366 0 .716-.155.975-.433.258-.278.403-.654.403-1.047v-3.631l5.986-5.69c.194-.187.264-.352.208-.49-.056-.139-.208-.218-.452-.218zM132.872 18.287c-.365 0-.716.156-.974.433a1.535 1.535 0 00-.404 1.047v3.158h-9.923v-3.158a1.54 1.54 0 00-.404-1.047 1.331 1.331 0 00-.974-.433 1.33 1.33 0 00-.975.434 1.537 1.537 0 00-.404 1.047v8.552c.01.385.16.751.417 1.02.258.268.602.419.961.419s.704-.15.961-.42c.258-.268.407-.634.418-1.019v-2.599h9.923v2.6c0 .392.145.768.404 1.046.258.277.609.433.974.433s.716-.156.974-.433c.259-.278.404-.654.404-1.047v-8.552c0-.195-.036-.387-.105-.567a1.485 1.485 0 00-.298-.48 1.379 1.379 0 00-.447-.322 1.3 1.3 0 00-.528-.112zM76.776 20.82a18.982 18.982 0 014.641.553 1.225 1.225 0 00.996-.142c.15-.093.28-.217.385-.364.105-.147.182-.315.226-.494a1.513 1.513 0 00-.132-1.07c-.087-.16-.202-.3-.339-.413a1.28 1.28 0 00-.46-.243c-.092-.026-2.297-.647-5.317-.647-5.663 0-8.912 2.187-8.912 6.004 0 3.816 3.248 6.003 8.912 6.003 3.02 0 5.225-.62 5.317-.647.329-.104.606-.341.774-.662.167-.32.212-.698.124-1.053a1.406 1.406 0 00-.594-.85 1.237 1.237 0 00-.978-.162 18.96 18.96 0 01-4.643.549c-1.474 0-6.286-.23-6.286-3.178 0-2.95 4.812-3.184 6.286-3.184zM116.237 24.627a6.098 6.098 0 00-.684-.558 3.52 3.52 0 00-.957-.428c-.408-.126-.758-.23-1.048-.313a9.417 9.417 0 00-1.218-.23 63.027 63.027 0 00-1.217-.157 82.71 82.71 0 00-1.263-.13 4.062 4.062 0 01-.322-.034l-1.056-.107a54.67 54.67 0 00-.919-.09 53.438 53.438 0 01-1.432-.148 7.966 7.966 0 01-.505-.082 3.602 3.602 0 01-.405-.1 1.654 1.654 0 01-.276-.114.402.402 0 01-.169-.148.407.407 0 01-.046-.197.45.45 0 01.085-.255.945.945 0 01.367-.264 3.58 3.58 0 01.743-.244 9.244 9.244 0 011.27-.173 23.932 23.932 0 011.883-.065h.384c.196 0 .388 0 .577.008a.984.984 0 00.114.014h.312c1.463.015 2.92.2 4.346.551.105.03.213.045.322.046.042-.002.084-.006.125-.013.251-.026.488-.134.681-.31.192-.175.33-.409.395-.67a1.427 1.427 0 00-.195-1.124c-.168-.25-.41-.43-.687-.512a19.748 19.748 0 00-3.764-.591 23.744 23.744 0 00-2.224-.1h-.383c-4.791 0-7.184 1.196-7.18 3.587-.003.285.03.57.099.846.059.239.146.468.26.683.126.218.293.406.49.551.205.16.42.305.642.435.274.147.561.26.858.338.363.105.698.19 1.004.255.306.065.714.137 1.224.213.51.076.967.137 1.369.182.401.044.93.098 1.584.164.295.033.62.062.972.09l.866.067a23.746 23.746 0 011.883.213c.138.019.274.052.406.099.094.037.186.08.275.131a.451.451 0 01.183.173.47.47 0 01.054.23c0 .164-.114.313-.342.444-.228.13-.677.245-1.339.354-.848.116-1.703.168-2.558.155h-.183c-.228 0-.442 0-.655-.006a1.214 1.214 0 00-.202-.02 20.51 20.51 0 01-3.106-.245c-.956-.15-1.542-.312-1.552-.314a1.164 1.164 0 00-.945.135c-.285.177-.494.47-.579.813-.085.342-.039.707.126 1.014.166.307.438.53.757.622.04.01.479.135 1.209.27h.024c1.25.282 2.891.422 4.923.42h.183c1.43 0 2.655-.117 3.675-.353 1.021-.236 1.843-.637 2.465-1.2a2.67 2.67 0 00.7-.957 2.86 2.86 0 00.235-1.19 2.714 2.714 0 00-.154-.93 1.874 1.874 0 00-.505-.73z"/></g><defs><clipPath id="clip0"><path fill="#fff" transform="translate(7.25 18)" d="M0 0h127v12H0z"/></clipPath></defs></svg>