<svg width="28" height="28" viewBox="0 0 28 28" fill="none" xmlns="http://www.w3.org/2000/svg">
<path fill-rule="evenodd" clip-rule="evenodd" d="M13.5129 2.45688C7.40682 2.45688 2.45688 7.40682 2.45688 13.5129C2.45688 19.6189 7.40682 24.5688 13.5129 24.5688C19.6189 24.5688 24.5688 19.6189 24.5688 13.5129C24.5688 7.40682 19.6189 2.45688 13.5129 2.45688ZM0 13.5129C0 6.04992 6.04992 0 13.5129 0C20.9758 0 27.0257 6.04992 27.0257 13.5129C27.0257 20.9758 20.9758 27.0257 13.5129 27.0257C6.04992 27.0257 0 20.9758 0 13.5129Z" fill="white"/>
<path fill-rule="evenodd" clip-rule="evenodd" d="M12.2842 13.5129L12.2842 6.14221L14.7411 6.14221L14.7411 13.5129L12.2842 13.5129Z" fill="white"/>
<path fill-rule="evenodd" clip-rule="evenodd" d="M14.2995 12.5692L17.9849 15.6403L16.412 17.5277L12.7267 14.4566L14.2995 12.5692Z" fill="white"/>
<path d="M14.7411 13.5129C14.7411 14.1913 14.1911 14.7413 13.5126 14.7413C12.8342 14.7413 12.2842 14.1913 12.2842 13.5129C12.2842 12.8344 12.8342 12.2844 13.5126 12.2844C14.1911 12.2844 14.7411 12.8344 14.7411 13.5129Z" fill="white"/>
</svg>
