<svg width="382" height="488" viewBox="0 0 382 488" fill="none" xmlns="http://www.w3.org/2000/svg">
<line x1="381.751" y1="46.7675" x2="-0.000122138" y2="46.7675" stroke="#ED534B" stroke-width="2"/>
<line x1="381.751" y1="96.0865" x2="-0.000122138" y2="96.0865" stroke="#ED534B" stroke-width="2"/>
<line x1="381.751" y1="145.406" x2="-0.000122138" y2="145.406" stroke="#ED534B" stroke-width="2"/>
<line x1="381.751" y1="194.726" x2="-0.000122138" y2="194.726" stroke="#ED534B" stroke-width="2"/>
<line x1="381.751" y1="244.046" x2="-0.000122138" y2="244.045" stroke="#ED534B" stroke-width="2"/>
<line x1="381.751" y1="293.365" x2="-0.000122138" y2="293.365" stroke="#ED534B" stroke-width="2"/>
<line x1="381.751" y1="342.685" x2="-0.000122138" y2="342.685" stroke="#ED534B" stroke-width="2"/>
<line x1="381.751" y1="392.004" x2="-0.000122138" y2="392.004" stroke="#ED534B" stroke-width="2"/>
<line x1="381.751" y1="441.324" x2="-0.000122138" y2="441.323" stroke="#ED534B" stroke-width="2"/>
<line x1="41.6738" y1="-52" x2="41.6738" y2="488" stroke="#ED534B" stroke-width="2"/>
<line x1="90.9932" y1="-52" x2="90.9931" y2="488" stroke="#ED534B" stroke-width="2"/>
<line x1="140.313" y1="-52" x2="140.313" y2="488" stroke="#ED534B" stroke-width="2"/>
<line x1="189.632" y1="-52" x2="189.632" y2="488" stroke="#ED534B" stroke-width="2"/>
<line x1="238.952" y1="-52" x2="238.952" y2="488" stroke="#ED534B" stroke-width="2"/>
<line x1="288.271" y1="-52" x2="288.271" y2="488" stroke="#ED534B" stroke-width="2"/>
<line x1="337.591" y1="-52" x2="337.591" y2="488" stroke="#ED534B" stroke-width="2"/>
</svg>
