<svg width="1254" height="154" viewBox="0 0 1254 154" fill="none" xmlns="http://www.w3.org/2000/svg">
<path d="M1 1.42126L25.4522 22.0278L49.9199 1.42126L74.3721 22.0278L98.8398 1.42126L123.3 22.0278L147.76 1.42126L172.22 22.0278L196.68 1.42126L221.14 22.0278L245.6 1.42126L270.06 22.0278L294.52 1.42126L318.979 22.0278L343.447 1.42126L367.907 22.0278L392.375 1.42126L416.843 22.0278" stroke="#FFA800" stroke-width="2" stroke-miterlimit="10" stroke-linecap="round"/>
<path d="M837 27.4213L861.46 48.0201L885.92 27.4213L910.38 48.0201L934.84 27.4213L959.3 48.0201L983.76 27.4213L1008.22 48.0201L1032.68 27.4213L1057.14 48.0201L1081.6 27.4213L1106.06 48.0201L1130.52 27.4213L1154.99 48.0201L1179.45 27.4213L1203.91 48.0201L1228.37 27.4213L1252.84 48.0201" stroke="#FFA800" stroke-width="2" stroke-miterlimit="10" stroke-linecap="round"/>
<path d="M223 53.4213L247.46 74.0201L271.92 53.4213L296.38 74.0201L320.84 53.4213L345.3 74.0201L369.76 53.4213L394.22 74.0201L418.687 53.4213L443.147 74.0201L467.607 53.4213L492.067 74.0201L516.527 53.4213L540.987 74.0201L565.455 53.4213L589.915 74.0201L614.383 53.4213L638.85 74.0201" stroke="#FFA800" stroke-width="2" stroke-miterlimit="10" stroke-linecap="round"/>
<path d="M664 79.4213L688.452 100.028L712.92 79.4213L737.372 100.028L761.84 79.4213L786.3 100.028L810.76 79.4213L835.22 100.028L859.68 79.4213L884.14 100.028L908.6 79.4213L933.06 100.028L957.52 79.4213L981.979 100.028L1006.45 79.4213L1030.91 100.028L1055.37 79.4213L1079.84 100.028" stroke="#FFA800" stroke-width="2" stroke-miterlimit="10" stroke-linecap="round"/>
<path d="M78 105.421L102.46 126.02L126.92 105.421L151.38 126.02L175.84 105.421L200.3 126.02L224.76 105.421L249.22 126.02L273.68 105.421L298.147 126.02L322.599 105.421L347.059 126.02L371.527 105.421L395.987 126.02L420.447 105.421L444.915 126.02L469.382 105.421L493.842 126.02" stroke="#FFA800" stroke-width="2" stroke-miterlimit="10" stroke-linecap="round"/>
<path d="M543 131.822L567.46 152.421L591.92 131.822L616.38 152.421L640.84 131.822L665.3 152.421L689.76 131.822L714.22 152.421L738.68 131.822L763.147 152.421L787.599 131.822L812.059 152.421L836.527 131.822L860.987 152.421L885.447 131.822L909.915 152.421L934.382 131.822L958.842 152.421" stroke="#FFA800" stroke-width="2" stroke-miterlimit="10" stroke-linecap="round"/>
</svg>
