<svg width="456" height="355" viewBox="0 0 456 355" fill="none" xmlns="http://www.w3.org/2000/svg">
<path d="M269.42 100.493C320.448 127.953 361.922 161.491 387.736 193.478C400.645 209.474 409.606 225.042 413.911 239.234C418.215 253.421 417.848 266.156 412.227 276.601C406.606 287.046 396.18 294.367 381.969 298.591C367.754 302.815 349.824 303.913 329.363 301.952C288.446 298.029 237.609 281.892 186.581 254.432C135.553 226.972 94.0789 193.434 68.2644 161.446C55.3558 145.451 46.3949 129.882 42.0895 115.691C37.7855 101.504 38.1525 88.7691 43.7733 78.324C49.3941 67.8789 59.8203 60.5571 74.0311 56.3339C88.2471 52.1092 106.176 51.0114 126.637 52.973C167.554 56.8956 218.392 73.0331 269.42 100.493Z" stroke="#FF57C6" stroke-width="2"/>
<path d="M260.334 96.2548C314.171 117.691 359.212 146.26 388.519 175.082C403.174 189.494 413.859 203.934 419.761 217.539C425.661 231.14 426.755 243.833 422.367 254.853C417.979 265.873 408.46 274.34 394.826 280.163C381.187 285.988 363.501 289.131 342.95 289.525C301.853 290.313 249.502 280.103 195.666 258.666C141.829 237.23 96.7881 208.661 67.4808 179.839C52.8256 165.427 42.1411 150.987 36.239 137.382C30.339 123.781 29.2454 111.088 33.6333 100.068C38.0212 89.0482 47.5405 80.5808 61.1743 74.7582C74.813 68.9336 92.4988 65.7901 113.05 65.396C154.147 64.6078 206.498 74.8183 260.334 96.2548Z" stroke="#FF57C6" stroke-width="2"/>
<path d="M252.571 93.5768C308.182 109.866 355.705 134.082 387.588 160.026C403.531 172.999 415.524 186.373 422.676 199.364C429.827 212.351 432.107 224.886 428.772 236.269C425.438 247.652 416.756 256.975 403.728 264.052C390.696 271.13 373.384 275.92 352.961 278.241C312.119 282.882 259.04 277.63 203.43 261.341C147.819 245.051 100.296 220.835 68.413 194.891C52.4699 181.918 40.4774 168.545 33.3245 155.553C26.1742 142.566 23.8942 130.032 27.2285 118.649C30.5629 107.266 39.2455 97.9422 52.2727 90.8658C65.3046 83.7869 82.6173 78.9976 103.04 76.6765C143.882 72.035 196.96 77.2873 252.571 93.5768Z" stroke="#FF57C6" stroke-width="2"/>
</svg>
