<svg width="522" height="369" viewBox="0 0 522 369" fill="none" xmlns="http://www.w3.org/2000/svg">
<line x1="47.3296" y1="1.1748e-08" x2="47.3296" y2="369" stroke="#D5D5D5"/>
<line x1="95.002" y1="1.1748e-08" x2="95.0019" y2="369" stroke="#D5D5D5"/>
<line x1="142.674" y1="1.1748e-08" x2="142.674" y2="369" stroke="#D5D5D5"/>
<line x1="190.346" y1="1.1748e-08" x2="190.346" y2="369" stroke="#D5D5D5"/>
<line x1="238.018" y1="1.1748e-08" x2="238.018" y2="369" stroke="#D5D5D5"/>
<line x1="285.69" y1="1.1748e-08" x2="285.69" y2="369" stroke="#D5D5D5"/>
<line x1="333.363" y1="1.1748e-08" x2="333.363" y2="369" stroke="#D5D5D5"/>
<line x1="381.035" y1="1.1748e-08" x2="381.035" y2="369" stroke="#D5D5D5"/>
<line x1="428.707" y1="1.1748e-08" x2="428.707" y2="369" stroke="#D5D5D5"/>
<line x1="476.379" y1="1.1748e-08" x2="476.379" y2="369" stroke="#D5D5D5"/>
<line x1="1.66179e-08" y1="329.185" x2="521.963" y2="329.185" stroke="#D5D5D5"/>
<line x1="1.66179e-08" y1="281.512" x2="521.963" y2="281.512" stroke="#D5D5D5"/>
<line x1="1.66179e-08" y1="233.84" x2="521.963" y2="233.84" stroke="#D5D5D5"/>
<line x1="1.66179e-08" y1="186.168" x2="521.963" y2="186.168" stroke="#D5D5D5"/>
<line x1="1.66179e-08" y1="138.496" x2="521.963" y2="138.496" stroke="#D5D5D5"/>
<line x1="1.66179e-08" y1="90.8232" x2="521.963" y2="90.8233" stroke="#D5D5D5"/>
<line x1="1.66179e-08" y1="43.1514" x2="521.963" y2="43.1514" stroke="#D5D5D5"/>
</svg>
