<svg width="120" height="120" viewBox="0 0 120 120" fill="none" xmlns="http://www.w3.org/2000/svg">
<path d="M38.8757 28.8974C37.604 37.9265 34.1676 44.3351 28.8086 51.6788C26.5065 54.8335 18.0335 63.9744 20.1584 68.7555C21.0861 70.8427 36.9289 56.1524 38.13 55.2209C43.7454 50.8661 49.8892 47.0799 56.0269 43.5133C60.7857 40.7481 59.5749 40.5262 55.2812 42.4693C40.662 49.0853 27.8982 62.6032 16.8773 73.8263C15.2284 75.5055 7.24376 82.1341 7.77967 85.2729C8.15547 87.4741 14.9324 86.5567 16.0197 86.4288C24.3239 85.4518 32.3996 81.6741 40.0688 78.5616C48.6423 75.0821 57.2299 71.2761 64.6026 65.5863C77.5677 55.5806 59.4584 49.6208 50.8443 48.4723C43.0931 47.4388 24.4687 47.056 26.8698 59.9189C29.6719 74.9304 53.0771 76.7229 64.3789 80.9478C67.5528 82.1343 64.4181 83.4326 62.6637 83.8561C56.4857 85.3473 49.4933 84.6536 43.2008 84.6018C41.8482 84.5907 30.0018 85.273 30.0018 82.402C30.0018 78.1073 41.3507 73.2167 43.8719 71.8502C53.472 66.6467 63.357 61.8313 72.2088 55.3701C76.9837 51.8848 84.3702 46.2977 83.0216 39.3746C80.6992 27.4531 56.3554 25.6526 49.3901 33.5208C36.9144 47.6138 80.4536 66.851 88.0178 72.0739C92.4855 75.1588 99.591 80.441 98.0848 86.9135C96.3529 94.3561 87.4012 96.9012 80.9336 97.7635C73.5524 98.7477 65.8374 98.3699 58.5996 96.6077C55.8201 95.9309 48.4039 92.9943 55.505 91.6115C66.4832 89.4736 77.9541 89.8948 89.0245 88.1439C96.8624 86.9042 109.842 85.2827 114.341 77.443C123.122 62.1445 85.218 49.9042 76.4593 47.652C71.5479 46.3891 58.1797 43.7999 61.2469 47.8384C62.3923 49.3465 65.8801 50.9314 67.2126 51.4924C73.4977 54.1387 80.1876 55.92 86.7874 57.5699C91.9511 58.8608 97.1623 59.9221 102.373 61.0002C105.636 61.6754 95.7601 60.1251 92.492 59.4715C82.222 57.4174 72.1333 54.509 62.2163 51.1568C59.5203 50.2455 48.0292 46.8132 57.2201 45.303C65.896 43.8774 74.8069 44.6637 83.5436 43.9607C89.8147 43.4562 86.0019 43.0082 82.3504 42.9913C69.9226 42.9338 57.493 42.9913 45.065 42.9913C40.217 42.9913 33.1225 42.9628 28.1748 43.0659C25.219 43.1275 17.3481 42.4305 14.6402 44.9302C11.3077 48.0062 25.243 53.6174 25.8258 53.8786C39.5489 60.0304 54.1519 64.5454 67.1753 72.1858C84.3606 82.2678 59.2604 87.1782 51.2171 88.6286C47.6914 89.2644 38.3991 91.0884 41.4111 93.0283C42.3434 93.6288 46.0023 94.2028 46.5565 94.296C52.5467 95.3034 58.5946 96.0665 64.6399 96.645C76.9352 97.8216 90.0525 99.5073 102.41 98.3974C108.812 97.8223 98.6017 95.6934 98.0103 95.5637C90.0765 93.8238 82.1101 92.2434 74.1476 90.642C69.602 89.7278 66.0724 89.0298 61.5825 88.0321C60.3939 87.7679 53.5362 86.9513 52.4475 85.2729C52.1971 84.8868 70.8256 80.569 70.9411 80.5377C83.2298 77.2118 96.7209 72.6236 106.66 64.3186C111.955 59.8949 115.657 53.5997 109.942 47.9503C101.931 40.0332 89.6938 35.9225 79.293 32.4023C75.0402 30.9629 70.3825 29.5795 66.0194 28.45C63.7369 27.8592 57.3351 28.0333 59.1962 26.5858C61.6232 24.6981 70.5681 26.7391 73.1036 26.884" stroke="#ED534B" stroke-opacity="0.5" stroke-width="3" stroke-linecap="round"/>
<g clip-path="url(#clip0)">
<path d="M62.2855 17.2304H57.4146L59.85 12.3595L62.2855 17.2304Z" fill="black"/>
<path d="M59.85 29.4403L57.4146 24.5693H62.2855L59.85 29.4403Z" fill="black"/>
<path d="M63.5195 23.3354V18.4645L68.3905 20.8999L63.5195 23.3354Z" fill="black"/>
<path d="M51.3096 20.8999L56.1805 18.4645V23.3354L51.3096 20.8999Z" fill="black"/>
<path d="M64.8103 15.9314L66.9048 13.8369" stroke="black" stroke-width="3" stroke-linecap="round" stroke-linejoin="round"/>
<path d="M52.6653 27.9628L54.7598 25.8683" stroke="black" stroke-width="3" stroke-linecap="round" stroke-linejoin="round"/>
<path d="M54.7598 15.9314L52.6653 13.8369" stroke="black" stroke-width="3" stroke-linecap="round" stroke-linejoin="round"/>
<path d="M66.9048 27.9628L64.8103 25.8683" stroke="black" stroke-width="3" stroke-linecap="round" stroke-linejoin="round"/>
<path d="M100.303 73.5548H95.4324L97.8678 68.6838L100.303 73.5548Z" fill="black"/>
<path d="M97.8678 85.7646L95.4324 80.8937H100.303L97.8678 85.7646Z" fill="black"/>
<path d="M101.537 79.6598V74.7888L106.408 77.2243L101.537 79.6598Z" fill="black"/>
<path d="M89.3274 77.2243L94.1983 74.7888V79.6598L89.3274 77.2243Z" fill="black"/>
<path d="M102.828 72.2558L104.922 70.1613" stroke="black" stroke-width="3" stroke-linecap="round" stroke-linejoin="round"/>
<path d="M90.6831 84.2871L92.7695 82.1926" stroke="black" stroke-width="3" stroke-linecap="round" stroke-linejoin="round"/>
<path d="M92.7695 72.2558L90.6831 70.1613" stroke="black" stroke-width="3" stroke-linecap="round" stroke-linejoin="round"/>
<path d="M104.922 84.2871L102.828 82.1926" stroke="black" stroke-width="3" stroke-linecap="round" stroke-linejoin="round"/>
<path d="M24.2677 73.5548H19.3967L21.8322 68.6838L24.2677 73.5548Z" fill="black"/>
<path d="M21.8322 85.7646L19.3967 80.8937H24.2677L21.8322 85.7646Z" fill="black"/>
<path d="M25.5017 79.6598V74.7888L30.3727 77.2243L25.5017 79.6598Z" fill="black"/>
<path d="M13.292 77.2243L18.1629 74.7888V79.6598L13.292 77.2243Z" fill="black"/>
<path d="M26.7925 72.2558L28.887 70.1613" stroke="black" stroke-width="3" stroke-linecap="round" stroke-linejoin="round"/>
<path d="M14.6477 84.2871L16.7422 82.1926" stroke="black" stroke-width="3" stroke-linecap="round" stroke-linejoin="round"/>
<path d="M16.7422 72.2558L14.6477 70.1613" stroke="black" stroke-width="3" stroke-linecap="round" stroke-linejoin="round"/>
<path d="M28.887 84.2871L26.7925 82.1926" stroke="black" stroke-width="3" stroke-linecap="round" stroke-linejoin="round"/>
<path d="M27.3364 25.1052L21.264 19.0327C20.1131 17.8821 18.5522 17.2357 16.9248 17.2357C15.2973 17.2357 13.7365 17.8821 12.5856 19.0327C11.435 20.1837 10.7886 21.7445 10.7886 23.3719C10.7886 24.9994 11.435 26.5602 12.5856 27.7111L18.658 33.7836" stroke="black" stroke-width="3" stroke-linecap="round" stroke-linejoin="round"/>
<path d="M15.9546 36.4788L30.0316 22.4017" stroke="black" stroke-width="3" stroke-linecap="round" stroke-linejoin="round"/>
<path d="M15.9629 22.4099C12.6292 18.8264 10.7782 14.1122 10.7835 9.21777" stroke="black" stroke-width="3" stroke-linecap="round" stroke-linejoin="round"/>
<path d="M5.17358 9.21777H15.9546" stroke="black" stroke-width="3" stroke-linecap="round" stroke-linejoin="round"/>
<path d="M63.5195 67.8639L76.0054 82.1926" stroke="black" stroke-width="3" stroke-linecap="round" stroke-linejoin="round"/>
<path d="M30.0317 29.4403L56.1806 59.4453" stroke="black" stroke-width="3" stroke-linecap="round" stroke-linejoin="round"/>
<path d="M22.2219 36.9983L42.0629 92.8112" stroke="black" stroke-width="3" stroke-linecap="round" stroke-linejoin="round"/>
<path d="M92.3718 25.1051L98.4443 19.0326C99.0135 18.4632 99.6893 18.0114 100.433 17.7032C101.177 17.395 101.974 17.2363 102.779 17.2363C103.585 17.2363 104.382 17.395 105.126 17.7032C105.87 18.0114 106.545 18.4632 107.115 19.0326C107.686 19.6014 108.14 20.2776 108.449 21.0223C108.759 21.7669 108.918 22.5654 108.918 23.3718C108.918 24.1783 108.759 24.9768 108.449 25.7214C108.14 26.4661 107.686 27.1422 107.115 27.711L101.042 33.7835" stroke="black" stroke-width="3" stroke-linecap="round" stroke-linejoin="round"/>
<path d="M103.737 36.4788L89.6685 22.4017" stroke="black" stroke-width="3" stroke-linecap="round" stroke-linejoin="round"/>
<path d="M103.745 22.4099C107.076 18.8252 108.924 14.1111 108.917 9.21777" stroke="black" stroke-width="3" stroke-linecap="round" stroke-linejoin="round"/>
<path d="M114.526 9.21777H103.737" stroke="black" stroke-width="3" stroke-linecap="round" stroke-linejoin="round"/>
<path d="M89.6684 29.4403L43.6948 82.1926" stroke="black" stroke-width="3" stroke-linecap="round" stroke-linejoin="round"/>
<path d="M97.4779 36.9983L77.637 92.8112" stroke="black" stroke-width="3" stroke-linecap="round" stroke-linejoin="round"/>
<path d="M104.768 110.168L95.5541 100.954H24.3003L14.9319 110.322L104.768 110.168Z" stroke="black" stroke-width="3" stroke-linecap="round" stroke-linejoin="round"/>
<path d="M24.3003 100.954L33.2222 110.249L42.1442 100.954L51.0255 110.249L59.8988 100.954L68.7152 110.249L77.5965 100.954L86.624 110.249L95.5541 100.954" stroke="black" stroke-width="3" stroke-linejoin="round"/>
</g>
<defs>
<clipPath id="clip0">
<rect width="111.788" height="103.54" fill="white" transform="translate(3.95605 8)"/>
</clipPath>
</defs>
</svg>
