<svg width="120" height="120" viewBox="0 0 120 120" fill="none" xmlns="http://www.w3.org/2000/svg">
<g clip-path="url(#clip0)">
<path d="M61.8302 28.0729C49.242 37.8818 35.6444 47.5554 25.1933 59.6986C12.8526 74.0373 30.1964 73.2409 41.0619 69.8322C52.1862 66.3422 62.5904 60.5497 72.4092 54.3534C73.2377 53.8305 89.7872 43.5918 81.986 42.3267C75.1872 41.2242 67.2012 42.2858 60.9393 44.9993C53.3877 48.2716 41.4732 56.8656 40.5607 65.9903C38.9378 82.2198 81.7685 79.4942 88.7788 72.6161C92.1517 69.3069 83.3242 68.3526 82.153 68.2731C75.7637 67.84 66.7526 68.2006 63.2778 74.6762C56.5928 87.1347 99.793 83.1593 104.814 83.1951C110.626 83.2367 107.472 84.3106 103.979 85.1996C93.7823 87.7952 82.658 88.9743 72.1865 89.5426C63.074 90.037 50.1554 90.8819 42.8993 83.9746C36.1309 77.5317 37.6009 63.4351 37.7768 55.1329C38.0239 43.4696 40.302 31.9215 46.1843 21.7254C46.7533 20.7392 54.9912 10.3819 52.0306 9.19764C48.1643 7.65112 40.8716 11.0552 37.5541 12.4827C30.2242 15.6368 18.7862 21.7024 16.6187 30.3C14.5262 38.6005 25.4368 44.5737 31.151 47.8389C35.1751 50.1384 39.3647 52.0124 43.6788 53.6852C44.7472 54.0995 47.8737 54.7413 46.7968 55.1329C41.7589 56.9648 35.1133 56.636 29.8704 57.36C21.9871 58.4487 5.84415 59.3338 2.36489 68.4959C0.551585 73.2709 8.9432 75.6871 11.8303 76.792C17.2617 78.8707 22.8521 80.6403 28.4227 82.3043C31.0709 83.0953 33.4231 84.0662 30.8169 81.3021C25.1672 75.3099 20.5005 69.23 16.0619 62.2598C8.04164 49.665 -1.6001 36.9879 -4.65067 22.0595C-6.05179 15.203 -7.14535 5.32045 -2.25647 -0.546198C3.4259 -7.36504 4.47411 5.80368 4.59206 8.75221C5.16262 23.0164 4.46354 37.299 5.14885 51.5694C5.73368 63.7478 5.49218 77.6242 9.21342 89.3755C13.7358 103.657 19.2568 74.9992 19.514 73.3956C21.5632 60.6242 22.3454 47.7533 23.2445 34.8657C23.6307 29.3314 24.1264 23.8062 24.5252 18.2733C24.5963 17.2859 24.9427 14.6781 24.1911 15.3223C21.0652 18.0017 23.1329 29.1449 23.4116 32.0817C25.3221 52.2155 28.7132 72.4952 33.6565 92.1038C33.754 92.4902 35.4065 102.412 37.3314 97.3376C40.8251 88.1268 42.5223 77.9039 44.2912 68.2731C46.8331 54.4339 49.1615 40.523 51.3625 26.6252C52.5006 19.4391 51.8937 10.4663 54.4805 22.9504C58.0311 40.0858 62.3063 57.0093 67.2867 73.7854C69.8648 82.4695 72.386 91.2451 75.4158 99.7875C76.2005 102 78.2975 107.832 79.2577 105.689C82.9339 97.4888 81.7983 84.4363 82.8768 75.6228C84.4841 62.4893 86.3865 49.3736 87.6652 36.202C89.238 20.0029 88.0809 68.8028 89.8924 84.9769C89.9009 85.0531 91.1989 100.363 93.3445 98.3399C98.6424 93.3447 99.0152 81.7905 99.9146 75.2887C101.752 62.0081 102.561 48.5965 102.866 35.1998C103.146 22.849 104.829 39.2866 105.705 42.5494C108.895 54.43 113.224 66.1313 117.287 77.7386C120.551 87.0645 121.25 80.3985 121.741 74.6206C122.033 71.1796 120.104 61.3909 122.019 64.2643C122.279 64.6538 123.675 72.3023 124.413 71.6696C126.604 69.7922 125.002 57.8418 124.97 55.5783C124.828 45.5574 125.119 35.2679 113.946 31.7477C104.792 28.8635 93.9838 30.0773 84.5472 30.0773C79.0656 30.0773 73.5413 30.2166 68.0662 29.8546C67.2829 29.8028 66.4986 29.7244 65.7277 29.5762C65.4495 29.5227 66.1687 29.1474 66.4515 29.1308C75.9833 28.5701 85.6949 29.0296 95.2376 29.0751C100.646 29.1008 102.213 28.1243 102.921 33.084" stroke="#FFE8BC" stroke-width="3" stroke-linecap="round"/>
<path d="M24.3033 103.441C22.0985 99.6582 20.3799 95.6655 19.147 91.5529M40.2426 96.7344C33.9837 88.4884 30.3511 78.868 29.337 68.9967M53.9098 90.8793C43.0943 78.773 42.0842 60.9459 50.8083 47.5254" stroke="black" stroke-width="3" stroke-linecap="round"/>
<path d="M11.875 107.382L40.4413 40.2679C41.0995 38.7215 43.1128 38.3312 44.3012 39.5196L81.2927 76.5111C82.4812 77.6995 82.0908 79.7128 80.5444 80.371L13.4308 108.937C12.4483 109.356 11.4568 108.364 11.875 107.382Z" stroke="black" stroke-width="3" stroke-linecap="round"/>
<path d="M79.2812 56.5165C89.6266 46.1711 104.052 43.8229 111.5 51.2716" stroke="black" stroke-width="3" stroke-linecap="round"/>
<path d="M64.2956 41.531C74.641 31.1856 76.9892 16.7606 69.5405 9.31191" stroke="black" stroke-width="3" stroke-linecap="round"/>
<path d="M72.9121 50.1478L72.9121 46.9625C72.9121 44.9974 74.5051 43.4043 76.4702 43.4043H79.6556V40.2189C79.6556 38.2538 81.2486 36.6608 83.2137 36.6608H86.3991V33.4754C86.3991 31.5103 87.9922 29.9173 89.9573 29.9173H93.1426V26.7319C93.1426 24.7668 94.7357 23.1738 96.7008 23.1738H99.8862" stroke="black" stroke-width="3" stroke-linecap="round"/>
<circle cx="83.7769" cy="21.3005" r="1.58946" transform="rotate(45 83.7769 21.3005)" fill="black"/>
<circle r="1.58946" transform="matrix(-0.707107 -0.707107 -0.707107 0.707107 98.7622 36.2861)" fill="black"/>
<circle cx="59.0505" cy="25.0468" r="1.58946" transform="rotate(45 59.0505 25.0468)" fill="black"/>
<circle r="1.58946" transform="matrix(-0.707107 -0.707107 -0.707107 0.707107 95.0158 61.0122)" fill="black"/>
</g>
<defs>
<clipPath id="clip0">
<rect width="120" height="120" fill="white"/>
</clipPath>
</defs>
</svg>
