<svg width="122" height="120" viewBox="0 0 122 120" fill="none" xmlns="http://www.w3.org/2000/svg">
<path d="M38.8182 18.5184C34.7008 33.9047 23.8872 44.5274 16.9586 58.5105C16.186 60.0697 14.1545 65.3606 17.7645 65.3606C25.7173 65.3606 34.4623 52.9763 38.8182 47.8325C45.5896 39.8365 52.3388 31.711 58.6632 23.3537C58.8419 23.1176 62.4303 16.7367 61.3831 19.8784C59.2705 26.216 58.0549 32.6559 55.4396 38.8671C50.847 49.7745 44.9595 60.2339 38.919 70.3974C35.978 75.3456 37.397 70.0163 38.0627 67.7279C40.0029 61.0586 43.4646 55.0368 47.3808 49.3436C50.6067 44.6538 54.1753 38.2294 58.5121 34.4347C59.6991 33.3961 58.1467 37.6065 57.5551 39.0685C54.9246 45.5697 51.8435 51.8995 48.5896 58.1076C42.529 69.6706 35.9545 81.1882 27.838 91.4511C22.3655 98.371 24.1858 95.073 27.4351 89.5371C33.9666 78.4094 41.8772 68.6186 50.8058 59.3164C56.5485 53.3334 62.5177 47.5157 68.8375 42.141C70.6853 40.5695 76.3086 34.8634 79.4148 34.6362C80.3997 34.5641 78.9691 36.5834 78.5081 37.4568C76.0009 42.2072 73.5628 46.9843 71.1041 51.7612C63.9563 65.6484 56.164 79.1902 48.9926 93.0629C47.5508 95.8519 43.4891 104.527 48.5896 96.9412C57.2514 84.0595 67.4312 72.561 78.9111 62.0867C84.5585 56.9339 93.5396 47.0808 101.476 45.2134C102.277 45.0249 101.415 46.937 100.972 47.6311C97.0002 53.8588 92.1484 59.6352 87.5744 65.4109C77.9327 77.5855 68.0266 89.6089 58.9654 102.23C57.4853 104.291 53.009 108.849 55.5404 109.03C57.2246 109.15 61.6167 103.32 62.1889 102.734C71.8441 92.8355 82.301 83.713 93.2156 75.2327C94.784 74.014 109.452 61.2073 102.785 71.0018C96.4086 80.3703 81.3971 110.536 88.8839 102.028C92.3008 98.1455 95.349 94.0818 99.3604 90.746C99.726 90.442 105.976 85.6417 105.556 87.6735C104.441 93.0595 101.842 98.1848 100.469 103.539C100.383 103.875 99.3128 107.443 100.267 103.539C101.255 99.4971 102.87 95.6717 104.498 91.8541C108.581 82.2799 113.271 72.9191 116.989 63.1947C118.822 58.4018 122.213 50.5667 116.687 46.8252C110.558 42.6754 101.453 43.1592 94.4748 43.0476C84.1759 42.8828 73.8326 42.8078 63.5489 43.4505C60.5457 43.6382 51.5239 43.9038 54.533 43.9038C61.5932 43.9038 68.6355 43.7828 75.6875 43.4002C84.9886 42.8955 94.4195 42.7495 103.692 41.8891C104.151 41.8465 104.64 41.8435 105.052 41.6373C105.842 41.2423 103.316 41.2638 102.433 41.2343C96.9876 41.0528 91.5094 41.1658 86.0633 41.184C69.2991 41.2399 19.1208 41.0707 35.7962 42.7958C47.5998 44.0168 59.2034 44.686 70.953 46.7748C72.8739 47.1163 107.688 52.4899 103.843 58.7624C100.476 64.2563 85.9994 64.0575 80.9258 64.3532C66.4391 65.1975 51.6416 65.1266 37.1561 64.2525C30.7125 63.8636 27.3551 62.9429 35.7962 62.9429C54.0106 62.9429 72.5064 63.1574 90.5964 65.4613C98.4848 66.4659 95.7029 68.2283 89.6394 69.2389C76.2051 71.4779 62.2622 71.3461 48.6903 72.0091C47.8787 72.0488 25.1182 72.6715 25.1182 73.3691C25.1182 74.2628 58.0497 73.8224 59.6705 73.8224C66.8899 73.8224 74.1093 73.8224 81.3287 73.8224C84.2165 73.8224 87.1043 73.8116 89.992 73.8224C92.1085 73.8303 97.4273 72.2089 96.3384 74.0238C95.1876 75.9418 91.9143 74.6972 89.6898 74.9305C81.6597 75.7723 73.6252 76.4787 65.614 77.4992C50.7472 79.3931 35.6719 81.0618 20.988 84.0974C11.5917 86.0399 33.3314 86.2692 34.8895 86.3136C50.7552 86.7653 66.6936 85.9523 82.5376 87.0188C90.5105 87.5554 84.9059 90.606 80.8251 92.4585C71.6238 96.6354 61.1072 98.4643 51.3598 100.92C50.0521 101.25 33.8383 105.312 37.005 105.504C45.6357 106.027 71.591 105.554 62.9445 105.554C56.149 105.554 47.4791 105.616 41.5381 109.181" stroke="#E4D8FF" stroke-width="3" stroke-linecap="round"/>
<path d="M72.65 49.8516C72.65 43.6353 70.1815 36.0376 61.85 36.0376C53.5186 36.0376 51.05 43.6353 51.05 49.8516C51.05 56.0678 52.5929 65.7376 61.85 65.7376C71.1072 65.7376 72.65 56.0678 72.65 49.8516Z" stroke="black" stroke-width="3"/>
<path d="M53.636 65.7375C43.7106 72.0622 37.55 69.6026 37.55 78.3869V85.7656C41.3148 87.1711 50.8979 91.3876 61.85 91.3876C72.8022 91.3876 82.3853 87.1711 86.1501 85.7656V78.3869C86.1501 69.6026 79.9895 72.0622 70.0641 65.7375" stroke="black" stroke-width="3" stroke-linecap="round" stroke-linejoin="round"/>
<path d="M38.675 41.1628C38.675 35.4645 36.4121 28.5 28.775 28.5C21.1379 28.5 18.875 35.4645 18.875 41.1628C18.875 46.861 20.2893 55.725 28.775 55.725C37.2607 55.725 38.675 46.861 38.675 41.1628Z" stroke="black" stroke-width="3"/>
<path d="M21.2454 55.7249C12.1472 61.5225 6.5 59.2678 6.5 67.3201V74.0839C9.95106 75.3723 18.7356 79.2374 28.775 79.2374C29.4562 79.2374 30.1316 79.2196 30.8 79.186M36.3046 55.7249C41.2151 58.854 45.1203 59.6374 47.675 60.9617" stroke="black" stroke-width="3" stroke-linecap="round" stroke-linejoin="round"/>
<path d="M88.5969 68.4376C88.5969 67.41 88.5969 64.985 88.5969 63.5053C85.2219 63.5053 80.1594 60.8337 78.05 59.4978C79.5567 58.3675 85.1623 54.0752 84.0768 49.0167C81.3648 36.3778 86.1862 29.2876 92.5143 29.2876C97.3358 29.2876 99.4451 32.062 99.4451 32.062C99.4451 32.062 108.184 29.2876 108.184 38.8439C108.184 47.1671 106.979 55.4904 111.8 59.4978C111.8 59.4978 106.376 63.5053 101.856 63.5053V68.4376" stroke="black" stroke-width="3" stroke-linecap="round" stroke-linejoin="round"/>
<path d="M102.706 68.4375C105.73 69.3375 112.323 72.7575 114.5 79.2375H96.3561H92.2251" stroke="black" stroke-width="3" stroke-linecap="round" stroke-linejoin="round"/>
</svg>
