<svg width="120" height="120" viewBox="0 0 120 120" fill="none" xmlns="http://www.w3.org/2000/svg">
<path d="M35.6256 25.9915C28.0979 46.4667 28.5438 71.3346 50.1955 82.7594C62.4068 89.2028 79.268 95.9469 93.2182 91.6938C102.681 88.8087 105.825 80.3756 100.778 71.7632C92.862 58.2542 75.103 53.2378 60.8481 50.5268C49.4235 48.354 25.349 43.4398 15.9699 53.7569C5.90192 64.8316 57.6945 76.0292 67.1022 68.1894C81.2988 56.3589 30.5175 31.1792 24.3545 28.6031C23.1804 28.1123 6.45033 22.7183 14.8702 28.8093C24.6967 35.9177 36.5244 40.1098 47.1716 45.7847C52.8952 48.8353 63.0063 52.698 59.9547 60.8357C56.847 69.1228 49.1242 74.7082 43.048 80.6976C35.2989 88.336 27.9586 97.2053 24.3545 107.638C21.5236 115.833 22.3479 110.514 19.4062 103.79C16.6085 97.3949 12.2669 90.1715 12.671 82.8968C13.1609 74.0786 22.5178 70.5916 29.5777 68.1207C38.4889 65.0018 49.8338 62.9402 57.2056 56.6434C62.6151 52.0228 59.7726 45.1479 53.7693 43.0356C48.9592 41.3431 37.44 39.231 33.2889 43.448C27.8446 48.9787 33.8373 59.6661 38.1684 63.5848C47.1388 71.7008 60.7567 78.0812 72.3254 81.2474C79.6313 83.2469 88.7871 82.3194 84.2838 72.7253C81.1825 66.1183 61.8955 53.5702 78.2359 53.2071C80.0108 53.1676 107.715 51.296 101.878 46.3345C98.3713 43.3541 85.4733 52.9037 88.4073 49.3584C91.8969 45.1419 94.7127 40.3841 98.029 36.0255C99.1726 34.5226 106.894 26.8086 100.641 27.5035C90.3766 28.6439 79.4567 33.9493 69.9887 37.675C53.9202 43.9979 36.3985 50.7267 22.224 60.767C15.9585 65.205 17.7385 68.5972 24.7668 69.0141C37.0676 69.7438 49.9201 64.381 61.2605 60.4233C76.1941 55.2116 91.1568 49.6675 105.589 43.1731C113.932 39.4185 103.029 44.0656 101.465 44.8912C94.8134 48.4041 19.4308 94.928 21.0556 96.8483C24.4851 100.901 46.2095 97.4696 50.333 97.1919C65.9568 96.1398 82.13 94.0319 96.9294 88.6698C105.079 85.7172 99.2137 84.6605 94.1803 84.4088C80.8654 83.7431 65.9436 85.1258 53.6319 90.4567C47.1645 93.257 42.1344 99.3344 51.9824 100.903C60.2987 102.228 69.3079 99.7606 77.1362 97.1919C82.3923 95.4672 86.0784 94.2807 78.5108 94.0305C60.329 93.4294 46.3474 85.2398 32.1893 74.0999C15.2188 60.7472 -0.131464 42.6323 5.79838 19.3938C11.0606 -1.22838 33.664 14.3727 44.6974 19.2563C50.8216 21.967 57.2154 22.7552 63.8033 23.4486C66.508 23.7333 58.2375 23.3804 55.6936 24.3421C46.998 27.6294 26.2027 49.8776 34.1823 60.2859C41.6424 70.0165 68.7705 56.9183 77.6173 55.2689C95.117 52.0062 68.5425 78.6114 65.7277 81.1099C56.4624 89.3342 47.0128 97.3688 37.275 105.027C31.82 109.317 34.4171 108.875 39.9553 108.875C65.355 108.875 90.6356 106.401 116.035 106.401" stroke="#F8DDEB" stroke-width="3" stroke-linecap="round"/>
<g clip-path="url(#clip0)">
<path d="M85.0885 37.8443C81.5842 37.8443 78.2235 36.4522 75.7457 33.9744C73.2678 31.4965 71.8758 28.1358 71.8758 24.6316C71.8758 21.1273 73.2678 17.7666 75.7457 15.2887C78.2235 12.8109 81.5842 11.4188 85.0885 11.4188H28.943C25.4387 11.4188 22.078 12.8109 19.6001 15.2887C17.1223 17.7666 15.7302 21.1273 15.7302 24.6316C15.7302 26.3667 16.072 28.0848 16.736 29.6879C17.4 31.2909 18.3732 32.7475 19.6001 33.9744C20.8271 35.2013 22.2836 36.1745 23.8867 36.8385C25.4897 37.5025 27.2079 37.8443 28.943 37.8443H85.0885Z" stroke="black" stroke-width="3" stroke-miterlimit="10"/>
<path d="M85.0884 11.4188C88.5926 11.4188 91.9533 12.8109 94.4312 15.2887C96.9091 17.7666 98.3011 21.1273 98.3011 24.6316" stroke="black" stroke-width="3" stroke-miterlimit="10"/>
<path d="M39.8763 37.8441C33.4419 58.1105 15.7476 79.8221 15.7476 95.6584C15.7476 97.3935 16.0893 99.1117 16.7533 100.715C17.4173 102.318 18.3906 103.774 19.6175 105.001C20.8444 106.228 22.3009 107.201 23.904 107.865C25.507 108.529 27.2252 108.871 28.9603 108.871H91.4885C93.2236 108.871 94.9418 108.529 96.5448 107.865C98.1479 107.201 99.6044 106.228 100.831 105.001C102.058 103.774 103.031 102.318 103.695 100.715C104.359 99.1117 104.701 97.3935 104.701 95.6584C104.701 92.1542 103.309 88.7935 100.831 86.3156C98.3534 83.8378 94.9927 82.4457 91.4885 82.4457C79.4026 82.4457 78.0005 95.6584 78.0005 95.6584H71.8673C71.8673 97.3935 72.209 99.1117 72.873 100.715C73.537 102.318 74.5103 103.774 75.7372 105.001C76.9641 106.228 78.4207 107.201 80.0237 107.865C81.6268 108.529 83.3449 108.871 85.08 108.871" stroke="black" stroke-width="3" stroke-miterlimit="10"/>
<path d="M71.8757 95.6585C71.8757 76.3039 98.3012 48.1667 98.3012 24.6315" stroke="black" stroke-width="3" stroke-miterlimit="10"/>
<path d="M73.3553 61.8698H73.3464" stroke="black" stroke-width="3" stroke-miterlimit="10"/>
<path d="M74.8777 82.4458H91.4968" stroke="black" stroke-width="3" stroke-miterlimit="10"/>
<path d="M42.7925 53.087C43.2186 53.138 43.629 53.2787 43.9968 53.4999L44.6849 53.9214C45.0283 54.1073 45.4127 54.2047 45.8032 54.2047C46.1937 54.2047 46.5781 54.1073 46.9214 53.9214L48.2892 53.0612C48.6326 52.8752 49.0169 52.7778 49.4074 52.7778C49.7979 52.7778 50.1823 52.8752 50.5257 53.0612L51.8934 53.9214C52.2368 54.1073 52.6212 54.2047 53.0117 54.2047C53.4022 54.2047 53.7866 54.1073 54.13 53.9214L55.4977 53.0612C55.8411 52.8752 56.2254 52.7778 56.6159 52.7778C57.0065 52.7778 57.3908 52.8752 57.7342 53.0612L59.1019 53.9214C59.4453 54.1073 59.8297 54.2047 60.2202 54.2047C60.6107 54.2047 60.9951 54.1073 61.3385 53.9214L62.7062 53.0612C63.0496 52.8752 63.4339 52.7778 63.8245 52.7778C64.215 52.7778 64.5993 52.8752 64.9427 53.0612L66.3105 53.9214C66.6539 54.1073 67.0382 54.2047 67.4287 54.2047C67.8192 54.2047 68.2036 54.1073 68.547 53.9214L69.9147 53.0612C70.2581 52.8752 70.6424 52.7778 71.033 52.7778C71.4235 52.7778 71.8078 52.8752 72.1512 53.0612L73.5189 53.9214C73.8623 54.1073 74.2467 54.2047 74.6372 54.2047C75.0277 54.2047 75.4121 54.1073 75.7555 53.9214L76.4437 53.4999C76.8964 53.2341 77.4073 53.0835 77.9318 53.0612" stroke="black" stroke-width="3" stroke-miterlimit="10"/>
<path d="M38.2246 61.8697C38.6825 61.9226 39.1246 62.069 39.5235 62.2998L40.2117 62.7213C40.5536 62.9073 40.9365 63.0047 41.3257 63.0047C41.7148 63.0047 42.0978 62.9073 42.4396 62.7213L43.8159 61.8611C44.1578 61.6752 44.5408 61.5778 44.9299 61.5778C45.3191 61.5778 45.702 61.6752 46.0439 61.8611L47.4202 62.7213C47.762 62.9073 48.145 63.0047 48.5342 63.0047C48.9233 63.0047 49.3063 62.9073 49.6481 62.7213L51.0244 61.8611C51.3663 61.6752 51.7493 61.5778 52.1384 61.5778C52.5276 61.5778 52.9105 61.6752 53.2524 61.8611L54.6287 62.7213C54.9706 62.9073 55.3535 63.0047 55.7427 63.0047C56.1318 63.0047 56.5148 62.9073 56.8566 62.7213L58.233 61.8611C58.5748 61.6752 58.9578 61.5778 59.3469 61.5778C59.7361 61.5778 60.119 61.6752 60.4609 61.8611L61.8372 62.7213C62.1806 62.9073 62.565 63.0047 62.9555 63.0047C63.346 63.0047 63.7304 62.9073 64.0738 62.7213L65.4415 61.8611C65.7849 61.6752 66.1692 61.5778 66.5597 61.5778C66.9502 61.5778 67.3346 61.6752 67.678 61.8611L69.0457 62.7213C69.3891 62.9073 69.7735 63.0047 70.164 63.0047C70.5545 63.0047 70.9389 62.9073 71.2823 62.7213L71.9618 62.2998C72.3845 62.0524 72.8583 61.9052 73.3468 61.8697V61.8697" stroke="black" stroke-width="3" stroke-miterlimit="10"/>
<path d="M33.5022 70.79C34.0078 70.8269 34.4987 70.9768 34.9387 71.2287L35.6183 71.6502C35.9617 71.8361 36.3461 71.9335 36.7366 71.9335C37.1271 71.9335 37.5114 71.8361 37.8548 71.6502L39.2225 70.79C39.5659 70.604 39.9503 70.5066 40.3408 70.5066C40.7313 70.5066 41.1157 70.604 41.4591 70.79L42.8354 71.6502C43.1773 71.8361 43.5602 71.9336 43.9494 71.9336C44.3385 71.9336 44.7215 71.8361 45.0633 71.6502L46.4397 70.79C46.7815 70.604 47.1645 70.5066 47.5536 70.5066C47.9428 70.5066 48.3258 70.604 48.6676 70.79L50.0439 71.6502C50.3858 71.8361 50.7687 71.9336 51.1579 71.9336C51.547 71.9336 51.93 71.8361 52.2719 71.6502L53.6482 70.79C53.99 70.604 54.373 70.5066 54.7621 70.5066C55.1513 70.5066 55.5343 70.604 55.8761 70.79L57.2524 71.6502C57.5943 71.8361 57.9772 71.9336 58.3664 71.9336C58.7556 71.9336 59.1385 71.8361 59.4804 71.6502L60.8567 70.79C61.1986 70.604 61.5815 70.5066 61.9707 70.5066C62.3598 70.5066 62.7428 70.604 63.0846 70.79L64.4609 71.6502C64.8028 71.8361 65.1858 71.9336 65.5749 71.9336C65.9641 71.9336 66.347 71.8361 66.6889 71.6502L67.377 71.2287C67.7572 71.0074 68.1788 70.8668 68.6157 70.8158" stroke="black" stroke-width="3" stroke-miterlimit="10"/>
<path d="M29.3728 79.3491C29.6216 79.4138 29.8593 79.5153 30.0782 79.6502L30.7663 80.0717C31.1082 80.2576 31.4911 80.3551 31.8803 80.3551C32.2694 80.3551 32.6524 80.2576 32.9943 80.0717L34.3706 79.2115C34.7124 79.0255 35.0954 78.9281 35.4845 78.9281C35.8737 78.9281 36.2567 79.0255 36.5985 79.2115L37.9748 80.0717C38.3167 80.2576 38.6996 80.3551 39.0888 80.3551C39.4779 80.3551 39.8609 80.2576 40.2028 80.0717L41.5791 79.2115C41.9209 79.0255 42.3039 78.9281 42.693 78.9281C43.0822 78.9281 43.4652 79.0255 43.807 79.2115L45.1834 80.0717C45.5252 80.2576 45.9082 80.3551 46.2973 80.3551C46.6865 80.3551 47.0694 80.2576 47.4113 80.0717L48.7876 79.2115C49.131 79.0255 49.5154 78.9282 49.9059 78.9282C50.2964 78.9282 50.6807 79.0255 51.0241 79.2115L52.3918 80.0717C52.7352 80.2576 53.1196 80.355 53.5101 80.355C53.9006 80.355 54.285 80.2576 54.6284 80.0717L55.9961 79.2115C56.3395 79.0255 56.7239 78.9282 57.1144 78.9282C57.5049 78.9282 57.8892 79.0255 58.2326 79.2115L59.6004 80.0717C59.9438 80.2576 60.3281 80.355 60.7186 80.355C61.1092 80.355 61.4935 80.2576 61.8369 80.0717L62.5165 79.6502C63.1395 79.3016 63.8521 79.1459 64.5638 79.2029" stroke="black" stroke-width="3" stroke-miterlimit="10"/>
</g>
<defs>
<clipPath id="clip0">
<rect width="91.5601" height="100.033" fill="white" transform="translate(14.4399 10.1284)"/>
</clipPath>
</defs>
</svg>
