<svg width="120" height="120" viewBox="0 0 120 120" fill="none" xmlns="http://www.w3.org/2000/svg">
<g clip-path="url(#clip0)">
<path d="M35.6256 25.9915C28.0979 46.4667 28.5438 71.3346 50.1955 82.7594C62.4068 89.2028 79.268 95.9469 93.2182 91.6938C102.681 88.8087 105.825 80.3756 100.778 71.7632C92.862 58.2542 75.103 53.2378 60.8481 50.5268C49.4235 48.354 25.349 43.4398 15.9699 53.7569C5.90192 64.8316 57.6945 76.0292 67.1022 68.1894C81.2988 56.3589 30.5175 31.1792 24.3545 28.6031C23.1804 28.1123 6.45033 22.7183 14.8702 28.8093C24.6967 35.9177 36.5244 40.1098 47.1716 45.7847C52.8952 48.8353 63.0063 52.698 59.9547 60.8357C56.847 69.1228 49.1242 74.7082 43.048 80.6976C35.2989 88.336 27.9586 97.2053 24.3545 107.638C21.5236 115.833 22.3479 110.514 19.4062 103.79C16.6085 97.3949 12.2669 90.1715 12.671 82.8968C13.1609 74.0786 22.5178 70.5916 29.5777 68.1207C38.4889 65.0018 49.8338 62.9402 57.2056 56.6434C62.6151 52.0228 59.7726 45.1479 53.7693 43.0356C48.9592 41.3431 37.44 39.231 33.2889 43.448C27.8446 48.9787 33.8373 59.6661 38.1684 63.5848C47.1388 71.7008 60.7567 78.0812 72.3254 81.2474C79.6313 83.2469 88.7871 82.3194 84.2838 72.7253C81.1825 66.1183 61.8955 53.5702 78.2359 53.2071C80.0108 53.1676 107.715 51.296 101.878 46.3345C98.3713 43.3541 85.4733 52.9037 88.4073 49.3584C91.8969 45.1419 94.7127 40.3841 98.029 36.0255C99.1726 34.5226 106.894 26.8086 100.641 27.5035C90.3766 28.6439 79.4567 33.9493 69.9887 37.675C53.9202 43.9979 36.3985 50.7267 22.224 60.767C15.9585 65.205 17.7385 68.5972 24.7668 69.0141C37.0676 69.7438 49.9201 64.381 61.2605 60.4233C76.1941 55.2116 91.1568 49.6675 105.589 43.1731C113.932 39.4185 103.029 44.0656 101.465 44.8912C94.8134 48.4041 19.4308 94.928 21.0556 96.8483C24.4851 100.901 46.2095 97.4696 50.333 97.1919C65.9568 96.1398 82.13 94.0319 96.9294 88.6698C105.079 85.7172 99.2137 84.6605 94.1803 84.4088C80.8654 83.7431 65.9436 85.1258 53.6319 90.4567C47.1645 93.257 42.1344 99.3344 51.9824 100.903C60.2987 102.228 69.3079 99.7606 77.1362 97.1919C82.3923 95.4672 86.0784 94.2807 78.5108 94.0305C60.329 93.4294 46.3474 85.2398 32.1893 74.0999C15.2188 60.7472 -0.131464 42.6323 5.79838 19.3938C11.0606 -1.22838 33.664 14.3727 44.6974 19.2563C50.8216 21.967 57.2154 22.7552 63.8033 23.4486C66.508 23.7333 58.2375 23.3804 55.6936 24.3421C46.998 27.6294 26.2027 49.8776 34.1823 60.2859C41.6424 70.0165 68.7705 56.9183 77.6173 55.2689C95.117 52.0062 68.5425 78.6114 65.7277 81.1099C56.4624 89.3342 47.0128 97.3688 37.275 105.027C31.82 109.317 34.4171 108.875 39.9553 108.875C65.355 108.875 90.6356 106.401 116.035 106.401" stroke="#D5D5D5" stroke-width="3" stroke-linecap="round"/>
<path d="M47.8848 62.4352L42.935 67.3849L70.8657 95.3156C72.2326 96.6825 74.4486 96.6825 75.8155 95.3156V95.3156C77.1823 93.9488 77.1823 91.7327 75.8155 90.3659L47.8848 62.4352Z" stroke="black" stroke-width="3" stroke-linecap="round"/>
<path d="M47.8848 62.4352L42.935 67.3849L31.9749 56.4248C30.608 55.0579 30.608 52.8419 31.9749 51.475V51.475C33.3417 50.1082 35.5578 50.1082 36.9246 51.475L47.8848 62.4352Z" stroke="black" stroke-width="3" stroke-linecap="round"/>
<path d="M75.5547 95.5764C82.8428 104.316 102.079 117.136 120.717 98.4977" stroke="black" stroke-width="3" stroke-linecap="round"/>
<path d="M62.2283 33.4999H78.3903V30.4999H62.2283V33.4999ZM54.8583 40.7081H55.02V37.7081H54.8583V40.7081ZM52.5925 43.3863V42.9739H49.5925V43.3863H52.5925ZM71.4328 46.0645H55.2707V49.0645H71.4328V46.0645ZM78.8027 38.8563H78.641V41.8563H78.8027V38.8563ZM81.0685 36.1781V36.5905H84.0685V36.1781H81.0685ZM78.8027 41.8563C81.7109 41.8563 84.0685 39.4987 84.0685 36.5905H81.0685C81.0685 37.8419 80.0541 38.8563 78.8027 38.8563V41.8563ZM76.5369 43.9604C76.5369 42.7983 77.4789 41.8563 78.641 41.8563V38.8563C75.8221 38.8563 73.5369 41.1415 73.5369 43.9604H76.5369ZM71.4328 49.0645C74.2517 49.0645 76.5369 46.7793 76.5369 43.9604H73.5369C73.5369 45.1225 72.5948 46.0645 71.4328 46.0645V49.0645ZM49.5925 43.3863C49.5925 46.5223 52.1348 49.0645 55.2707 49.0645V46.0645C53.7916 46.0645 52.5925 44.8655 52.5925 43.3863H49.5925ZM54.8583 37.7081C51.9501 37.7081 49.5925 40.0657 49.5925 42.9739H52.5925C52.5925 41.7225 53.607 40.7081 54.8583 40.7081V37.7081ZM57.1241 35.604C57.1241 36.7661 56.1821 37.7081 55.02 37.7081V40.7081C57.839 40.7081 60.1241 38.4229 60.1241 35.604H57.1241ZM78.3903 33.4999C79.8694 33.4999 81.0685 34.699 81.0685 36.1781H84.0685C84.0685 33.0421 81.5263 30.4999 78.3903 30.4999V33.4999ZM62.2283 30.4999C59.4093 30.4999 57.1241 32.7851 57.1241 35.604H60.1241C60.1241 34.4419 61.0662 33.4999 62.2283 33.4999V30.4999Z" fill="black"/>
<path d="M58.624 1.5H48.624V4.5H58.624V1.5ZM65.624 7.5H64.624V10.5H65.624V7.5ZM59.624 18.5H65.624V15.5H59.624V18.5ZM48.624 12.5H53.624V9.5H48.624V12.5ZM19.2035 18.5H34.9696V15.5H19.2035V18.5ZM8.99976 26.5H11.2035V23.5H8.99976V26.5ZM25.178 32.5H8.99976V35.5H25.178V32.5ZM34.9696 23.8564H33.8215V26.8564H34.9696V23.8564ZM34.9696 26.8564C38.1056 26.8564 40.6478 24.3142 40.6478 21.1782H37.6478C37.6478 22.6573 36.4487 23.8564 34.9696 23.8564V26.8564ZM30.9998 29.6782C30.9998 28.1198 32.2631 26.8564 33.8215 26.8564V23.8564C30.6063 23.8564 27.9998 26.4629 27.9998 29.6782H30.9998ZM25.178 35.5C28.3933 35.5 30.9998 32.8935 30.9998 29.6782H27.9998C27.9998 31.2366 26.7364 32.5 25.178 32.5V35.5ZM2.99976 29.5C2.99976 32.8137 5.68605 35.5 8.99976 35.5V32.5C7.3429 32.5 5.99976 31.1569 5.99976 29.5H2.99976ZM8.99976 23.5C5.68605 23.5 2.99976 26.1863 2.99976 29.5H5.99976C5.99976 27.8431 7.3429 26.5 8.99976 26.5V23.5ZM13.7035 21C13.7035 22.3807 12.5842 23.5 11.2035 23.5V26.5C14.241 26.5 16.7035 24.0376 16.7035 21H13.7035ZM34.9696 18.5C36.4488 18.5 37.6478 19.6991 37.6478 21.1782H40.6478C40.6478 18.0422 38.1056 15.5 34.9696 15.5V18.5ZM19.2035 15.5C16.1659 15.5 13.7035 17.9624 13.7035 21H16.7035C16.7035 19.6193 17.8227 18.5 19.2035 18.5V15.5ZM48.624 9.5C47.2433 9.5 46.124 8.38071 46.124 7H43.124C43.124 10.0376 45.5865 12.5 48.624 12.5V9.5ZM58.124 14C58.124 11.5147 56.1093 9.5 53.624 9.5V12.5C54.4524 12.5 55.124 13.1716 55.124 14H58.124ZM59.624 15.5C58.7956 15.5 58.124 14.8284 58.124 14H55.124C55.124 16.4853 57.1387 18.5 59.624 18.5V15.5ZM68.124 13C68.124 14.3807 67.0047 15.5 65.624 15.5V18.5C68.6616 18.5 71.124 16.0376 71.124 13H68.124ZM65.624 10.5C67.0047 10.5 68.124 11.6193 68.124 13H71.124C71.124 9.96243 68.6616 7.5 65.624 7.5V10.5ZM60.124 6C60.124 8.48528 62.1387 10.5 64.624 10.5V7.5C63.7956 7.5 63.124 6.82843 63.124 6H60.124ZM48.624 1.5C45.5865 1.5 43.124 3.96243 43.124 7H46.124C46.124 5.61929 47.2433 4.5 48.624 4.5V1.5ZM58.624 4.5C59.4524 4.5 60.124 5.17157 60.124 6H63.124C63.124 3.51472 61.1093 1.5 58.624 1.5V4.5Z" fill="black"/>
<path d="M21.6243 78.5H31.6243V75.5H21.6243V78.5ZM26.6243 83.5H21.6243V86.5H26.6243V83.5ZM32.6243 92.5H38.6243V89.5H32.6243V92.5ZM38.6243 81.5H37.6243V84.5H38.6243V81.5ZM19.5 95.5H14.5V98.5H19.5V95.5ZM14.5 106.5H19.5V103.5H14.5V106.5ZM14.5 103.5C13.1193 103.5 12 102.381 12 101H9C9 104.038 11.4624 106.5 14.5 106.5V103.5ZM22 101C22 102.381 20.8807 103.5 19.5 103.5V106.5C22.5376 106.5 25 104.038 25 101H22ZM14.5 95.5C11.4624 95.5 9 97.9624 9 101H12C12 99.6193 13.1193 98.5 14.5 98.5V95.5ZM19.5 98.5C20.8807 98.5 22 99.6193 22 101H25C25 97.9624 22.5376 95.5 19.5 95.5V98.5ZM37.6243 81.5C36.7959 81.5 36.1243 80.8284 36.1243 80H33.1243C33.1243 82.4853 35.139 84.5 37.6243 84.5V81.5ZM44.1243 87C44.1243 83.9624 41.6619 81.5 38.6243 81.5V84.5C40.005 84.5 41.1243 85.6193 41.1243 87H44.1243ZM38.6243 92.5C41.6619 92.5 44.1243 90.0376 44.1243 87H41.1243C41.1243 88.3807 40.005 89.5 38.6243 89.5V92.5ZM28.1243 88C28.1243 90.4853 30.139 92.5 32.6243 92.5V89.5C31.7959 89.5 31.1243 88.8284 31.1243 88H28.1243ZM26.6243 86.5C27.4527 86.5 28.1243 87.1716 28.1243 88H31.1243C31.1243 85.5147 29.1096 83.5 26.6243 83.5V86.5ZM16.1243 81C16.1243 84.0376 18.5867 86.5 21.6243 86.5V83.5C20.2436 83.5 19.1243 82.3807 19.1243 81H16.1243ZM31.6243 78.5C32.4527 78.5 33.1243 79.1716 33.1243 80H36.1243C36.1243 77.5147 34.1096 75.5 31.6243 75.5V78.5ZM21.6243 75.5C18.5867 75.5 16.1243 77.9624 16.1243 81H19.1243C19.1243 79.6193 20.2436 78.5 21.6243 78.5V75.5Z" fill="black"/>
</g>
<defs>
<clipPath id="clip0">
<rect width="120" height="120" fill="white"/>
</clipPath>
</defs>
</svg>
