<svg width="539" height="488" viewBox="0 0 539 488" fill="none" xmlns="http://www.w3.org/2000/svg">
<path d="M48.5191 180.351L137.031 189.934L128.574 204.866L116.052 203.542L96.4211 238.207L104.007 248.274L95.5494 263.206L41.8462 192.14L48.5191 180.351ZM86.9259 225.584L100.39 201.8L68.3619 198.428L67.5551 199.849L86.9259 225.584Z" fill="white"/>
<path d="M132.309 104.983C131.627 105.686 131.137 106.553 130.884 107.499C130.631 108.421 130.655 109.397 130.953 110.305C131.254 111.237 131.786 112.078 132.499 112.747L134.021 114.193L143.362 104.38L153.85 114.368L141.301 127.564L137.448 128.402L138.717 129.607C139.097 129.535 139.484 129.498 139.871 129.496C140.853 129.517 141.834 129.589 142.808 129.713C144.281 129.873 145.738 130.155 147.165 130.556C148.61 130.962 150.335 131.718 152.342 132.824C154.392 133.962 156.287 135.359 157.98 136.981L174.47 152.687L163.578 164.098L147.08 148.405C146.856 148.19 146.546 147.923 146.153 147.6C145.761 147.278 145.479 147.039 145.31 146.878C141.814 143.549 137.772 142.12 133.186 142.591C128.599 143.061 124.345 145.355 120.423 149.472L118.571 151.418L114.718 152.256L115.985 153.46C116.365 153.387 116.751 153.35 117.138 153.349C118.12 153.37 119.101 153.442 120.076 153.566C121.55 153.725 123.008 154.007 124.435 154.409C125.879 154.814 127.604 155.57 129.61 156.678C131.661 157.813 133.556 159.211 135.247 160.835L151.74 176.538L140.87 187.959L124.377 172.253C123 170.929 121.444 169.805 119.753 168.915C118.313 168.14 116.774 167.566 115.178 167.21C113.775 166.919 112.346 166.775 110.913 166.779C109.647 166.763 108.383 166.915 107.156 167.229C106.063 167.533 105.093 167.819 104.245 168.087C103.55 168.291 102.878 168.569 102.242 168.915L101.591 169.262L91.1016 159.281L100.443 149.467L95.8672 145.132C92.7174 142.118 91.0855 138.436 90.9716 134.086C90.8576 129.737 92.3073 125.984 95.3206 122.827L104.662 113.015L115.149 123L109.601 128.838C109.091 129.354 108.69 129.966 108.423 130.64C108.155 131.314 108.027 132.034 108.045 132.759C108.062 133.484 108.226 134.197 108.526 134.857C108.826 135.517 109.256 136.109 109.791 136.598L111.313 138.044L123.151 125.609L118.576 121.259C115.418 118.253 113.786 114.576 113.68 110.228C113.574 105.88 115.024 102.127 118.029 98.9687L127.37 89.1542L137.857 99.1421L132.309 104.983Z" fill="white"/>
<path d="M183.512 77.8561C189.956 73.9223 195.795 73.1404 201.029 75.5103C206.263 77.8802 211.413 83.219 216.482 91.5265L231.024 115.351L217.669 123.506L203.126 99.6816C200.53 95.4282 197.886 92.7789 195.194 91.7337C192.502 90.6884 189.927 90.9156 187.469 92.4153C185.667 93.4787 184.311 95.1579 183.65 97.1431C182.964 99.1581 182.765 101.036 183.052 102.776C183.298 104.404 183.857 105.968 184.7 107.381L200.834 133.797L187.368 142.005L141.854 67.4396L155.309 59.2243L171.739 86.1388L174.287 94.5684L175.782 93.6556C175.787 93.2811 175.764 92.9067 175.712 92.5357C175.655 92.0684 175.727 91.1364 175.922 89.7395C176.107 88.3989 176.43 87.081 176.885 85.8065C177.32 84.5814 178.105 83.2125 179.238 81.7C180.404 80.1574 181.855 78.8525 183.512 77.8561Z" fill="white"/>
<path d="M252.782 48.6175L267.741 43.6416L285.359 96.6277L273.06 100.722L267.71 93.5159L266.159 94.0121C266.084 94.2818 265.985 94.6648 265.863 95.1561C265.74 95.6474 265.424 96.553 264.919 97.8704C264.446 99.1247 263.858 100.332 263.163 101.478C262.4 102.678 261.48 103.771 260.428 104.727C259.329 105.775 258.013 106.568 256.575 107.051C252.882 108.283 249.591 108.743 246.701 108.432C243.853 108.142 241.158 107.001 238.966 105.158C236.703 103.288 234.692 100.818 232.934 97.75C231.176 94.6816 229.537 90.857 228.017 86.2761L219.206 59.7831L234.165 54.8072L243.344 82.4033C244.892 87.0597 246.767 90.0462 248.97 91.3628C251.172 92.6794 253.678 92.8713 256.485 91.9384C258.006 91.457 259.396 90.6331 260.548 89.5299C261.563 88.5777 262.331 87.3922 262.785 86.0762C263.18 84.8968 263.392 83.6638 263.414 82.4202C263.432 81.2912 263.262 80.167 262.91 79.0941L252.782 48.6175Z" fill="white"/>
<path d="M316.931 35.0048C324.738 34.0752 331.079 35.8085 335.955 40.2047C340.831 44.6009 343.822 51.4394 344.928 60.72C346.051 70.1547 344.754 77.5238 341.036 82.8272C337.318 88.1306 331.516 91.2528 323.63 92.1937C321.911 92.3709 320.174 92.2807 318.482 91.9264C316.597 91.5635 314.751 90.7053 312.943 89.3517C312.083 88.741 311.362 87.955 310.828 87.0454C310.294 86.1359 309.959 85.1234 309.844 84.0748L308.221 84.2699L306.487 93.422L293.616 94.9586L283.275 8.21074L298.928 6.34419L302.661 37.6541L301.457 46.3848L303.195 46.1753C303.312 45.8541 303.463 45.464 303.646 45.0048C304.038 44.1726 304.493 43.3715 305.006 42.6083C305.729 41.4659 306.568 40.4006 307.508 39.4292C308.451 38.4546 309.771 37.5321 311.469 36.6619C313.177 35.7888 315.026 35.2276 316.931 35.0048ZM317.172 78.3812C318.163 78.2566 319.141 78.0413 320.093 77.7381C321.295 77.3317 322.434 76.7603 323.479 76.0402C324.691 75.2511 325.784 74.2924 326.725 73.1934C327.654 72.1015 328.377 70.6227 328.892 68.757C329.424 66.7487 329.554 64.6549 329.275 62.5961C328.933 59.7365 328.198 57.3537 327.069 55.4478C325.941 53.542 324.567 52.2157 322.949 51.4691C321.498 50.7773 319.958 50.291 318.374 50.024C316.891 49.8034 315.385 49.7856 313.897 49.971C310.728 50.3483 308.456 51.6778 307.082 53.9594C305.708 56.241 305.167 58.6182 305.461 61.0909L307.26 76.1678C311.002 77.9918 314.303 78.7328 317.162 78.3908L317.172 78.3812Z" fill="white"/>
<path d="M128.624 335.482L144.128 333.35L155.268 414.337L139.533 416.505L99.9439 368.661L98.3233 368.885L105.511 421.184L89.8925 423.33L78.7622 342.336L94.3788 340.188L134.091 388.135L135.827 387.895L128.624 335.482Z" fill="white"/>
<path d="M169.779 338.711L155.523 345.441L149.342 332.346L163.598 325.602L169.779 338.711ZM196.849 396.062L182.593 402.805L158.753 352.319L173.009 345.576L196.849 396.062Z" fill="white"/>
<path d="M227.003 320.52L220.313 320.402L219.124 321.525C222.572 322.234 225.898 324.29 229.101 327.69C233.425 332.281 235.655 337.373 235.79 342.967C235.925 348.561 233.499 353.708 228.513 358.408C227.379 359.481 226.101 360.39 224.715 361.11C223.179 361.899 221.585 362.569 219.947 363.116C219.976 363.945 220.445 364.84 221.354 365.802C222.317 366.823 223.942 366.789 226.23 365.701C228.518 364.612 230.854 362.947 233.238 360.705C236.07 358.035 238.502 355.877 240.534 354.229C242.515 352.619 244.647 351.202 246.899 350C249.109 348.828 251.111 348.199 252.902 348.114C254.694 348.029 256.555 348.415 258.487 349.273C260.413 350.128 262.34 351.573 264.266 353.608C267.896 357.461 269.261 362.46 268.36 368.603C267.459 374.746 263.892 380.758 257.658 386.64C251.076 392.834 244.903 396.244 239.138 396.868C233.372 397.493 228.67 395.879 225.031 392.025C221.338 388.115 220.401 383.539 222.218 378.297C222.051 378.303 221.885 378.325 221.722 378.364C221.269 378.418 220.812 378.418 220.359 378.364C219.654 378.312 218.962 378.149 218.307 377.883C217.415 377.507 216.558 377.053 215.745 376.527C214.647 375.832 213.645 374.996 212.764 374.041C211.567 372.758 210.705 371.2 210.255 369.504C209.756 367.729 209.609 366.262 209.807 365.113L209.942 363.381C208.582 363.433 207.227 363.209 205.956 362.724C204.438 362.176 203.001 361.425 201.684 360.491C200.288 359.514 198.997 358.395 197.831 357.153C195.809 355.058 194.134 352.654 192.868 350.031C191.721 347.614 191.056 344.996 190.91 342.324C190.769 339.676 191.318 336.966 192.557 334.193C193.797 331.42 195.723 328.806 198.337 326.351C199.969 324.799 201.816 323.49 203.823 322.466L220.313 306.929L230.242 317.474L227.003 320.52ZM219.297 349.126C221.167 347.359 222.027 345.319 221.876 343.006C221.75 340.749 220.817 338.612 219.249 336.985C218.257 335.923 217.051 335.082 215.711 334.518C214.36 333.954 212.881 333.768 211.432 333.979C209.898 334.186 208.472 334.882 207.365 335.963C205.607 337.619 204.819 339.592 205 341.883C205.163 344.13 206.112 346.247 207.68 347.864C209.195 349.49 211.216 350.554 213.414 350.884C215.691 351.263 217.649 350.677 219.29 349.126H219.297ZM232.349 374.056C232.402 375.929 232.964 377.433 234.035 378.567C234.528 379.215 235.162 379.742 235.889 380.11C236.742 380.506 237.654 380.759 238.588 380.859C239.687 381.001 241.017 380.71 242.581 379.988C244.145 379.265 245.83 378.049 247.638 376.339C253.418 370.891 254.732 366.495 251.583 363.152C251.215 362.762 250.764 362.459 250.264 362.266C249.764 362.073 249.227 361.994 248.693 362.035C247.508 362.081 246.131 362.55 244.563 363.439C242.994 364.329 241.303 365.628 239.489 367.336L232.349 374.056Z" fill="white"/>
<path d="M235.785 272.065C238.918 265.196 243.315 261.276 248.977 260.304C254.639 259.333 261.897 260.867 270.751 264.907L296.142 276.489L289.64 290.73L264.259 279.148C259.727 277.078 256.051 276.365 253.232 277.007C250.413 277.649 248.406 279.28 247.212 281.901C246.315 283.791 246.132 285.941 246.697 287.956C247.257 290.009 248.14 291.676 249.345 292.956C250.461 294.165 251.8 295.147 253.29 295.846L281.453 308.688L274.912 323.035L195.445 286.785L201.985 272.44L230.673 285.523L237.51 291.082L238.232 289.487C238.027 289.173 237.798 288.876 237.548 288.596C237.24 288.245 236.775 287.434 236.154 286.164C235.555 284.951 235.08 283.681 234.738 282.373C234.417 281.112 234.3 279.54 234.386 277.655C234.49 275.719 234.965 273.821 235.785 272.065Z" fill="white"/>
<path d="M305.534 218.342L294.156 225.692L305.813 243.756C306.325 244.545 307.03 245.19 307.86 245.632C308.697 246.095 309.652 246.301 310.605 246.222C311.543 246.162 312.45 245.863 313.24 245.355L320.108 240.918L327.963 253.084L315.506 261.133C311.908 263.458 308.142 264.083 304.207 263.009C300.272 261.935 297.1 259.534 294.69 255.808L280.815 234.322L269.432 241.651L264.488 233.999C264.612 233.897 264.723 233.778 264.818 233.647C265.087 233.28 265.328 232.894 265.54 232.491C265.883 231.867 266.19 231.223 266.46 230.564C266.802 229.715 267.101 228.85 267.356 227.971C267.658 226.954 267.895 225.918 268.064 224.871C268.235 223.672 268.283 222.459 268.208 221.251C268.143 219.866 267.974 218.488 267.703 217.128C267.369 215.587 266.885 214.082 266.258 212.636C265.529 210.924 264.651 209.28 263.633 207.723L276.877 199.168C278.129 201.078 279.134 203.139 279.866 205.302C280.548 207.364 280.917 209.119 280.971 210.567C281.029 211.896 280.982 213.227 280.831 214.548C280.745 215.484 280.547 216.406 280.242 217.294L279.808 218.13L280.759 219.601L282.365 216.061L297.669 206.186L305.534 218.342Z" fill="white"/>
<path d="M139.192 224.341L116.861 263.1L133.453 272.664L149.197 245.34L161.743 252.566L146.002 279.89L175.14 296.684L167.268 310.347L96.4429 269.531L126.645 217.111L139.192 224.341Z" fill="white"/>
<path d="M177.239 199.18L187.888 187.552L229.052 225.259L220.287 234.818L212.099 231.128L210.994 232.332C211.061 232.607 211.16 232.99 211.292 233.476C211.425 233.963 211.589 234.921 211.788 236.309C211.984 237.632 212.057 238.97 212.005 240.307C211.923 241.726 211.651 243.128 211.196 244.476C210.747 245.923 209.988 247.254 208.971 248.377C206.341 251.248 203.688 253.255 201.012 254.399C198.382 255.532 195.472 255.848 192.661 255.304C189.771 254.769 186.813 253.59 183.787 251.766C180.761 249.942 177.47 247.4 173.914 244.141L153.341 225.273L163.988 213.645L185.432 233.286C189.049 236.6 192.141 238.297 194.708 238.377C197.275 238.458 199.556 237.407 201.552 235.225C202.647 234.068 203.463 232.674 203.936 231.152C204.358 229.83 204.453 228.425 204.21 227.058C203.981 225.835 203.567 224.654 202.982 223.556C202.45 222.555 201.754 221.649 200.923 220.878L177.239 199.18Z" fill="white"/>
<path d="M244.717 165.16L233.399 172.627L245.225 190.57C245.746 191.353 246.455 191.992 247.289 192.427C248.131 192.88 249.087 193.076 250.039 192.99C250.977 192.92 251.882 192.613 252.669 192.097L259.493 187.598L267.462 199.688L255.079 207.853C251.506 210.21 247.746 210.87 243.8 209.835C239.854 208.799 236.659 206.429 234.215 202.725L220.14 181.369L208.822 188.836L203.808 181.23C203.932 181.126 204.042 181.007 204.136 180.876C204.397 180.505 204.631 180.116 204.837 179.712C205.174 179.088 205.474 178.445 205.737 177.785C206.079 176.932 206.375 176.062 206.623 175.177C206.918 174.157 207.146 173.12 207.305 172.07C207.468 170.863 207.506 169.642 207.42 168.426C207.342 167.042 207.159 165.667 206.874 164.31C206.529 162.773 206.033 161.273 205.393 159.833C204.65 158.129 203.759 156.494 202.729 154.946L215.892 146.276C217.16 148.174 218.183 150.226 218.936 152.381C219.636 154.438 220.021 156.19 220.092 157.636C220.163 158.965 220.129 160.297 219.991 161.62C219.91 162.545 219.72 163.458 219.425 164.339L218.999 165.18L219.962 166.642L221.534 163.087L236.744 153.058L244.717 165.16Z" fill="white"/>
<path d="M286.871 132.873L301.801 127.829L319.662 180.717L307.381 184.864L301.999 177.682L300.448 178.205C300.376 178.477 300.279 178.86 300.159 179.351C300.038 179.842 299.725 180.75 299.227 182.068C298.759 183.323 298.176 184.533 297.486 185.68C296.728 186.883 295.814 187.98 294.767 188.941C293.675 189.992 292.366 190.791 290.933 191.283C287.241 192.53 283.95 193.005 281.06 192.706C278.21 192.429 275.51 191.3 273.311 189.467C271.033 187.607 269.011 185.147 267.245 182.087C265.479 179.027 263.821 175.211 262.272 170.64L253.345 144.19L268.275 139.147L277.576 166.702C279.144 171.358 281.033 174.337 283.242 175.637C285.451 176.938 287.956 177.119 290.758 176.181C292.275 175.699 293.661 174.875 294.81 173.773C295.822 172.818 296.585 171.63 297.033 170.312C297.422 169.131 297.629 167.897 297.647 166.654C297.663 165.519 297.49 164.39 297.134 163.313L286.871 132.873Z" fill="white"/>
<path d="M352.466 121.587L358.857 120.948L360.302 135.36L353.91 135.999C349.107 136.48 345.551 137.892 343.243 140.233C340.934 142.574 339.9 144.946 340.141 147.35L343.271 178.614L327.585 180.179L322.046 124.628L334.944 123.34L338.58 131.546L340.208 131.382C340.338 131.136 340.521 130.805 340.755 130.389C341.227 129.626 341.741 128.888 342.294 128.181C343.061 127.154 343.906 126.187 344.822 125.291C345.834 124.334 346.979 123.528 348.22 122.897C349.537 122.19 350.979 121.745 352.466 121.587Z" fill="white"/>
<path d="M386.687 177.624L370.926 177.287L372.13 121.471L387.891 121.808L386.687 177.624ZM388.046 114.219L372.284 113.882L372.595 99.4022L388.356 99.7394L388.046 114.219Z" fill="white"/>
<path d="M420.203 128.277C420.704 129.066 421.968 129.276 423.996 128.908C426.024 128.541 428.409 127.831 431.153 126.779C433.895 125.726 436.93 124.695 440.258 123.687C443.379 122.729 446.548 121.937 449.753 121.314C452.568 120.74 455.473 120.78 458.27 121.432C460.943 122.084 462.97 123.494 464.351 125.662C467.401 130.459 467.521 135.69 464.71 141.353C461.899 147.016 457.176 151.958 450.54 156.179C444.233 160.193 437.581 161.959 430.584 161.478C423.588 160.996 418.564 158.355 415.512 153.554L428.814 145.093C430.235 147.328 432.09 148.248 434.377 147.853C436.665 147.458 439.483 146.196 442.832 144.067C449.793 139.637 452.564 136.305 451.145 134.072C450.604 133.219 449.32 132.979 447.292 133.349C445.264 133.72 442.92 134.497 440.26 135.678C437.602 136.863 434.641 138.009 431.377 139.115C428.297 140.17 425.162 141.055 421.985 141.765C419.139 142.428 416.172 142.364 413.357 141.579C410.671 140.852 408.363 139.13 406.901 136.762C403.934 132.098 403.773 127.056 406.419 121.637C409.065 116.218 413.474 111.545 419.647 107.617C425.558 103.846 431.749 102.297 438.221 102.972C444.692 103.646 449.517 106.481 452.696 111.478L439.393 119.942C437.704 118.156 435.991 117.239 434.254 117.191C432.517 117.143 430.236 118.017 427.411 119.814C424.123 121.901 421.932 123.571 420.839 124.823C419.746 126.076 419.534 127.227 420.203 128.277Z" fill="white"/>
<path d="M506.435 56.0957C510.254 54.5382 513.684 55.4711 516.725 58.8943C519.765 62.3176 523.287 68.9328 527.289 78.74L537.846 104.58L523.251 110.544L512.21 83.5136C508.912 75.4405 505.894 71.9634 503.155 73.0826C501.643 73.6991 500.905 75.1354 500.942 77.3913C501.002 79.7447 501.501 82.0662 502.413 84.2361L514.603 114.077L500.008 120.04L488.966 93.0102C487.022 88.251 485.442 85.1538 484.225 83.7183C483.008 82.2829 481.679 81.8606 480.237 82.4515C479.373 82.8031 478.776 83.6565 478.445 85.0117C478.107 86.4471 478.025 87.9312 478.205 89.3951C478.359 90.8693 478.717 92.3152 479.267 93.6918L491.456 123.535L476.861 129.496L455.751 77.8152L467.751 72.9116L473.569 79.7444L475.19 79.082C475.185 78.7065 475.223 78.3316 475.303 77.9645C475.393 77.4652 475.628 76.5491 476.008 75.2165C476.365 73.94 476.854 72.7042 477.468 71.5291C478.151 70.2717 478.988 69.1036 479.958 68.0513C480.958 66.9055 482.209 66.0055 483.613 65.4213C485.06 64.7986 486.633 64.5231 488.205 64.6168C489.679 64.7292 490.899 65.0929 491.866 65.7079C492.775 66.2831 493.646 66.9179 494.471 67.6081C495.139 68.1504 495.734 68.777 496.241 69.4723L496.704 70.2936L498.324 69.6288C498.306 69.2718 498.306 68.9141 498.324 68.5571C498.406 67.6647 498.552 66.7793 498.76 65.9078C499.014 64.6731 499.412 63.4726 499.947 62.3312C500.602 61.0499 501.447 59.8756 502.454 58.8486C503.564 57.6514 504.923 56.7118 506.435 56.0957Z" fill="white"/>
<path d="M117.977 253.191L127.366 327.43L166.066 263.437L144.522 335.087L205.841 292.406L157.087 349.076L230.423 335.087L162.89 366.98L235.562 384.1L160.927 385.701L220.369 430.972L151.538 402.004L187.472 467.597L136.345 413.069L142.559 487.643L117.977 416.983L93.3948 487.643L99.6081 413.069L48.4813 467.597L84.4157 402.004L15.5843 430.972L75.0262 385.701L0.39183 384.1L73.0633 366.98L5.53085 335.087L78.8663 349.076L30.1128 292.406L91.4318 335.087L69.8872 263.437L108.587 327.43L117.977 253.191Z" fill="#ED534B"/>
<path d="M49.6729 174.006L138.185 183.59L129.728 198.522L117.206 197.197L97.5749 231.862L105.16 241.93L96.7032 256.862L43 185.796L49.6729 174.006ZM88.0798 219.24L101.543 195.456L69.5157 192.084L68.7089 193.505L88.0798 219.24Z" fill="black"/>
<path d="M133.463 98.6384C132.781 99.3423 132.29 100.209 132.037 101.155C131.784 102.077 131.809 103.053 132.107 103.961C132.407 104.893 132.939 105.733 133.653 106.403L135.175 107.848L144.516 98.0363L155.003 108.024L142.455 121.22L138.602 122.058L139.871 123.263C140.251 123.191 140.637 123.153 141.024 123.152C142.007 123.172 142.987 123.245 143.962 123.368C145.435 123.529 146.892 123.811 148.319 124.211C149.763 124.618 151.489 125.374 153.496 126.48C155.546 127.618 157.441 129.015 159.133 130.637L175.624 146.343L164.732 157.754L148.234 142.061C148.01 141.846 147.7 141.579 147.307 141.256C146.915 140.933 146.633 140.695 146.464 140.534C142.968 137.205 138.926 135.776 134.339 136.247C129.753 136.717 125.499 139.011 121.577 143.127L119.725 145.074L115.872 145.912L117.138 147.116C117.519 147.043 117.905 147.006 118.292 147.005C119.274 147.026 120.255 147.098 121.23 147.222C122.704 147.381 124.162 147.663 125.588 148.065C127.033 148.469 128.758 149.226 130.763 150.334C132.815 151.469 134.71 152.866 136.401 154.491L152.894 170.194L142.024 181.615L125.531 165.909C124.154 164.585 122.597 163.461 120.907 162.571C119.467 161.796 117.928 161.222 116.332 160.866C114.929 160.575 113.5 160.431 112.067 160.435C110.8 160.419 109.537 160.571 108.31 160.885C107.217 161.189 106.247 161.474 105.399 161.742C104.703 161.947 104.032 162.224 103.395 162.571L102.745 162.918L92.2554 152.937L101.596 143.123L97.0211 138.787C93.8712 135.774 92.2394 132.092 92.1254 127.742C92.0114 123.393 93.4611 119.639 96.4744 116.483L105.815 106.671L116.303 116.656L110.754 122.494C110.245 123.009 109.844 123.622 109.577 124.296C109.309 124.969 109.181 125.69 109.198 126.415C109.216 127.139 109.38 127.853 109.68 128.513C109.98 129.172 110.41 129.765 110.945 130.254L112.467 131.699L124.305 119.264L119.729 114.915C116.572 111.909 114.94 108.232 114.834 103.884C114.728 99.536 116.178 95.7828 119.183 92.6245L128.524 82.81L139.011 92.7979L133.463 98.6384Z" fill="black"/>
<path d="M184.666 71.512C191.11 67.5781 196.949 66.7962 202.183 69.1661C207.416 71.536 212.567 76.8748 217.636 85.1824L232.178 109.007L218.823 117.162L204.28 93.3374C201.684 89.0841 199.04 86.4348 196.348 85.3895C193.656 84.3442 191.081 84.5714 188.623 86.0711C186.821 87.1345 185.464 88.8137 184.803 90.7989C184.118 92.814 183.919 94.6918 184.206 96.4323C184.452 98.0595 185.011 99.6235 185.853 101.037L201.988 127.453L188.522 135.661L143.008 61.0954L156.462 52.8801L172.893 79.7946L175.441 88.2242L176.936 87.3114C176.941 86.9369 176.918 86.5625 176.866 86.1915C176.808 85.7243 176.881 84.7922 177.076 83.3953C177.261 82.0547 177.584 80.7368 178.039 79.4623C178.474 78.2372 179.258 76.8684 180.392 75.3559C181.558 73.8132 183.009 72.5084 184.666 71.512Z" fill="black"/>
<path d="M253.936 42.2733L268.895 37.2974L286.512 90.2835L274.214 94.3779L268.863 87.1718L267.313 87.6679C267.238 87.9376 267.139 88.3206 267.016 88.8119C266.894 89.3032 266.578 90.2088 266.072 91.5262C265.6 92.7805 265.012 93.9882 264.317 95.1341C263.554 96.3342 262.634 97.4269 261.581 98.3831C260.483 99.4306 259.167 100.224 257.728 100.707C254.036 101.939 250.745 102.399 247.855 102.087C245.007 101.798 242.312 100.657 240.12 98.8142C237.857 96.9437 235.846 94.4742 234.088 91.4058C232.33 88.3374 230.691 84.5128 229.171 79.9319L220.359 53.4389L235.319 48.463L244.498 76.0591C246.046 80.7155 247.921 83.702 250.124 85.0186C252.326 86.3352 254.831 86.5271 257.639 85.5942C259.16 85.1129 260.55 84.2889 261.702 83.1858C262.717 82.2335 263.485 81.048 263.939 79.732C264.334 78.5526 264.546 77.3196 264.567 76.076C264.586 74.947 264.416 73.8228 264.064 72.7499L253.936 42.2733Z" fill="black"/>
<path d="M318.085 28.6607C325.892 27.731 332.233 29.4643 337.109 33.8605C341.985 38.2568 344.975 45.0952 346.082 54.3758C347.205 63.8105 345.908 71.1796 342.19 76.483C338.472 81.7864 332.67 84.9086 324.784 85.8495C323.065 86.0267 321.328 85.9365 319.636 85.5822C317.751 85.2193 315.905 84.3611 314.097 83.0075C313.237 82.3968 312.516 81.6108 311.982 80.7012C311.448 79.7917 311.112 78.7792 310.998 77.7306L309.375 77.9257L307.641 87.0778L294.77 88.6144L284.429 1.86656L300.082 0L303.814 31.31L302.61 40.0406L304.349 39.8311C304.466 39.51 304.616 39.1198 304.799 38.6606C305.192 37.8285 305.646 37.0273 306.16 36.2642C306.883 35.1217 307.722 34.0564 308.662 33.085C309.604 32.1104 310.925 31.1879 312.623 30.3177C314.331 29.4446 316.18 28.8835 318.085 28.6607ZM318.326 72.037C319.317 71.9124 320.295 71.6971 321.247 71.3939C322.448 70.9875 323.588 70.4161 324.633 69.696C325.845 68.9069 326.938 67.9482 327.879 66.8492C328.808 65.7573 329.531 64.2786 330.046 62.4128C330.578 60.4045 330.708 58.3107 330.429 56.252C330.087 53.3923 329.352 51.0096 328.223 49.1037C327.094 47.1978 325.721 45.8715 324.103 45.1249C322.652 44.4331 321.112 43.9468 319.527 43.6798C318.044 43.4592 316.538 43.4414 315.051 43.6268C311.882 44.0041 309.61 45.3336 308.236 47.6152C306.862 49.8968 306.321 52.274 306.615 54.7467L308.414 69.8236C312.156 71.6476 315.457 72.3886 318.316 72.0466L318.326 72.037Z" fill="black"/>
<path d="M129.778 329.138L145.282 327.006L156.422 407.993L140.687 410.16L101.098 362.316L99.4771 362.54L106.665 414.84L91.0463 416.986L79.916 335.992L95.5326 333.844L135.245 381.791L136.981 381.55L129.778 329.138Z" fill="black"/>
<path d="M170.933 332.367L156.677 339.096L150.496 326.002L164.752 319.258L170.933 332.367ZM198.003 389.717L183.747 396.461L159.906 345.975L174.162 339.231L198.003 389.717Z" fill="black"/>
<path d="M228.157 314.176L221.467 314.058L220.278 315.18C223.726 315.89 227.052 317.945 230.254 321.346C234.579 325.937 236.809 331.029 236.944 336.623C237.079 342.217 234.653 347.364 229.667 352.064C228.533 353.136 227.254 354.046 225.869 354.766C224.333 355.555 222.739 356.225 221.101 356.772C221.13 357.601 221.599 358.496 222.507 359.458C223.471 360.479 225.096 360.445 227.384 359.356C229.672 358.268 232.007 356.603 234.391 354.361C237.223 351.691 239.656 349.532 241.688 347.885C243.669 346.274 245.8 344.858 248.053 343.656C250.263 342.484 252.264 341.855 254.056 341.77C255.848 341.685 257.709 342.071 259.64 342.928C261.567 343.784 263.493 345.229 265.42 347.264C269.05 351.117 270.414 356.115 269.514 362.259C268.613 368.402 265.046 374.414 258.812 380.296C252.23 386.49 246.056 389.9 240.291 390.524C234.526 391.149 229.824 389.534 226.185 385.681C222.492 381.771 221.555 377.195 223.372 371.953C223.205 371.958 223.039 371.981 222.876 372.02C222.423 372.074 221.966 372.074 221.513 372.02C220.808 371.968 220.116 371.805 219.461 371.538C218.569 371.163 217.712 370.709 216.899 370.182C215.801 369.488 214.798 368.652 213.918 367.697C212.721 366.414 211.859 364.855 211.408 363.159C210.91 361.384 210.763 359.918 210.961 358.769L211.095 357.037C209.736 357.089 208.381 356.865 207.11 356.38C205.592 355.832 204.155 355.081 202.838 354.147C201.442 353.17 200.151 352.051 198.985 350.809C196.963 348.714 195.288 346.31 194.022 343.687C192.875 341.269 192.21 338.652 192.064 335.98C191.923 333.332 192.472 330.622 193.711 327.849C194.951 325.076 196.877 322.462 199.491 320.007C201.122 318.454 202.97 317.146 204.976 316.122L221.467 300.585L231.396 311.129L228.157 314.176ZM220.451 342.781C222.321 341.015 223.181 338.975 223.03 336.662C222.903 334.405 221.971 332.268 220.403 330.64C219.41 329.578 218.205 328.738 216.865 328.174C215.514 327.61 214.035 327.424 212.586 327.635C211.052 327.842 209.626 328.538 208.519 329.619C206.761 331.275 205.973 333.248 206.154 335.539C206.317 337.786 207.266 339.903 208.834 341.519C210.349 343.145 212.37 344.21 214.568 344.54C216.844 344.919 218.803 344.332 220.444 342.781H220.451ZM233.503 367.711C233.556 369.585 234.118 371.089 235.189 372.222C235.682 372.87 236.316 373.398 237.043 373.766C237.896 374.162 238.808 374.415 239.742 374.515C240.84 374.657 242.171 374.366 243.735 373.643C245.299 372.921 246.984 371.705 248.792 369.995C254.571 364.547 255.886 360.151 252.736 356.808C252.369 356.418 251.918 356.115 251.418 355.922C250.918 355.728 250.381 355.649 249.847 355.691C248.662 355.737 247.285 356.205 245.717 357.095C244.148 357.984 242.457 359.283 240.643 360.992L233.503 367.711Z" fill="black"/>
<path d="M236.939 265.72C240.071 258.851 244.469 254.931 250.131 253.96C255.793 252.988 263.051 254.523 271.905 258.562L297.296 270.145L290.794 284.386L265.413 272.804C260.881 270.734 257.205 270.02 254.386 270.663C251.567 271.305 249.56 272.936 248.366 275.557C247.469 277.447 247.286 279.597 247.85 281.611C248.411 283.665 249.294 285.332 250.499 286.611C251.615 287.821 252.954 288.803 254.444 289.502L282.607 302.343L276.066 316.691L196.599 280.441L203.139 266.096L231.827 279.179L238.663 284.738L239.386 283.143C239.181 282.829 238.952 282.531 238.702 282.252C238.394 281.9 237.929 281.09 237.308 279.82C236.708 278.607 236.234 277.337 235.892 276.029C235.571 274.768 235.453 273.195 235.54 271.31C235.644 269.375 236.119 267.477 236.939 265.72Z" fill="black"/>
<path d="M306.688 211.997L295.309 219.348L306.967 237.411C307.479 238.2 308.183 238.846 309.014 239.288C309.851 239.751 310.806 239.956 311.759 239.878C312.697 239.818 313.604 239.519 314.394 239.011L321.262 234.574L329.117 246.739L316.66 254.788C313.062 257.113 309.296 257.739 305.361 256.665C301.426 255.59 298.254 253.19 295.844 249.463L281.968 227.977L270.585 235.306L265.641 227.655C265.766 227.552 265.877 227.434 265.971 227.303C266.24 226.936 266.482 226.55 266.694 226.147C267.036 225.523 267.344 224.879 267.614 224.22C267.956 223.371 268.255 222.506 268.51 221.626C268.812 220.609 269.048 219.574 269.218 218.527C269.389 217.328 269.437 216.115 269.362 214.907C269.297 213.522 269.128 212.143 268.856 210.783C268.523 209.242 268.039 207.738 267.411 206.292C266.683 204.58 265.805 202.936 264.787 201.378L278.031 192.824C279.283 194.734 280.287 196.795 281.02 198.958C281.702 201.02 282.07 202.775 282.125 204.223C282.183 205.552 282.136 206.883 281.985 208.204C281.899 209.14 281.701 210.061 281.395 210.95L280.962 211.785L281.913 213.257L283.519 209.717L298.823 199.842L306.688 211.997Z" fill="black"/>
<path d="M140.345 217.997L118.015 256.756L134.607 266.32L150.351 238.996L162.897 246.222L147.155 273.545L176.294 290.34L168.421 304.003L97.5967 263.187L127.799 210.767L140.345 217.997Z" fill="black"/>
<path d="M178.393 192.836L189.042 181.208L230.206 218.914L221.44 228.474L213.253 224.784L212.148 225.988C212.215 226.263 212.314 226.646 212.446 227.132C212.579 227.619 212.742 228.577 212.942 229.964C213.138 231.288 213.211 232.626 213.159 233.962C213.077 235.382 212.805 236.784 212.35 238.132C211.901 239.578 211.141 240.91 210.125 242.033C207.495 244.904 204.842 246.911 202.166 248.054C199.536 249.188 196.626 249.504 193.815 248.96C190.925 248.425 187.967 247.246 184.941 245.422C181.915 243.598 178.624 241.056 175.068 237.797L154.495 218.929L165.141 207.301L186.586 226.942C190.203 230.256 193.295 231.953 195.862 232.033C198.429 232.114 200.71 231.063 202.705 228.881C203.801 227.723 204.617 226.33 205.089 224.808C205.512 223.486 205.606 222.08 205.364 220.714C205.135 219.491 204.721 218.31 204.136 217.212C203.604 216.21 202.908 215.305 202.077 214.533L178.393 192.836Z" fill="black"/>
<path d="M245.871 158.816L234.553 166.282L246.379 184.225C246.899 185.009 247.609 185.647 248.443 186.082C249.284 186.536 250.241 186.732 251.193 186.646C252.131 186.576 253.036 186.269 253.823 185.752L260.647 181.253L268.616 193.344L256.233 201.508C252.659 203.866 248.9 204.526 244.954 203.491C241.007 202.455 237.813 200.085 235.369 196.381L221.294 175.025L209.976 182.491L204.962 174.885C205.086 174.782 205.196 174.663 205.29 174.531C205.551 174.161 205.785 173.772 205.99 173.368C206.328 172.744 206.628 172.1 206.891 171.441C207.232 170.588 207.528 169.718 207.777 168.833C208.072 167.813 208.3 166.775 208.459 165.726C208.621 164.518 208.66 163.297 208.574 162.082C208.496 160.698 208.313 159.322 208.028 157.966C207.683 156.428 207.187 154.929 206.547 153.489C205.804 151.785 204.912 150.15 203.883 148.602L217.046 139.931C218.314 141.83 219.337 143.881 220.09 146.037C220.79 148.094 221.175 149.845 221.246 151.292C221.316 152.621 221.283 153.953 221.145 155.276C221.064 156.201 220.874 157.114 220.579 157.995L220.152 158.835L221.116 160.297L222.688 156.742L237.898 146.714L245.871 158.816Z" fill="black"/>
<path d="M288.025 126.528L302.955 121.485L320.816 174.372L308.535 178.52L303.152 171.338L301.602 171.86C301.529 172.133 301.433 172.515 301.313 173.007C301.192 173.498 300.879 174.406 300.381 175.724C299.913 176.979 299.33 178.188 298.64 179.336C297.882 180.539 296.968 181.636 295.921 182.597C294.829 183.648 293.52 184.447 292.087 184.938C288.395 186.186 285.104 186.66 282.214 186.362C279.364 186.085 276.664 184.956 274.465 183.122C272.187 181.263 270.165 178.803 268.399 175.743C266.633 172.682 264.975 168.867 263.426 164.295L254.499 137.846L269.429 132.802L278.729 160.358C280.298 165.014 282.187 167.992 284.396 169.293C286.605 170.594 289.11 170.775 291.911 169.837C293.429 169.355 294.815 168.531 295.964 167.429C296.976 166.474 297.739 165.285 298.187 163.968C298.576 162.787 298.783 161.553 298.801 160.309C298.817 159.175 298.644 158.046 298.288 156.969L288.025 126.528Z" fill="black"/>
<path d="M353.619 115.242L360.011 114.604L361.455 129.016L355.064 129.655C350.261 130.136 346.705 131.548 344.396 133.889C342.088 136.23 341.054 138.602 341.295 141.006L344.425 172.27L328.739 173.835L323.2 118.284L336.098 116.996L339.734 125.201L341.362 125.038C341.492 124.792 341.674 124.461 341.909 124.045C342.381 123.281 342.894 122.544 343.448 121.837C344.215 120.81 345.06 119.843 345.976 118.947C346.988 117.99 348.133 117.184 349.374 116.553C350.691 115.845 352.133 115.4 353.619 115.242Z" fill="black"/>
<path d="M387.841 171.28L372.08 170.943L373.284 115.127L389.045 115.464L387.841 171.28ZM389.199 107.875L373.438 107.538L373.749 93.058L389.51 93.3952L389.199 107.875Z" fill="black"/>
<path d="M421.357 121.933C421.858 122.721 423.122 122.932 425.15 122.564C427.177 122.196 429.563 121.487 432.307 120.435C435.049 119.382 438.084 118.351 441.412 117.343C444.533 116.385 447.702 115.593 450.907 114.97C453.721 114.396 456.627 114.436 459.424 115.088C462.097 115.74 464.124 117.15 465.505 119.317C468.555 124.115 468.675 129.345 465.864 135.009C463.053 140.672 458.329 145.614 451.694 149.835C445.387 153.849 438.735 155.615 431.738 155.134C424.742 154.652 419.718 152.011 416.666 147.21L429.968 138.749C431.389 140.984 433.243 141.904 435.531 141.509C437.819 141.114 440.637 139.852 443.986 137.723C450.947 133.293 453.718 129.961 452.299 127.728C451.758 126.875 450.473 126.634 448.446 127.005C446.418 127.376 444.074 128.152 441.414 129.334C438.755 130.519 435.794 131.665 432.531 132.771C429.451 133.826 426.316 134.71 423.139 135.42C420.293 136.083 417.326 136.02 414.511 135.235C411.825 134.508 409.517 132.786 408.055 130.418C405.088 125.754 404.927 120.712 407.573 115.293C410.219 109.874 414.628 105.201 420.801 101.273C426.712 97.5016 432.903 95.953 439.374 96.6274C445.846 97.3017 450.671 100.137 453.85 105.134L440.547 113.597C438.858 111.812 437.145 110.895 435.408 110.847C433.671 110.799 431.39 111.673 428.564 113.47C425.277 115.557 423.086 117.227 421.993 118.479C420.899 119.732 420.687 120.883 421.357 121.933Z" fill="black"/>
<path d="M507.589 49.7515C511.408 48.1941 514.838 49.1269 517.879 52.5502C520.919 55.9734 524.441 62.5886 528.443 72.3959L539 98.2362L524.404 104.2L513.363 77.1694C510.066 69.0963 507.048 65.6193 504.309 66.7384C502.797 67.3549 502.059 68.7912 502.096 71.0471C502.155 73.4005 502.654 75.722 503.567 77.892L515.757 107.733L501.161 113.696L490.12 86.666C488.176 81.9069 486.596 78.8096 485.379 77.3741C484.162 75.9387 482.833 75.5164 481.391 76.1073C480.527 76.4589 479.93 77.3123 479.599 78.6675C479.26 80.1029 479.179 81.587 479.358 83.0509C479.513 84.5251 479.871 85.971 480.42 87.3476L492.61 117.191L478.015 123.152L456.905 71.471L468.905 66.5674L474.723 73.4002L476.344 72.7379C476.339 72.3623 476.377 71.9874 476.457 71.6203C476.547 71.121 476.782 70.205 477.162 68.8723C477.519 67.5958 478.008 66.36 478.622 65.1849C479.305 63.9275 480.142 62.7594 481.112 61.7071C482.112 60.5613 483.363 59.6613 484.767 59.0771C486.214 58.4544 487.787 58.1789 489.359 58.2727C490.833 58.385 492.053 58.7487 493.02 59.3637C493.929 59.9389 494.8 60.5737 495.625 61.264C496.293 61.8062 496.888 62.4328 497.395 63.1281L497.858 63.9494L499.478 63.2847C499.46 62.9276 499.46 62.5699 499.478 62.2129C499.56 61.3205 499.705 60.4351 499.914 59.5636C500.168 58.3289 500.566 57.1284 501.101 55.987C501.755 54.7057 502.601 53.5314 503.608 52.5044C504.718 51.3072 506.077 50.3676 507.589 49.7515Z" fill="black"/>
</svg>
