<svg width="42" height="58" viewBox="0 0 42 58" fill="none" xmlns="http://www.w3.org/2000/svg">
<path d="M39.38 20.69C39.38 31 20.69 54 20.69 54C20.69 54 2 31 2 20.69C2 15.7331 3.96912 10.9792 7.47417 7.47418C10.9792 3.96913 15.7331 2 20.69 2C25.6469 2 30.4008 3.96913 33.9058 7.47418C37.4109 10.9792 39.38 15.7331 39.38 20.69V20.69Z" stroke="#1D1D1B" stroke-width="4" stroke-miterlimit="10"/>
<path d="M21.1098 7.91L22.0498 15.34L25.9198 8.94L23.7698 16.11L29.8998 11.84L25.0198 17.51L32.3598 16.11L25.5998 19.3L32.8798 21L25.4098 21.16L31.4098 25.69L24.5198 22.79L28.1098 29.36L22.9998 23.9L23.6198 31.36L21.1598 24.29L18.6998 31.36L19.3198 23.9L14.1898 29.38L17.7898 22.81L10.8998 25.71L16.8498 21.18L9.33984 21L16.6098 19.28L9.85984 16.09L17.1898 17.49L12.3198 11.82L18.4498 16.09L16.2998 8.92L20.1698 15.32L21.1098 7.91Z" fill="#FFA800"/>
</svg>
