<svg width="41" height="56" viewBox="0 0 41 56" fill="none" xmlns="http://www.w3.org/2000/svg">
<path fill-rule="evenodd" clip-rule="evenodd" d="M20.6853 3.5C16.2471 3.5 11.9908 5.26306 8.85249 8.40133C5.71423 11.5396 3.95117 15.796 3.95117 20.2341C3.95117 22.3859 4.95483 25.4122 6.64942 28.8998C8.31793 32.3337 10.5571 36.0195 12.818 39.4253C15.0753 42.8258 17.3354 45.9191 19.0327 48.1638C19.6753 49.0137 20.2365 49.7409 20.6853 50.316C21.1341 49.7409 21.6953 49.0137 22.3379 48.1638C24.0352 45.9191 26.2953 42.8258 28.5527 39.4253C30.8135 36.0195 33.0527 32.3337 34.7212 28.8998C36.4158 25.4122 37.4195 22.3859 37.4195 20.2341C37.4195 15.796 35.6564 11.5396 32.5181 8.40133C29.3799 5.26306 25.1235 3.5 20.6853 3.5ZM20.6853 52.7317C19.5212 53.6777 19.521 53.6775 19.5208 53.6772L19.5064 53.6593L19.4656 53.6089C19.4299 53.5647 19.3776 53.4997 19.3096 53.4148C19.1737 53.245 18.9753 52.9958 18.7233 52.6758C18.2195 52.036 17.5011 51.1123 16.6398 49.9731C14.9181 47.6962 12.6197 44.551 10.3185 41.0845C8.02084 37.6232 5.70149 33.8133 3.95109 30.2109C2.22678 26.6622 0.951172 23.1117 0.951172 20.2341C0.951172 15.0003 3.0303 9.98088 6.73117 6.28001C10.432 2.57914 15.4515 0.5 20.6853 0.5C25.9191 0.5 30.9386 2.57914 34.6395 6.28001C38.3403 9.98088 40.4195 15.0003 40.4195 20.2341C40.4195 23.1117 39.1438 26.6622 37.4195 30.2109C35.6691 33.8133 33.3498 37.6232 31.0521 41.0845C28.7509 44.551 26.4525 47.6962 24.7309 49.9731C23.8695 51.1123 23.1512 52.036 22.6473 52.6758C22.3954 52.9958 22.197 53.245 22.061 53.4148C21.9931 53.4997 21.9407 53.5647 21.9051 53.6089L21.8643 53.6593L21.8536 53.6726L21.8498 53.6772C21.8496 53.6775 21.8494 53.6777 20.6853 52.7317ZM20.6853 52.7317L21.8498 53.6772L20.6853 55.1102L19.5208 53.6772L20.6853 52.7317Z" fill="#FF57C6"/>
<path d="M21.0952 7.76562L22.0123 15.0144L25.7879 8.7705L23.6904 15.7656L29.6708 11.5998L24.9099 17.1315L32.0708 15.7656L25.4757 18.8778L32.5782 20.5364L25.2904 20.6925L31.144 25.112L24.4221 22.2827L27.9245 28.6925L22.9391 23.3656L23.544 30.6437L21.144 23.7461L18.744 30.6437L19.3489 23.3656L14.344 28.712L17.8562 22.3022L11.1343 25.1315L16.9391 20.712L9.6123 20.5364L16.705 18.8583L10.1196 15.7461L17.2708 17.112L12.5196 11.5803L18.5001 15.7461L16.4025 8.75099L20.1782 14.9949L21.0952 7.76562Z" fill="#FFA800"/>
</svg>
