<svg width="54" height="78" viewBox="0 0 54 78" fill="none" xmlns="http://www.w3.org/2000/svg">
<path d="M27.0127 14.1001C19.5688 14.1001 13.5127 20.1562 13.5127 27.6001C13.5127 34.9964 19.4702 41.1001 27.0127 41.1001C34.6481 41.1001 40.5127 34.9151 40.5127 27.6001C40.5127 20.1562 34.4566 14.1001 27.0127 14.1001ZM27.0127 36.6301C22.0241 36.6301 17.9827 32.5751 17.9827 27.6001C17.9827 22.6375 22.0501 18.5701 27.0127 18.5701C31.9753 18.5701 36.0277 22.6375 36.0277 27.6001C36.0277 32.5025 32.0803 36.6301 27.0127 36.6301Z" fill="#10E6D9"/>
<path d="M27 0.600098C12.1122 0.600098 0 12.7123 0 27.6001C0 32.6302 1.39335 37.5391 4.03035 41.7979L25.4631 76.3365C25.8737 76.9981 26.597 77.4001 27.3748 77.4001C27.3808 77.4001 27.3867 77.4001 27.3927 77.4001C28.1774 77.394 28.9022 76.9795 29.3052 76.3063L50.1917 41.4331C52.6832 37.2643 54 32.481 54 27.6001C54 12.7123 41.8878 0.600098 27 0.600098ZM46.3299 39.1228L27.3408 70.828L7.85505 39.427C5.6601 35.8822 4.47 31.7926 4.47 27.6001C4.47 15.1936 14.5935 5.0701 27 5.0701C39.4065 5.0701 49.515 15.1936 49.515 27.6001C49.515 31.6683 48.4034 35.6533 46.3299 39.1228Z" fill="#10E6D9"/>
</svg>
