<svg width="142" height="47" viewBox="0 0 142 47" fill="none" xmlns="http://www.w3.org/2000/svg">
<path fill-rule="evenodd" clip-rule="evenodd" d="M18.7423 23.0818L32.511 15.1678V12.0156L16.002 21.4722V24.6244L32.511 34.148L40.7321 29.3862V26.234L32.511 30.9958L18.7423 23.0818ZM37.9917 21.4722L29.7706 26.234L32.511 27.8436L37.9917 24.6914V21.4722ZM35.2514 16.7774L24.2899 23.0818L27.0303 24.6914L35.2514 19.9296V16.7774Z" fill="#FF8A00"/>
<path d="M58.2328 25.7381V27.7607H49.6802V16.7993H58.0354V18.822H52.246V21.1708H57.3776V23.1282H52.246V25.6729H58.2328V25.7381Z" fill="black"/>
<path d="M72.3758 16.7993L67.5732 27.7607H65.0732L60.2705 16.7993H63.0337L66.389 24.6289L69.81 16.7993H72.3758Z" fill="black"/>
<path d="M83.4242 25.7381V27.7607H74.8716V16.7993H83.2269V18.822H77.4374V21.1708H82.569V23.1282H77.4374V25.6729H83.4242V25.7381Z" fill="black"/>
<path d="M94.0829 27.7607L91.9777 24.6942H91.8461H89.6092V27.7607H87.0435V16.7993H91.8461C92.8329 16.7993 93.6882 16.9298 94.4119 17.256C95.1356 17.5823 95.6619 18.039 96.0566 18.6262C96.4514 19.2134 96.6487 19.9312 96.6487 20.7141C96.6487 21.4971 96.4514 22.2148 96.0566 22.802C95.6619 23.3892 95.0698 23.846 94.3461 24.1722L96.8461 27.6955H94.0829V27.7607ZM93.425 19.3439C93.0303 19.0177 92.4382 18.822 91.6487 18.822H89.5435V22.6715H91.6487C92.4382 22.6715 93.0303 22.4758 93.425 22.1495C93.8198 21.8233 94.0172 21.3666 94.0172 20.7141C94.0172 20.1921 93.8198 19.6702 93.425 19.3439Z" fill="black"/>
<path d="M107.496 25.4119H102.364L101.378 27.7607H98.7461L103.68 16.7993H106.18L111.114 27.7607H108.417L107.496 25.4119ZM106.641 23.5197L104.864 19.3439L103.088 23.5197H106.641Z" fill="black"/>
<path d="M113.881 16.7993H118.881C120.065 16.7993 121.118 16.9951 122.039 17.4518C122.96 17.9085 123.683 18.561 124.21 19.344C124.736 20.1923 124.999 21.1057 124.999 22.215C124.999 23.3242 124.736 24.3029 124.21 25.0859C123.683 25.9341 122.96 26.5214 122.039 26.9781C121.118 27.4349 120.065 27.6306 118.881 27.6306H113.881V16.7993ZM118.749 25.6731C119.868 25.6731 120.723 25.3469 121.381 24.7597C122.039 24.1724 122.368 23.3242 122.368 22.2802C122.368 21.2362 122.039 20.388 121.381 19.8008C120.723 19.2135 119.868 18.8873 118.749 18.8873H116.381V25.6731H118.749Z" fill="black"/>
</svg>
