<svg width="142" height="47" viewBox="0 0 142 47" fill="none" xmlns="http://www.w3.org/2000/svg">
<g clip-path="url(#clip0)">
<path d="M21.2673 19.5381C20.8596 19.1183 20.3669 18.8058 19.8278 18.6253C19.1536 18.3887 18.4474 18.2744 17.7382 18.2871H7.78732C7.64513 18.2871 7.50878 18.3478 7.40824 18.4557C7.3077 18.5637 7.25122 18.7102 7.25122 18.8629V28.3206C7.25122 28.5149 7.28686 28.7074 7.35611 28.887C7.42535 29.0666 7.52684 29.2297 7.65479 29.3672C7.78274 29.5046 7.93464 29.6136 8.10181 29.688C8.26898 29.7624 8.44816 29.8007 8.6291 29.8007C8.81005 29.8007 8.98922 29.7624 9.15639 29.688C9.32357 29.6136 9.47546 29.5046 9.60341 29.3672C9.73136 29.2297 9.83285 29.0666 9.9021 28.887C9.97134 28.7074 10.007 28.5149 10.007 28.3206V26.1151H17.7393C18.4484 26.1276 19.1545 26.0137 19.8289 25.7782C20.3677 25.5969 20.8603 25.2845 21.2684 24.8654C21.6055 24.5066 21.8764 24.0826 22.0669 23.6157C22.2438 23.1683 22.3349 22.6872 22.3349 22.2011C22.3349 21.715 22.2438 21.234 22.0669 20.7866C21.8761 20.3199 21.6048 19.8962 21.2673 19.5381ZM19.2005 23.1476C18.9495 23.3183 18.4621 23.4033 17.7382 23.4025H10.0058V21.1333H17.7382C18.4834 21.1333 18.9758 21.2015 19.2153 21.3379C19.4548 21.4752 19.5757 21.7631 19.5757 22.1956C19.5757 22.6612 19.4506 22.9785 19.2005 23.1476Z" fill="black"/>
<path d="M36.2413 26.954H26.6942V19.7667C26.6942 19.3742 26.5491 18.9977 26.2907 18.7201C26.0323 18.4426 25.6818 18.2866 25.3164 18.2866C25.1353 18.2866 24.956 18.3249 24.7888 18.3994C24.6216 18.4739 24.4696 18.583 24.3416 18.7206C24.2137 18.8581 24.1122 19.0214 24.043 19.2012C23.9739 19.3809 23.9383 19.5735 23.9385 19.7679V29.2243C23.9385 29.3771 23.995 29.5235 24.0955 29.6315C24.196 29.7395 24.3324 29.8002 24.4746 29.8002H36.2413C36.586 29.7893 36.9131 29.6346 37.1533 29.3689C37.3935 29.1032 37.5279 28.7474 37.5279 28.3771C37.5279 28.0067 37.3935 27.6509 37.1533 27.3852C36.9131 27.1195 36.586 26.9648 36.2413 26.954Z" fill="black"/>
<path d="M48.3286 18.616C48.254 18.4989 48.1531 18.4038 48.0353 18.3396C47.9175 18.2754 47.7865 18.244 47.6545 18.2485H46.6439C46.512 18.2441 46.3812 18.2755 46.2636 18.3398C46.146 18.404 46.0454 18.499 45.9709 18.616L38.7747 29.109C38.6409 29.2952 38.6078 29.4586 38.6755 29.5991C38.7416 29.7363 38.8865 29.8049 39.1112 29.8049H41.3012C41.6054 29.8049 41.8194 29.6824 41.9434 29.4374L43.2608 27.477H51.0387L52.355 29.4374C52.4216 29.5551 52.5164 29.6514 52.6297 29.7161C52.7429 29.7808 52.8702 29.8115 52.9983 29.8049H55.1872C55.4153 29.8049 55.5579 29.7363 55.6241 29.5991C55.6902 29.4619 55.6571 29.3001 55.5248 29.109L48.3286 18.616ZM44.8839 25.0461L47.1492 21.6755L49.4202 25.0461H44.8839Z" fill="black"/>
<path d="M94.1659 18.6165C94.0912 18.4996 93.9903 18.4046 93.8725 18.3404C93.7548 18.2762 93.6239 18.2448 93.4918 18.249H92.4813C92.3493 18.2444 92.2185 18.2757 92.1008 18.34C91.9832 18.4042 91.8826 18.4994 91.8083 18.6165L84.6121 29.1095C84.479 29.2957 84.4456 29.4591 84.5117 29.5996C84.5779 29.7368 84.7239 29.8054 84.9486 29.8054H87.1374C87.4416 29.8054 87.656 29.6829 87.7807 29.4379L89.097 27.4775H96.8761L98.1924 29.4379C98.2588 29.5557 98.3537 29.6521 98.4669 29.7168C98.5801 29.7815 98.7076 29.8121 98.8357 29.8054H101.025C101.253 29.8054 101.395 29.7368 101.461 29.5996C101.528 29.4624 101.494 29.3006 101.362 29.1095L94.1659 18.6165ZM90.7201 25.0466L92.9922 21.676L95.2587 25.0466H90.7201Z" fill="black"/>
<path d="M67.2231 18.2865H64.6658C64.4188 18.2834 64.1791 18.377 63.9917 18.5499L60.1341 22.2501L56.256 18.5499C56.1673 18.4577 56.0615 18.3867 55.9456 18.3413C55.8296 18.2959 55.7061 18.2772 55.583 18.2865H53.0291C52.785 18.2865 52.6367 18.3588 52.5854 18.5009C52.5341 18.643 52.6002 18.8084 52.785 18.991L58.7254 24.6479V28.3163C58.7254 28.7088 58.8706 29.0853 59.129 29.3629C59.3874 29.6405 59.7379 29.7964 60.1033 29.7964C60.4687 29.7964 60.8192 29.6405 61.0776 29.3629C61.336 29.0853 61.4812 28.7088 61.4812 28.3163V24.6847L67.4672 18.9947C67.6611 18.8084 67.7307 18.643 67.6748 18.5046C67.6189 18.3661 67.4672 18.2865 67.2231 18.2865Z" fill="black"/>
<path d="M132.872 18.2866C132.507 18.2866 132.156 18.4426 131.898 18.7201C131.639 18.9977 131.494 19.3742 131.494 19.7667V22.9254H121.571V19.7667C121.571 19.3742 121.425 18.9977 121.167 18.7201C120.909 18.4426 120.558 18.2866 120.193 18.2866C119.827 18.2866 119.476 18.4427 119.218 18.7205C118.959 18.9983 118.814 19.3751 118.814 19.7679V28.3201C118.824 28.7054 118.974 29.0713 119.231 29.3399C119.489 29.6085 119.833 29.7588 120.192 29.7588C120.551 29.7588 120.896 29.6085 121.153 29.3399C121.411 29.0713 121.56 28.7054 121.571 28.3201V25.7214H131.494V28.3201C131.494 28.7127 131.639 29.0891 131.898 29.3667C132.156 29.6443 132.507 29.8002 132.872 29.8002C133.237 29.8002 133.588 29.6443 133.846 29.3667C134.105 29.0891 134.25 28.7127 134.25 28.3201V19.7679C134.25 19.5735 134.214 19.3809 134.145 19.2012C134.076 19.0214 133.975 18.8581 133.847 18.7206C133.719 18.583 133.567 18.4739 133.4 18.3994C133.232 18.3249 133.053 18.2866 132.872 18.2866Z" fill="black"/>
<path d="M76.7758 20.8205C78.3375 20.8125 79.8948 20.998 81.417 21.3731C81.5837 21.4208 81.7574 21.4328 81.9284 21.4083C82.0993 21.3839 82.2641 21.3236 82.4134 21.2307C82.5626 21.1379 82.6933 21.0144 82.7981 20.8673C82.9029 20.7201 82.9797 20.5523 83.0242 20.3733C83.0686 20.1943 83.0797 20.0076 83.057 19.824C83.0343 19.6404 82.9781 19.4634 82.8916 19.303C82.8052 19.1427 82.6902 19.0023 82.5533 18.8897C82.4163 18.7771 82.26 18.6946 82.0934 18.6469C82.001 18.6212 79.7962 18 76.7758 18C71.1125 18 67.864 20.1871 67.864 24.0037C67.864 27.8203 71.1125 30.0074 76.7758 30.0074C79.7962 30.0074 82.001 29.3862 82.0934 29.3604C82.4216 29.2563 82.699 29.0188 82.8667 28.6983C83.0344 28.3779 83.079 27.9998 82.9912 27.6446C82.9034 27.2893 82.69 26.9848 82.3965 26.7959C82.1029 26.607 81.7523 26.5486 81.4193 26.633C79.8963 27.0073 78.3381 27.1915 76.7758 27.1819C75.3021 27.1819 70.4897 26.9528 70.4897 24.0037C70.4897 21.0545 75.3021 20.8205 76.7758 20.8205Z" fill="black"/>
<path d="M116.237 24.6272C116.022 24.4239 115.793 24.2371 115.553 24.0685C115.255 23.8779 114.932 23.7339 114.596 23.6409C114.188 23.5151 113.838 23.411 113.548 23.3285C113.146 23.2248 112.74 23.1479 112.33 23.0981C111.809 23.0271 111.404 22.9748 111.113 22.9413C110.821 22.9078 110.4 22.8641 109.85 22.8102C109.706 22.7996 109.599 22.7886 109.528 22.7771L108.472 22.6705C108.105 22.6313 107.798 22.6019 107.553 22.5799C107.307 22.5578 107.05 22.5333 106.78 22.5051C106.511 22.4769 106.29 22.4537 106.121 22.4316C105.952 22.4096 105.785 22.3826 105.616 22.3495C105.479 22.3243 105.344 22.2911 105.211 22.2503C105.116 22.2209 105.024 22.1827 104.935 22.1363C104.867 22.1049 104.808 22.0535 104.766 21.9881C104.734 21.928 104.719 21.8598 104.72 21.7908C104.722 21.6983 104.752 21.6088 104.805 21.536C104.906 21.4184 105.032 21.3282 105.172 21.2725C105.411 21.1636 105.66 21.0815 105.915 21.0275C106.334 20.9405 106.759 20.8828 107.185 20.8547C107.726 20.8114 108.354 20.7898 109.068 20.7898H109.452C109.648 20.7898 109.84 20.7898 110.029 20.7984C110.067 20.8051 110.105 20.8096 110.143 20.8118C110.249 20.8118 110.352 20.8118 110.455 20.8118C111.918 20.8266 113.375 21.0115 114.801 21.3632C114.906 21.3932 115.014 21.4084 115.123 21.4085C115.165 21.4069 115.207 21.4028 115.248 21.3963C115.499 21.3697 115.736 21.2616 115.929 21.0865C116.121 20.9114 116.259 20.6775 116.324 20.4161C116.346 20.3301 116.359 20.2418 116.364 20.1527C116.379 19.8453 116.296 19.5415 116.129 19.2918C115.961 19.0421 115.719 18.8617 115.442 18.7804C114.207 18.4619 112.947 18.2638 111.678 18.1886C110.994 18.1233 110.252 18.0902 109.454 18.0894H109.071C104.28 18.0894 101.887 19.2848 101.891 21.6756C101.888 21.9614 101.921 22.2461 101.99 22.5223C102.049 22.7609 102.136 22.9903 102.25 23.2047C102.376 23.4233 102.543 23.6112 102.74 23.7561C102.945 23.916 103.16 24.0613 103.382 24.191C103.656 24.338 103.943 24.4514 104.24 24.5292C104.603 24.6338 104.938 24.7187 105.244 24.7841C105.55 24.849 105.958 24.9213 106.468 24.9973C106.978 25.0732 107.435 25.1345 107.837 25.1786C108.238 25.2227 108.767 25.2766 109.421 25.3428C109.716 25.3759 110.041 25.4053 110.393 25.4334L111.259 25.4996C111.487 25.5155 111.727 25.5376 111.993 25.5645C112.259 25.5915 112.473 25.6172 112.636 25.6393C112.799 25.6613 112.968 25.6858 113.142 25.7128C113.28 25.7316 113.416 25.7648 113.548 25.812C113.642 25.849 113.734 25.8928 113.823 25.9431C113.898 25.9809 113.961 26.0408 114.006 26.1159C114.043 26.186 114.062 26.2656 114.06 26.3462C114.06 26.5104 113.946 26.6587 113.718 26.7898C113.49 26.9209 113.041 27.0348 112.379 27.1439C111.531 27.2598 110.676 27.3118 109.821 27.2995H109.638C109.41 27.2995 109.196 27.2995 108.983 27.2934C108.916 27.2808 108.849 27.2738 108.781 27.2725C107.742 27.2698 106.704 27.1879 105.675 27.0275C104.719 26.878 104.133 26.7163 104.123 26.7138C103.965 26.6686 103.8 26.6573 103.638 26.6804C103.476 26.7036 103.32 26.7608 103.178 26.8488C102.893 27.0265 102.684 27.3189 102.599 27.6615C102.514 28.0042 102.56 28.3691 102.725 28.676C102.891 28.9828 103.163 29.2065 103.482 29.2979C103.522 29.3089 103.961 29.4326 104.691 29.5686H104.715C105.965 29.8496 107.606 29.9897 109.638 29.9889H109.821C111.251 29.9889 112.476 29.8709 113.496 29.6348C114.517 29.3987 115.339 28.9985 115.961 28.4341C116.259 28.177 116.499 27.8499 116.661 27.478C116.823 27.1061 116.903 26.6992 116.896 26.2887C116.899 25.971 116.847 25.6554 116.742 25.3587C116.632 25.0742 116.459 24.823 116.237 24.6272Z" fill="black"/>
</g>
<defs>
<clipPath id="clip0">
<rect width="127" height="12" fill="white" transform="translate(7.25 18)"/>
</clipPath>
</defs>
</svg>
